<?xml version="1.0" encoding="UTF-8"?>
<!DOCTYPE svg PUBLIC "-//W3C//DTD SVG 1.1//EN" "http://www.w3.org/Graphics/SVG/1.1/DTD/svg11.dtd">
<!-- Creator: CorelDRAW X6 -->
<svg xmlns="http://www.w3.org/2000/svg" xml:space="preserve" width="2.71802in" height="2.71802in" version="1.1" style="shape-rendering:geometricPrecision; text-rendering:geometricPrecision; image-rendering:optimizeQuality; fill-rule:evenodd; clip-rule:evenodd"
viewBox="0 0 2718 2718"
 xmlns:xlink="http://www.w3.org/1999/xlink">
 <defs>
  <style type="text/css">
   <![CDATA[
    .fil8 {fill:none}
    .fil1 {fill:none}
    .fil6 {fill:#5F362B}
    .fil2 {fill:#D7701E}
    .fil7 {fill:#FEF3E7}
    .fil5 {fill:#FEFEFE;fill-rule:nonzero}
    .fil3 {fill:white;fill-rule:nonzero}
    .fil4 {fill:#2B2A29;fill-opacity:0.501961}
    .fil0 {fill:#C5C6C6;fill-opacity:0.670588}
   ]]>
  </style>
   <clipPath id="id0">
    <path d="M1359 142c672,0 1217,545 1217,1217 0,672 -545,1217 -1217,1217 -672,0 -1217,-545 -1217,-1217 0,-672 545,-1217 1217,-1217z"/>
   </clipPath>
 </defs>
 <g id="Layer_x0020_1">
  <metadata id="CorelCorpID_0Corel-Layer"/>
  <path class="fil0" d="M1359 38c730,0 1321,592 1321,1321 0,730 -592,1321 -1321,1321 -730,0 -1321,-592 -1321,-1321 0,-730 592,-1321 1321,-1321z"/>
  <path class="fil1" d="M1359 0c751,0 1359,608 1359,1359 0,751 -608,1359 -1359,1359 -751,0 -1359,-608 -1359,-1359 0,-751 608,-1359 1359,-1359z"/>
  <g>
  </g>
  <g style="clip-path:url(#id0)">
   <g>
    <rect class="fil2" x="137" y="137" width="2444" height="2444"/>
    <g id="_403279168">
     <path class="fil3" d="M798 2018l-72 0c-5,6 -10,12 -15,17 -5,5 -11,9 -17,11 -6,3 -12,5 -19,7 -7,2 -15,3 -26,4l15 51c-1,3 0,6 3,7 2,2 4,2 5,2l79 0 0 38 -97 0c-2,0 -6,-1 -11,-3 -5,-2 -9,-4 -13,-7 -5,-4 -9,-11 -10,-19l-21 -68 -30 0 0 -40 86 0c7,0 15,-4 22,-12 7,-8 11,-17 11,-28 0,-10 -2,-18 -7,-25 -5,-7 -11,-10 -19,-10l-76 0 0 -38 87 0c21,0 37,9 48,27 4,5 7,11 9,18 2,7 4,15 5,25l60 2 0 -71 42 0 0 249 -42 0 0 -137zm307 137l-133 0c-8,0 -15,-2 -21,-7 -3,-3 -6,-6 -7,-9 -2,-3 -3,-8 -5,-13l-16 -65 -39 0 0 -45 117 0c12,0 21,-2 29,-5 13,-5 20,-14 20,-27 0,-12 -5,-21 -14,-27 -9,-6 -21,-8 -35,-8l-105 0 0 -43 126 0c21,0 40,8 56,23 16,15 23,34 23,55 0,29 -15,50 -45,64 -21,9 -48,14 -78,14l9 46c2,0 4,1 4,2l116 0 0 46zm242 -133l-31 6c28,22 42,41 42,59 0,24 -11,43 -32,55 -19,11 -46,17 -79,17 -23,0 -46,-6 -69,-17 -17,-8 -33,-19 -46,-31l42 -34c7,11 17,22 31,30 13,9 28,13 42,13 17,0 31,-2 40,-5 17,-6 25,-16 25,-30 0,-11 -8,-22 -23,-32 -9,-6 -20,-11 -33,-15l-100 22 -7 -45 54 -6c-28,-22 -42,-39 -42,-52 0,-20 9,-35 27,-45 15,-8 34,-13 57,-13 12,0 25,1 39,4 14,3 28,6 41,9l-4 41c-13,-5 -23,-9 -30,-11 -10,-3 -19,-4 -26,-4l-10 0c-17,0 -29,2 -36,6 -6,4 -10,10 -10,19 0,8 7,16 21,24 14,8 22,11 23,9l96 -22 6 25c6,-5 13,-8 22,-8l41 2 10 0c12,0 20,-1 25,-3 8,-4 12,-11 12,-21 0,-11 -4,-18 -12,-22 -8,-4 -19,-6 -31,-6l-61 0 0 -38 87 0c18,0 34,7 46,20 13,13 19,29 19,48 0,19 -7,34 -21,45 -14,11 -31,17 -51,17 -6,0 -12,-1 -18,-3 -6,-2 -12,-4 -19,-6 -4,0 -6,3 -6,8 0,13 6,24 19,33 13,9 27,13 44,13 19,0 36,-4 51,-11 13,-6 26,-15 39,-27l0 -137 42 0 0 249 -42 0 0 -59c-16,7 -31,13 -46,17 -16,5 -31,7 -43,7 -31,0 -57,-8 -78,-24 -24,-18 -37,-42 -37,-72l0 -1zm277 207c0,25 -9,44 -27,57 -16,12 -38,17 -66,17 -43,0 -80,-11 -111,-33 -19,-13 -35,-31 -50,-52l44 -19c7,17 18,32 33,44 21,16 49,24 83,24 14,0 26,-3 36,-10 10,-7 14,-15 14,-26 0,-11 -4,-19 -12,-22 -8,-3 -18,-5 -31,-5 -9,0 -18,1 -28,4 -5,2 -13,5 -21,9l-34 -29c19,-9 35,-15 49,-18 14,-3 27,-5 41,-5 22,0 41,6 56,17 15,11 23,27 23,48zm215 -182l-96 0 0 -41 96 0 0 -99 42 0 0 249 -42 0 0 -108zm-32 96c-15,3 -24,5 -28,6 -4,1 -10,1 -17,1 -31,0 -59,-11 -83,-34 -27,-24 -40,-54 -40,-90 0,-36 11,-65 34,-88 23,-23 51,-34 84,-34 12,0 22,1 28,2 6,1 14,4 22,8l0 35c-5,0 -11,-1 -18,-2 -7,-1 -11,-2 -13,-2 -25,0 -46,7 -63,20 -19,15 -28,35 -28,61 0,26 9,46 28,61 17,14 38,21 64,21 4,0 9,-1 14,-3 10,-4 15,-6 16,-6l0 44zm339 13l-133 0c-8,0 -15,-2 -21,-7 -3,-3 -6,-6 -7,-9 -2,-3 -3,-8 -5,-13l-16 -65 -39 0 0 -45 117 0c12,0 21,-2 29,-5 13,-5 20,-14 20,-27 0,-12 -5,-21 -14,-27 -9,-6 -21,-8 -35,-8l-105 0 0 -43 126 0c21,0 40,8 56,23 16,15 23,34 23,55 0,29 -15,50 -45,64 -21,9 -48,14 -78,14l9 46c2,0 4,1 4,2l116 0 0 46z"/>
     <path class="fil4" d="M2260 1412l30 0 0 148 -123 0 0 -148c-2,-22 -28,-36 -48,-37l-138 0 0 37 90 0 0 148 -22 0c-33,0 -61,10 -84,30 -23,20 -35,45 -35,73 0,27 12,50 35,68 23,19 51,28 84,28 33,0 61,-9 84,-28 23,-19 35,-42 35,-68l0 -67 123 0 0 112c0,8 -4,15 -11,21 -7,6 -16,8 -27,8l0 23 171 0 0 -23c-11,0 -20,-3 -27,-8 -7,-6 -11,-13 -11,-21l0 -297 35 0 0 -37 -161 0 0 37zm-1800 377l50 0c22,-2 116,-6 116,-83l-108 0c-4,41 -53,62 -89,26 -18,-18 -25,-43 -25,-69 0,-23 9,-43 26,-58 18,-16 39,-23 64,-23l51 0 0 -41 -51 0c-18,0 -34,-6 -47,-19 -13,-13 -19,-29 -19,-48 0,-17 7,-31 21,-42 14,-11 32,-17 54,-17 14,0 31,6 50,18l16 -33c-29,-17 -64,-25 -107,-25 -39,0 -72,10 -99,29 -27,19 -41,43 -41,70 0,21 8,39 23,54 15,15 35,25 60,29 -30,5 -56,17 -77,38 -21,21 -31,44 -31,69 0,34 16,64 48,89 32,25 71,37 117,37zm331 -400c19,0 34,9 47,27 13,18 19,41 19,67 0,25 -6,46 -19,62 -13,17 -29,25 -48,25 -16,0 -29,-8 -41,-25 -12,-17 -18,-37 -18,-62 0,-26 6,-48 18,-67 12,-19 25,-28 41,-28zm-159 277c8,2 19,10 31,25 12,15 28,36 46,62 9,12 23,21 43,28 20,7 43,10 70,10 17,0 35,-4 54,-11 19,-7 39,-18 60,-32l-12 -22c-29,18 -51,27 -67,27 -16,0 -33,-7 -52,-22 -18,-14 -36,-34 -53,-60 8,7 17,12 27,16 10,4 20,6 30,6 40,0 74,-15 102,-45 28,-30 42,-66 42,-109 0,-49 -15,-91 -46,-124 -31,-34 -69,-50 -114,-50 -42,0 -78,11 -107,34 -29,22 -44,50 -44,83 0,32 15,60 44,83 29,23 65,34 107,34 17,0 34,-5 52,-15 0,20 -6,37 -17,52 -11,14 -25,22 -42,22 -15,0 -29,-5 -41,-14l-110 0 -3 22zm365 -254l30 0 0 297c0,8 -4,15 -11,21 -7,6 -16,8 -27,8l0 23 171 0 0 -23c-11,0 -20,-3 -27,-8 -7,-6 -11,-13 -11,-21l0 -297 35 0 0 -37 -161 0 0 37zm562 122c-22,-15 -52,-27 -91,-36 -43,-10 -84,-15 -122,-15 -6,0 -12,0 -18,0 -5,1 -8,1 -10,1 -39,3 -73,17 -100,42 -27,25 -41,55 -41,92 0,35 14,64 41,89 27,25 60,37 99,37 39,0 72,-12 100,-37 28,-25 41,-54 41,-90 0,-19 -5,-38 -15,-54 -10,-17 -24,-30 -41,-39 22,0 43,2 62,6 31,6 62,17 94,33l0 144c0,8 -4,15 -11,21 -7,6 -16,8 -27,8l0 23 171 0 0 -23c-11,0 -20,-3 -27,-8 -7,-6 -11,-13 -11,-21l0 -297 35 0 0 -37 -161 0 0 37 30 0 0 122zm-242 -19c16,0 30,9 42,28 12,19 18,42 18,68 0,28 -6,52 -18,73 -12,21 -26,31 -42,31 -17,0 -31,-10 -42,-30 -12,-20 -18,-45 -18,-73 0,-26 6,-49 18,-68 12,-19 26,-29 42,-29zm416 -104l30 0 0 297c0,8 -4,15 -11,21 -7,6 -16,8 -27,8l0 23 171 0 0 -23c-11,0 -20,-3 -27,-8 -7,-6 -11,-13 -11,-21l0 -297 35 0 0 -37 -161 0 0 37zm316 185l22 0 0 67c0,19 -2,35 -6,48 -4,13 -9,19 -16,19 -6,0 -12,-6 -16,-19 -4,-13 -7,-29 -7,-48 0,-19 2,-35 7,-48 4,-13 10,-19 16,-19z"/>
     <path class="fil5" d="M2260 1388l30 0 0 148 -123 0 0 -148c-2,-22 -28,-36 -48,-37l-138 0 0 37 90 0 0 148 -22 0c-33,0 -61,10 -84,30 -23,20 -35,45 -35,73 0,27 12,50 35,68 23,19 51,28 84,28 33,0 61,-9 84,-28 23,-19 35,-42 35,-68l0 -67 123 0 0 112c0,8 -4,15 -11,21 -7,6 -16,8 -27,8l0 23 171 0 0 -23c-11,0 -20,-3 -27,-8 -7,-6 -11,-13 -11,-21l0 -297 35 0 0 -37 -161 0 0 37zm-1800 377l50 0c22,-2 116,-6 116,-83l-108 0c-4,41 -53,62 -89,26 -18,-18 -25,-43 -25,-69 0,-23 9,-43 26,-58 18,-16 39,-23 64,-23l51 0 0 -41 -51 0c-18,0 -34,-6 -47,-19 -13,-13 -19,-29 -19,-48 0,-17 7,-31 21,-42 14,-11 32,-17 54,-17 14,0 31,6 50,18l16 -33c-29,-17 -64,-25 -107,-25 -39,0 -72,10 -99,29 -27,19 -41,43 -41,70 0,21 8,39 23,54 15,15 35,25 60,29 -30,5 -56,17 -77,38 -21,21 -31,44 -31,69 0,34 16,64 48,89 32,25 71,37 117,37zm331 -400c19,0 34,9 47,27 13,18 19,41 19,67 0,25 -6,46 -19,62 -13,17 -29,25 -48,25 -16,0 -29,-8 -41,-25 -12,-17 -18,-37 -18,-62 0,-26 6,-48 18,-67 12,-19 25,-28 41,-28zm-159 277c8,2 19,10 31,25 12,15 28,36 46,62 9,12 23,21 43,28 20,7 43,10 70,10 17,0 35,-4 54,-11 19,-7 39,-18 60,-32l-12 -22c-29,18 -51,27 -67,27 -16,0 -33,-7 -52,-22 -18,-14 -36,-34 -53,-60 8,7 17,12 27,16 10,4 20,6 30,6 40,0 74,-15 102,-45 28,-30 42,-66 42,-109 0,-49 -15,-91 -46,-124 -31,-34 -69,-50 -114,-50 -42,0 -78,11 -107,34 -29,22 -44,50 -44,83 0,32 15,60 44,83 29,23 65,34 107,34 17,0 34,-5 52,-15 0,20 -6,37 -17,52 -11,14 -25,22 -42,22 -15,0 -29,-5 -41,-14l-110 0 -3 22zm365 -254l30 0 0 297c0,8 -4,15 -11,21 -7,6 -16,8 -27,8l0 23 171 0 0 -23c-11,0 -20,-3 -27,-8 -7,-6 -11,-13 -11,-21l0 -297 35 0 0 -37 -161 0 0 37zm562 122c-22,-15 -52,-27 -91,-36 -43,-10 -84,-15 -122,-15 -6,0 -12,0 -18,0 -5,1 -8,1 -10,1 -39,3 -73,17 -100,42 -27,25 -41,55 -41,92 0,35 14,64 41,89 27,25 60,37 99,37 39,0 72,-12 100,-37 28,-25 41,-54 41,-90 0,-19 -5,-38 -15,-54 -10,-17 -24,-30 -41,-39 22,0 43,2 62,6 31,6 62,17 94,33l0 144c0,8 -4,15 -11,21 -7,6 -16,8 -27,8l0 23 171 0 0 -23c-11,0 -20,-3 -27,-8 -7,-6 -11,-13 -11,-21l0 -297 35 0 0 -37 -161 0 0 37 30 0 0 122zm-242 -19c16,0 30,9 42,28 12,19 18,42 18,68 0,28 -6,52 -18,73 -12,21 -26,31 -42,31 -17,0 -31,-10 -42,-30 -12,-20 -18,-45 -18,-73 0,-26 6,-49 18,-68 12,-19 26,-29 42,-29zm416 -104l30 0 0 297c0,8 -4,15 -11,21 -7,6 -16,8 -27,8l0 23 171 0 0 -23c-11,0 -20,-3 -27,-8 -7,-6 -11,-13 -11,-21l0 -297 35 0 0 -37 -161 0 0 37zm316 185l22 0 0 67c0,19 -2,35 -6,48 -4,13 -9,19 -16,19 -6,0 -12,-6 -16,-19 -4,-13 -7,-29 -7,-48 0,-19 2,-35 7,-48 4,-13 10,-19 16,-19z"/>
    </g>
    <g id="_403278208">
     <path class="fil6" d="M1537 1257c2,2 3,3 5,6 1,2 3,5 5,6 1,-3 -2,-6 -2,-11l2 0c0,2 0,1 1,2l2 2c0,0 0,0 0,0l3 2c-1,-4 -2,-5 -2,-10 2,1 4,2 6,3 2,2 2,4 3,6 1,-2 0,-1 2,-1 0,-4 -2,-3 -3,-6 -1,-2 -1,-6 -2,-8 6,4 9,11 14,14 1,-3 -1,-6 -2,-10 3,2 4,2 6,5 1,1 2,2 2,3 2,2 0,1 4,1 -2,-4 -2,-8 -4,-11 6,2 4,9 12,11 -1,-5 -4,-8 -4,-13 3,1 5,4 7,6 1,1 2,2 3,3 1,2 1,2 4,3l-2 -7c0,0 0,-1 0,-1 0,-4 6,4 11,6l-2 -3c-1,-1 -6,-6 -3,-7l10 7c-1,-4 -4,-5 -5,-10l8 6c0,-5 -3,-2 -4,-8 4,0 4,3 7,5l2 1c1,-1 1,0 0,-1 -1,-1 0,0 -1,-1 0,0 -2,-3 -2,-3 -1,-2 -2,-4 -2,-7 6,4 8,9 13,13 2,1 1,2 4,3l-9 -21c-2,-4 -3,-7 -6,-10 -2,-4 -3,-7 -5,-11 3,-2 1,-2 6,-3l15 -4c3,-1 5,-2 8,-2 9,-3 8,-1 15,1 3,1 2,2 6,3 6,1 2,-1 4,4 3,0 3,-1 7,-1l0 4c10,-6 19,-16 35,-7 4,2 5,5 7,8 6,9 8,12 20,14 1,0 4,0 6,1 3,1 5,2 7,4 6,8 5,16 7,19 1,2 0,0 4,-1 0,4 -1,1 2,2l5 -2 0 4c2,0 2,-1 4,-1 1,3 1,1 0,4l5 -1 0 4 2 0c0,12 7,16 9,27 1,3 1,5 2,7 1,6 2,17 7,21 0,-5 2,-8 3,-12l3 -8c4,-8 6,-18 10,-26 3,-7 0,-11 -1,-18 -1,-7 1,-11 -1,-18 -1,-5 -3,-20 1,-25 -1,-1 -1,0 -3,1 -1,0 -2,0 -3,1 0,-2 0,-3 -1,-4l3 -2c5,-4 9,-9 13,-14 -3,0 -7,2 -11,2 -3,0 -7,-2 -10,-3 -13,-6 -9,-9 -9,-15 -2,0 -4,1 -5,1 1,-4 2,-2 2,-6 -2,0 -2,1 -4,1 -8,4 -9,0 -16,-1l0 -1c5,-1 10,-2 17,-2 -2,-3 -4,-1 -8,-3 -5,-2 -8,-3 -14,-3 0,-4 2,-7 2,-11 0,0 -1,1 -1,2 -2,2 -2,4 -5,4 1,-2 1,-3 1,-7 -3,2 -6,7 -11,7 -9,0 -3,-5 -12,-5 0,-5 5,-4 8,-8 -3,1 -3,1 -6,0 -4,-1 -3,-1 -1,-3l-5 0c1,-2 4,-2 7,-3l-3 -2c-10,-5 -20,-9 -31,-11 0,-11 2,-20 0,-31l-8 -22c-2,-3 -6,-6 -7,-9 11,0 22,4 32,3l4 -1c0,0 0,0 0,0 9,-3 9,-6 14,-8 5,-2 6,-3 7,-8 1,-4 0,-2 3,-5 11,-12 -3,-12 -5,-16 5,2 15,-1 15,-5 0,-6 1,-9 -7,-13 -3,-2 -6,-2 -11,-2 2,-2 3,-2 5,-5 11,-15 -9,-28 -27,-29 -11,-1 -15,0 -24,-2 -6,-2 -16,-4 -21,-2 -1,-2 -1,-5 -3,-7 -2,-3 0,-1 -3,-2l0 -1c3,0 4,0 8,-1 5,-1 11,0 16,-2 3,-1 3,-2 6,-4 -1,-3 0,-5 0,-6 0,-3 -1,-1 -1,-3 0,-3 2,-1 -1,-6 -1,-2 -1,0 -1,-3 0,-2 0,-3 0,-5 -7,-4 -3,-2 -7,-7 -5,-6 -17,-9 -23,-14 -2,-1 -3,-2 -4,-3 -10,-6 -8,-11 -15,-15 -4,-2 -8,-2 -12,0 -4,2 -5,4 -9,7 0,-3 -1,-6 -2,-9 -1,-4 -2,-5 -2,-10 -1,-8 -7,-18 -10,-37 -1,-7 -1,-14 -3,-20 -1,-3 -1,-6 -2,-9l-5 -18c-1,-2 -1,-2 -1,-5l-5 -24c-2,-6 -3,-13 -4,-19l-6 -28c-2,-12 -6,-24 -10,-36 -1,-4 -1,-6 -3,-9 -5,-11 -10,-21 -13,-33l-3 -8c-1,-3 -2,-6 -3,-9 -4,-10 -5,-15 -11,-24 -6,-10 -18,-24 -25,-33l-33 -48c-8,-13 -14,-27 -18,-41 -3,-11 -5,-26 -7,-38 0,-3 -1,-7 -1,-10l-2 -36c-1,-5 -2,-9 -2,-16 0,-10 -3,-21 -4,-30 -2,-12 -8,-34 -12,-45 -3,-10 -7,-20 -12,-29 -4,-7 -8,-15 -14,-20 -7,-6 -5,-8 -17,-13 -3,-1 -6,-2 -9,-3 -3,-1 -6,-2 -9,-3 -12,-5 -13,-8 -28,-8 -20,0 -40,4 -59,12 -11,4 -20,11 -30,17 -5,3 -8,7 -12,11l-8 10c-4,6 -9,11 -13,16l-7 10c-7,10 -10,14 -15,25 -1,1 -1,2 -2,4l-16 37c-1,3 -2,6 -3,8 -1,3 -2,5 -3,9l-15 44c-5,15 -8,30 -14,45l-7 16c-1,1 -1,2 -2,4 -6,12 -11,24 -17,36l-3 6c0,0 0,0 0,1l0 1c-2,-8 -5,-25 -5,-33 9,-2 3,-6 3,-10 0,-2 1,-3 2,-4 2,-4 4,-7 0,-10 -4,1 -6,5 -9,7 -3,-6 -4,-36 -4,-45 0,-3 9,-3 13,-5 7,-4 5,-21 3,-27 -3,-15 -22,0 -26,-7 -3,-4 -2,-26 -3,-28 -1,-5 -3,-2 -4,-7l-7 -45c-1,-4 0,-7 0,-11 0,-5 -2,-4 -4,-7 -2,-4 -5,-28 -5,-34 0,-4 1,-4 1,-8 -6,0 -9,4 -4,-17 -2,1 -3,2 -5,2 0,-5 1,-4 2,-7 -6,0 -9,8 -9,13 0,6 4,17 6,23 1,2 0,4 1,6 1,2 1,4 2,6 1,4 2,9 3,12 -6,3 -4,1 -2,12 2,9 6,17 8,26l5 28c1,7 -2,6 -2,9 0,5 3,9 4,14l3 16c-4,0 -8,-2 -13,-3 -13,-3 -30,-3 -42,2 -2,1 -3,1 -5,2 -3,1 -3,1 -5,4 -4,6 -4,16 -2,23 0,2 1,5 1,7 1,9 3,16 10,21 2,1 2,2 5,2 9,2 17,-3 25,-6 6,-2 13,-4 18,-6 3,-1 9,-4 12,-5 1,14 7,25 7,39 0,7 0,12 3,19 3,6 4,11 6,17 2,9 5,18 5,27 0,3 -3,6 -4,7 -2,2 -3,4 -5,7 -3,5 -7,8 -10,13l-15 24c-1,3 0,2 -2,4 -2,2 -1,0 -2,3 -1,1 -1,2 -2,4 -7,16 -11,21 -17,39 -1,3 -2,5 -3,8 -1,2 -2,6 -3,9l-5 18c-2,5 -8,29 -9,36l-10 55c-1,10 -1,9 -3,20l-6 39c-1,6 -1,14 -2,20l-5 37c-1,10 -1,21 -3,30 -1,5 -2,36 -2,40 1,8 1,30 3,42 1,3 1,7 1,10 0,13 4,25 7,38 4,19 4,44 8,59l5 12c1,1 1,2 2,4 -7,3 -8,4 -12,10 -2,4 -8,9 -11,11 -6,5 -7,11 -11,17 -2,3 -7,6 -9,9 6,0 9,-2 15,-3 -7,10 -17,3 -28,13 -2,2 -5,4 -6,8 4,-1 5,-3 11,-3 -3,3 -7,3 -10,6 -2,2 -6,6 -7,9 3,-1 4,-2 7,-2 -1,2 -3,3 -5,5 -2,3 -2,3 -3,7 -2,4 -9,5 -13,7 -7,3 -10,10 -16,14l-5 2c0,0 0,0 -1,0l-2 1c7,2 9,2 15,0l15 -5c-1,3 -2,4 -2,7 0,3 -1,7 -1,9 3,-2 0,0 2,-2 2,-3 4,-6 7,-6 -1,2 -2,11 -2,15 4,-2 3,-5 6,-7l0 12c0,2 0,3 -1,5l5 -10c0,3 0,4 0,7 1,4 0,2 0,6 4,-1 4,-5 4,-9l2 0c0,2 -1,4 0,4 1,0 1,-1 4,-2 -2,8 -5,14 1,21 0,-2 0,-4 0,-6 0,-3 1,-2 2,-5l2 0c0,4 -1,3 -1,6 0,2 1,5 2,7 2,-1 2,-2 2,-4 0,-1 1,-4 1,-5l5 14c0,-3 0,-3 1,-5 2,1 0,9 4,13 0,-4 1,-12 5,-15 0,4 -1,9 0,13 1,3 2,5 4,8l1 1c0,-2 0,-6 0,-8 0,-3 1,-3 1,-7 0,-5 1,-11 5,-13 0,8 2,17 7,20 -2,-9 1,-19 2,-27 1,-6 1,-11 2,-17 5,3 2,14 7,18l0 -13c1,-12 0,-9 0,-20 0,-1 2,-4 3,-5 2,-2 2,-2 5,-3 1,5 1,11 0,17 4,-4 11,-16 14,-18 1,2 1,3 2,6 2,-1 7,-13 8,-16l2 0c0,2 1,2 1,4l2 3c1,-3 1,-11 3,-13 1,3 1,5 3,7 0,-6 3,-11 7,-14 0,3 -1,3 -1,7 4,-2 7,-3 12,-2 0,3 1,9 2,12l4 -4 1 3c3,-1 0,0 2,-1l6 -3c2,4 -1,3 3,5 0,-4 3,-3 6,-4 3,0 5,2 9,2 3,0 8,-7 10,-8 0,4 -1,2 -2,6 6,-4 11,-4 18,-7 28,-13 16,-5 42,-5 13,0 11,-1 25,3 -1,4 -8,4 -9,9l8 0c-1,3 -2,4 -3,7 7,-3 11,-5 19,-2 8,3 6,8 6,15 4,-1 2,-3 6,-4 0,2 -1,4 -2,5 2,-1 3,-3 6,-3 5,0 9,1 12,1 4,0 6,-2 11,-2 0,1 -1,2 -1,4 -1,2 -1,1 -1,4 4,0 6,1 12,1 0,3 1,5 1,8 1,4 -1,5 2,6 0,3 -2,4 -3,7 4,1 9,2 14,2 -1,4 -4,5 -7,7 -2,2 -4,2 -5,4 3,0 3,0 5,1 0,1 0,0 -1,3 2,0 2,1 4,1 0,3 0,2 1,4 2,0 2,-1 4,-1 -1,3 -1,1 0,4 -3,1 -3,1 -5,3 3,0 2,0 4,0 1,0 3,0 5,0 0,3 -1,3 -2,4 4,0 1,-1 4,-1 2,0 2,0 4,0 -1,2 -1,3 -3,4l0 1c2,0 2,-1 4,-1 -1,3 -1,1 -2,4 9,0 6,-1 5,3 5,0 3,0 6,1 -2,3 -5,3 -7,7 3,0 5,-1 8,-1 -1,1 -1,2 -2,4 4,0 10,-3 7,2 -2,3 -6,3 -6,8 3,-1 5,-2 9,-2 0,4 -1,1 4,1 0,2 0,2 -1,4 2,0 2,-1 4,-1 -1,3 -2,4 2,3 0,2 -1,2 -2,4 5,0 3,-2 8,-1 0,2 -1,2 -1,4l3 0c-1,3 -1,1 -2,4l5 -1 0 3c3,-1 1,-1 4,-1 0,2 0,1 1,3 2,-1 5,-1 8,0l7 2c0,0 0,0 1,0l7 2c5,1 11,2 17,1 1,0 2,-1 4,-1 4,-1 4,0 7,-1 2,-1 4,-2 7,-2l3 1c0,0 0,0 0,0 1,-4 3,-3 6,-4 5,-2 1,-3 8,-3 1,-7 2,3 2,-4l3 0c2,-2 -1,-2 3,-2l0 -2c4,0 3,-1 5,-4 1,-1 2,-1 2,-1l1 -3c2,-3 2,1 2,-5 3,0 2,-1 5,-1l-1 -2c3,0 9,0 10,1l-4 -5c0,-1 1,-1 3,-2 -2,-1 -2,0 -2,-2 1,-1 6,-2 5,-4 -2,-4 1,3 -1,-1 3,-1 2,-1 5,-2 -3,-4 -1,0 -5,-1l0 -2c4,0 3,-1 2,-4 3,0 3,0 5,1 -1,-2 -2,-3 -2,-4 2,-1 3,-1 5,-1 -1,-2 -1,-1 -1,-3l0 -2c0,-2 0,-2 1,-4 -2,-1 -2,0 -2,-2 4,-1 4,-2 5,-5l0 -1c0,-2 1,-2 3,-3 -2,-3 -2,-5 -3,-8 -1,-3 -2,-6 -2,-9 2,1 1,0 3,2 3,3 3,6 5,8 2,3 6,9 8,10 -1,-6 -4,-10 -5,-16 4,2 6,7 8,11 1,3 2,5 4,7l1 -1c0,0 0,-1 0,-1l-3 -7c-1,-3 -2,-6 -2,-10 6,1 7,12 12,16 0,-3 -1,-4 -1,-7 -1,-3 -1,-5 -1,-8 5,1 8,9 9,14l2 0c0,-5 -2,-5 -2,-12 6,0 4,7 9,8 -1,-4 -2,-5 -2,-10 3,2 5,7 8,10 0,-4 -1,-3 -2,-6 -1,-2 -1,-4 -1,-7l9 10c0,0 0,0 0,1 1,1 0,2 2,2 2,-1 -1,-3 -1,-8l2 0c1,3 3,5 5,7 0,-2 -2,-7 -2,-8zm177 -253c4,-5 18,-1 19,2 -12,0 -8,0 -19,-2zm3 21c3,0 3,-1 6,-1l5 0c11,1 2,-1 12,1 -5,3 -18,1 -23,1l0 -1z"/>
     <path class="fil7" d="M1368 1340c0,0 9,-5 19,-5 10,0 17,4 17,4 0,0 -8,-3 -18,-3 -10,0 -18,3 -18,3zm34 -19c0,0 7,-5 18,-5 11,-1 18,0 23,-3 0,0 -11,5 -23,5 -12,0 -18,3 -18,3zm-29 -3c0,0 -6,-5 -17,-7 -11,-2 -18,-2 -23,-5 0,0 11,6 22,7 12,1 18,4 18,4zm1 -5c0,0 -6,-5 -17,-7 -11,-2 -18,-2 -23,-5 0,0 11,6 22,7 12,1 18,4 18,4zm30 2c0,0 7,-5 18,-5 11,-1 18,0 23,-3 0,0 -11,5 -23,5 -12,0 -18,3 -18,3zm-181 -845c0,0 -6,15 -9,35 -2,20 -21,37 -21,37 0,0 10,-13 16,-32 7,-18 5,-36 13,-41zm147 -85c0,0 5,4 15,4 0,0 -11,3 -15,-4zm-48 3c0,0 -5,4 -12,4 -7,0 -12,-3 -12,-3 0,0 9,3 14,2 5,-1 7,-2 10,-2zm46 -19c0,0 5,-9 16,-9 11,0 16,6 20,8 3,2 -2,0 -7,-3 -5,-2 -12,-4 -16,-3 -4,1 -10,8 -12,6zm-82 4c0,0 16,-12 26,-12 10,1 14,6 14,6 0,0 -1,0 -5,-2 -4,-2 -10,-3 -17,0 -6,3 -14,9 -18,8zm-62 -2l4 1c1,6 -1,4 -3,4l0 1c1,0 5,2 5,-2l-2 -5c0,0 0,0 0,0 -2,1 -1,1 -3,1zm344 780l-2 0 0 -2 -2 0c1,3 2,2 2,5 1,-1 1,-1 3,-2l2 -2c-2,-3 -1,-3 -3,-4 -1,2 0,2 1,5zm-165 151c0,-4 -1,-5 -5,-5 -1,3 -2,2 -2,3 0,1 1,3 2,4 5,0 1,0 5,-1zm-4 -3c1,0 1,-1 2,0 1,3 -2,3 -4,2 0,-2 0,-2 2,-2zm-348 -125c2,-1 1,-1 3,-2l9 -8c0,-3 0,0 -1,-2 -4,1 -1,1 -6,5 -3,3 -4,3 -6,6zm463 -16c6,-1 0,-1 5,2 0,0 0,0 0,0 0,0 0,0 0,0 0,0 1,-1 1,-1 2,-2 3,-2 0,-7 -4,3 -6,3 -7,7zm-84 138c-2,0 -3,1 -5,1 -5,0 -4,-2 -8,-1 0,3 1,5 4,6 4,2 5,0 8,2 2,-4 2,-3 2,-8zm-12 1c8,4 12,-2 10,6 -3,0 -5,0 -7,-1 -2,-1 -3,-2 -3,-5zm-92 -47c0,7 2,6 6,9 4,3 5,6 8,8 0,-3 -1,-3 -1,-7l-6 -5c-1,-1 -2,-2 -3,-3 -2,-2 0,-1 -3,-2zm11 12c-3,-1 -9,-4 -9,-8 3,2 7,5 9,8zm42 40c2,-1 2,0 4,-2 1,-1 2,-2 2,-3 0,-2 -7,-4 -10,2 2,2 1,2 4,3zm126 -350c0,0 4,-2 4,-2 4,-4 1,-7 -7,-7 -2,3 -5,10 2,10zm-2 -5c0,-3 7,-3 7,0 0,3 -7,5 -7,0zm-399 237c3,1 4,3 5,7 2,-1 3,-1 5,-2l0 -4c-3,-2 -6,-4 -9,0zm-2 -7c6,0 6,-9 -2,-9 -3,0 -2,2 -1,4 1,2 1,5 2,5zm341 -783c0,5 5,6 8,6 3,-6 2,-3 2,-7 0,-3 -1,-3 -2,-4 -2,-1 -3,-1 -5,-2 -1,3 -3,2 -3,7zm7 -4c4,0 1,9 1,9l-5 0c-1,-2 -1,-4 -1,-5 1,-2 3,-4 5,-4zm-126 900c0,6 3,8 6,12 0,0 0,1 1,1l2 0c0,0 0,0 0,0l0 -1c0,-5 1,-5 -4,-9 -4,-3 -1,-2 -4,-2zm-42 -66l-3 -3c-4,-3 -12,-2 -16,-4 2,6 13,7 18,7zm92 20c0,-3 2,-9 -1,-12 0,0 -4,-2 -4,-2 -4,-1 -6,0 -10,1 6,8 0,1 8,6 4,2 4,5 7,7zm-1 -4c-2,-1 -4,-4 -6,-5 -3,-2 -5,0 -6,-4 10,0 12,1 12,9zm-272 -88l0 8c0,0 -3,6 6,1 4,-2 4,-10 -1,-11 -2,-1 -6,-1 -6,2zm2 0c13,0 0,15 0,7l0 -7zm248 -810c-2,0 1,11 6,6 2,-2 2,-7 -1,-8 -2,-1 -4,0 -5,2zm-329 893c3,-5 6,-5 9,-8 3,-2 10,-8 10,-11 -2,1 -10,10 -13,12 2,-9 12,-13 14,-16 -2,0 -2,1 -4,1 -1,1 -2,1 -3,2 -6,4 -6,7 -9,12l-5 6 1 1zm319 -804l0 -1c-13,0 -8,-10 -8,-12 3,0 4,-1 8,-1 1,3 1,1 2,4l2 0c0,-7 -8,-8 -11,-6l-1 1c-4,4 -4,9 2,12 4,2 3,1 8,1zm-125 105c3,-1 5,-5 6,-8l2 0c1,3 0,2 2,4 0,-4 -2,-5 -3,-8 -2,1 -2,0 -4,4 0,0 0,0 0,1 -1,1 0,-1 -1,2 -3,-2 0,-2 -4,-3 0,4 -5,9 -7,12 3,-1 5,-4 6,-7 2,2 2,1 2,5zm550 663c2,4 -1,2 4,7 3,2 3,4 7,5 -4,-3 -6,-4 -6,-7 6,1 13,3 15,10 -3,-1 -2,-2 -8,-3 3,2 3,1 6,3 2,2 2,3 5,5 0,-2 -1,-6 -2,-8 -2,-4 -9,-7 -13,-8 -5,-2 -3,-3 -6,-5 -1,1 -1,0 -2,1zm-572 -738c3,5 2,6 -1,10l-5 0c-2,-4 -2,-4 -2,-10 -3,2 -3,5 -2,8 2,4 3,3 6,5 3,-1 6,-3 6,-7 0,-9 -3,-5 -8,-7 -1,2 0,1 -2,3 2,3 1,3 4,4 -1,-3 -1,-2 -2,-5l4 0zm-152 744c1,1 0,1 1,0l3 -3c5,-4 5,-7 6,-10 1,-4 0,-3 0,-9 0,-4 2,-1 0,-4 -3,2 0,0 -2,2 -10,16 -1,16 -9,25zm4 -4c1,-3 1,-6 2,-9 1,-4 2,-5 2,-8 5,3 0,14 -4,17zm348 40c2,-1 2,0 3,-1 1,0 2,-1 3,-1 3,-1 2,0 5,-2 3,-2 7,-4 11,-5 -2,-3 0,0 -4,-1 -5,-1 -7,-2 -15,2 -3,2 -3,4 -4,8zm2 -2c0,-4 -1,-1 2,-3 4,-4 6,-4 11,-4 -3,4 -8,6 -13,7zm-280 -104c0,4 1,-1 0,3 -1,3 -1,0 0,4 3,0 1,0 3,-1 11,-6 8,-16 -6,-17 1,6 2,0 2,11zm2 4c0,-7 0,-8 -2,-13 8,0 10,11 2,13zm182 -334c5,0 11,-3 13,-5 -6,1 -2,2 -12,2 -7,0 -12,-4 -15,-9 -1,-2 -2,-3 -2,-7l-1 0c0,11 7,18 17,18zm74 495c0,-2 3,-5 5,-6 1,0 1,0 1,-1l1 -1c-3,0 -4,0 -7,2 -1,1 -2,1 -3,2 0,1 -1,3 -1,3 0,6 6,8 11,8 2,4 4,8 9,10 0,-3 0,-2 -2,-3 -8,-6 -3,-6 -5,-8 -1,-1 -11,2 -11,-7zm-53 -31c-3,-4 -4,-14 -9,-15 0,2 -2,-1 0,3 1,2 1,2 2,4 0,2 0,3 0,5 1,4 6,10 9,14l1 1c0,-4 -1,-8 -4,-11zm83 -6c1,-11 6,-15 15,-19 7,-4 8,-4 6,-5 -1,0 0,0 -1,1l-3 1c-2,1 -3,1 -5,2 -5,2 -12,6 -14,12 -3,8 0,8 2,8zm28 17c3,0 14,-5 17,-7 0,-4 1,-12 -2,-12 -4,0 -4,4 -8,9 -2,2 -2,3 -4,5 -2,2 -2,2 -4,5zm8 -5c1,-2 2,-4 4,-7 2,-4 3,-4 3,-3 1,1 1,-1 1,2l0 6c-6,3 -4,3 -8,3zm-273 -766l0 5c0,0 8,7 12,0 0,0 2,-2 2,-5l-2 0c0,4 -1,3 -3,6 -5,0 -4,0 -8,-2l0 -4c0,0 0,0 0,0 0,0 0,0 0,0 5,5 8,3 9,-2 -2,-1 -2,-1 -5,-1 2,2 1,1 3,3 -5,1 -2,0 -6,0 0,-3 0,-5 5,-5 3,0 0,0 3,1l3 2c0,-6 -6,-8 -10,-3 -2,3 -4,3 -4,5zm632 721c0,10 4,12 4,20 0,4 -1,4 -1,8 3,-2 7,-12 7,-17 0,-6 -3,-9 -7,-13 0,0 0,0 0,0l-3 -1 0 3zm1 1l0 -2c2,0 2,-1 5,4 4,6 3,8 1,15l-5 -14c0,0 0,0 0,0 -1,-2 -1,1 -1,-2zm-352 55c2,0 10,-2 12,-4 -4,0 -9,-1 -10,-5 -3,0 -9,3 -12,4 -7,3 -9,0 -11,5 5,2 5,1 10,1 11,-1 4,0 11,0zm-18 -1c2,-2 4,-2 8,-3 7,-2 9,-6 15,2 -6,3 -10,0 -14,1 -6,1 -3,2 -9,0zm-86 -323c0,-8 9,-3 12,-7 -2,0 -14,-1 -14,5 0,10 10,9 14,6 2,-1 2,-2 2,-5 -3,-2 -11,-3 -11,4 -2,0 -3,-1 -3,-3zm15 -610c-6,0 -12,-1 -13,-9 -1,1 -5,0 0,8 4,6 23,9 23,-9l-2 0c0,7 -5,10 -8,10zm76 669c0,3 2,6 4,8 3,3 3,3 8,3 0,-3 0,-1 -2,-4l5 -2c-3,1 -3,1 -5,-1 5,-7 6,0 8,4 -6,4 -4,4 1,2 2,-7 0,-4 -2,-10 -6,0 -9,0 -9,6 -4,-1 -4,-2 -4,-7 3,-1 2,-2 6,-2l3 -2c-3,0 -8,1 -10,2 -1,0 -2,2 -2,3zm7 6l0 0c0,0 0,0 0,0zm-377 71c1,2 1,4 3,6 0,1 1,2 1,2l6 13c5,10 13,17 13,17 0,0 0,1 0,1l-9 -12c-1,-1 0,0 -1,-2 -1,-3 -5,-10 -5,-12 17,9 14,11 22,19 -1,-4 -4,-9 -7,-12l-15 -11c-2,-2 -3,-2 -4,-3 -1,-1 -1,-1 -2,-2 0,-1 -1,-1 -1,-1l-1 -1zm190 82l12 1c0,4 -1,3 -1,6 3,-1 1,-2 12,-5 3,-1 11,-3 12,-5 -9,-2 -18,-5 -27,0 -6,3 -7,2 -9,4zm8 -1c1,-2 0,-1 2,-2 8,-5 12,-1 20,-1l0 1c-4,0 -5,1 -8,3 -1,0 -3,1 -4,1 0,0 0,0 0,0l-3 1c0,-2 1,-2 1,-4 -4,0 -4,0 -7,1zm82 66c3,5 14,6 21,8 4,1 11,4 13,7 1,1 1,3 4,3 3,0 3,-2 1,-4 -2,-3 -10,-7 -15,-8l-24 -5zm-8 -27c7,-1 14,0 21,-2 2,-1 1,-1 5,-1l15 -2c-2,-3 -13,-7 -17,-7 -2,0 -5,1 -7,2 -6,2 -8,-1 -13,4 -2,2 -4,3 -4,6zm7 -2c-3,0 0,0 -2,-1 1,-2 1,-2 4,-3 2,-1 3,-1 6,-1 10,-2 7,-5 16,-2 3,1 3,1 4,3l-27 4zm2 -74l1 6c5,3 6,0 10,3 5,4 3,4 14,9 1,0 1,0 1,1l3 2c0,0 2,1 2,1 2,1 5,2 7,2l14 5c-1,-2 1,-1 -5,-4l-13 -9c0,0 0,0 0,0 -6,-5 -5,-3 -13,-11 -2,-2 -2,-2 -5,-4 0,0 0,0 0,0l-1 -1c-4,-2 -8,-2 -13,1zm8 -1c5,0 10,6 13,9l2 2c3,2 5,4 8,6l7 6c-3,0 -4,-1 -7,-2 -20,-10 -13,-8 -20,-13 -5,-4 -12,-1 -10,-5 1,-2 4,-3 6,-3zm-58 67c3,0 2,-1 6,-1 2,8 9,2 11,-2 2,-2 15,-9 18,-11 5,-2 5,-2 12,-2 -1,0 0,0 -1,-1l-5 -2c-8,-2 -12,-2 -21,1 -7,2 -11,8 -21,11 -2,1 -4,1 -3,3 0,2 2,4 4,4zm9 0c0,-3 0,-2 -1,-4 -1,0 -1,0 -2,1 -7,2 -5,3 -7,-1 2,-3 6,-2 14,-8 8,-5 16,-7 26,-5 0,2 0,1 -2,2 -4,1 -17,8 -20,11 -3,2 -4,4 -8,5zm65 10c-1,0 -3,1 -4,1 -2,0 -3,0 -5,0 -5,0 -10,4 -13,7 -3,3 1,2 4,2 4,0 23,-1 28,1 4,1 2,2 8,2 -2,-3 0,-1 -2,-5 -2,-5 -10,-8 -16,-8zm-18 8c2,-3 4,-4 8,-4 5,0 18,-5 21,5 -5,0 -8,-1 -14,-1l-15 1zm-105 -578c2,0 2,0 4,-1l1 -6c-1,-5 -18,-6 -21,-6 -2,0 -3,-1 -4,-1l-8 -1c-4,-1 -18,-3 -21,-1 -1,1 -3,3 -3,5 2,8 25,8 35,9 3,0 6,1 8,1 3,1 5,1 9,1zm-44 -15c7,0 8,1 14,1 3,0 29,4 31,6 0,0 0,0 0,0 0,1 1,1 1,2 0,1 0,3 0,4 -5,1 -8,0 -18,-1 -3,0 -5,0 -8,0 -8,-1 -27,-2 -26,-8 0,-2 3,-3 6,-3zm188 592c0,12 2,5 11,1 14,-6 17,-3 26,-2 0,-2 -4,-5 -6,-6 -6,-4 -14,-2 -19,-2 -3,0 -4,-1 -7,0 -5,1 -2,1 -4,7 -1,2 -1,1 -1,3zm2 3c1,-2 1,-2 2,-4 1,-2 0,-3 1,-4 2,-4 4,-1 8,-1 3,0 13,-5 18,1 -2,0 -3,0 -4,0 -16,0 -20,7 -24,8zm-195 -570c0,9 20,8 27,9l26 1c3,0 5,-2 5,-5 0,-8 -15,-5 -23,-6 -4,-1 -8,-1 -13,-2 -5,-1 -22,-7 -22,3zm56 7c-3,1 -2,2 -6,2l-32 -2c-18,-1 -24,-14 -2,-10l13 3c11,2 21,1 23,2 3,1 4,1 4,5zm-73 413l-3 -4c1,8 15,29 21,37 6,7 8,8 14,7 -8,-15 -15,-11 -32,-40zm489 -111c-9,0 -15,0 -20,6 0,0 0,0 0,0 -8,7 -10,12 -12,22 -4,16 -2,26 -6,39 -1,3 -2,8 -3,12 2,-2 6,-13 7,-16 1,-3 1,-4 1,-6 4,-16 1,-18 3,-27 1,-4 2,-7 4,-11 13,-24 20,-13 27,-19zm-342 239c1,3 1,2 3,5 1,2 2,3 2,6 -8,-2 -5,-4 -18,-4 -4,0 -8,1 -11,2 -2,1 -2,-1 -3,3 13,-6 21,-2 29,2 8,3 4,4 9,4 -3,-6 -1,-7 -6,-16 7,-5 13,-9 23,-11l9 0c2,0 4,0 5,1 4,1 6,2 7,-1 -12,0 -12,-10 -40,6l-8 4zm-65 -13l9 0c3,2 -1,1 4,2 4,1 -1,-2 4,1 4,2 0,0 6,2 1,0 1,0 2,0 2,0 4,-1 6,-2l3 -2c9,-7 21,-16 31,-19l-3 -1c-12,-5 -27,0 -36,7 -6,4 -11,7 -19,9 -3,1 -6,0 -7,3zm13 -2c9,-1 19,-13 32,-15 4,0 9,0 12,-1 -1,2 -7,6 -10,8l-3 2c-1,1 -2,1 -2,1 0,0 -1,0 -1,1l-9 7c-7,5 -8,1 -10,1 -4,0 0,1 -2,0 -4,-1 4,2 -2,-1l-5 -1c1,-2 1,-1 1,-3zm-32 -502c5,0 12,-3 12,-7 0,-6 -8,-5 -14,-5 -5,0 -12,-1 -17,-2 -5,-1 -11,-2 -16,-3 -8,-2 -12,2 -12,4 0,1 2,5 3,5 4,4 26,7 31,7 4,0 9,1 14,1zm-25 -13c4,1 8,1 12,2 13,2 21,-2 21,7 -3,1 -1,1 -4,1l-15 0c-5,0 -9,-1 -13,-1 -29,-3 -23,-13 -14,-11l12 2zm191 602c5,0 7,-2 10,-4 6,-3 12,-9 13,-16 1,-6 1,-8 -1,-10 -3,11 -17,4 -21,20 -1,4 -2,7 -1,10zm15 -20c6,-4 8,-4 7,-1 0,2 0,1 -1,3 -1,3 0,3 -2,4 -1,-5 -2,-3 -4,-7zm-1 11c-2,0 -4,0 -4,-2 0,-1 1,-2 3,-1 2,1 1,1 1,3zm-12 6c0,-3 1,-1 1,-4 2,2 2,2 5,3 -3,4 -5,3 -5,1zm-53 44c1,1 1,1 2,2l2 2c1,1 0,0 1,1l3 1c1,1 1,0 2,1l2 1c6,3 5,-3 7,5 -4,-1 -2,-1 -2,1 6,0 2,2 8,0 1,-2 1,-3 2,-4 2,-5 3,-1 7,-5 1,-1 1,-2 3,-3 2,1 1,1 2,2 4,4 6,4 5,10 13,0 5,1 11,-1l3 -1c4,-3 4,-1 8,-4 -4,0 -5,1 -10,1 -7,0 -13,-4 -16,-9l2 -4c7,-5 3,-2 6,-6 2,-2 4,-1 7,-3l1 -1c3,-3 3,-7 -1,-10 -2,-1 -3,-2 -6,-2 2,3 6,1 6,8 0,2 -1,3 -2,4 -2,1 -3,1 -4,1 -5,1 0,4 -10,9 -3,2 -1,0 -3,3 -4,5 -12,8 -18,8 -5,0 -10,-1 -14,-4 -2,-2 -1,-2 -4,-2zm23 9c0,1 0,2 0,3l-3 0 0 -2c0,-1 0,-1 1,-2 2,1 1,0 2,2zm-98 -961c2,-1 1,-2 3,-4 11,-16 36,-20 51,-10 5,3 3,3 8,3 0,-7 -7,-10 -13,-11 -8,-2 -12,-3 -21,-1 -16,3 -21,7 -26,18 -1,2 -1,2 -2,5zm66 888c3,5 3,3 5,7 2,4 4,10 9,14 5,3 8,1 9,1 2,0 8,4 8,1 0,-15 -8,-18 -20,-20 -11,-2 -6,-1 -10,-3zm11 13c-2,-2 -2,-2 -3,-5 -1,-3 -2,-2 -2,-5 1,1 8,1 9,1l0 1c-3,1 -4,3 -4,7zm5 2c0,-2 5,-5 5,-1 0,3 -5,5 -5,1zm8 5c1,-2 2,-5 5,-6 0,5 1,7 -1,7l-4 -1zm-58 -30c3,0 5,-1 5,-3 1,-4 -1,-2 3,-4 8,-5 8,-14 4,-16 -2,-1 -3,-1 -5,-1 -3,0 -8,-1 -11,-1 -5,-1 -7,1 -10,3 -7,6 -5,9 -4,15 1,8 8,9 17,9zm-10 -23c5,-2 9,0 12,1 4,0 5,0 8,1 -1,4 -7,5 -11,5 -8,0 -10,1 -10,-7zm-4 3c2,2 1,0 2,3 1,1 1,2 2,3l-5 0c-1,-2 -1,-3 1,-6zm14 7c8,1 6,-3 12,-3 -1,4 -2,5 -4,7l-6 0c-1,-2 -2,-2 -2,-4zm-13 2c5,0 7,-3 10,1 2,2 0,1 4,3 3,2 2,1 4,3 -3,4 -9,3 -14,1 -3,-1 -2,-1 -4,-2l0 -5zm71 -854c7,0 11,2 16,3l9 0c7,-2 9,-4 12,-4 3,0 3,1 6,0 -2,-1 -1,0 -3,-1l-3 -2c-3,-3 -5,-9 -16,-9 -5,0 -15,4 -18,8 -3,5 -3,2 -3,6zm33 -2c-5,1 -7,5 -6,-2 0,-2 0,-2 0,-4 4,0 5,2 5,6zm-28 1c0,-4 1,-5 4,-6 1,3 1,3 2,7 -2,-1 2,-1 -5,-1zm-82 -1c0,0 0,0 0,0l5 0c2,0 4,2 5,3 7,4 14,5 21,2 0,0 0,0 1,0l2 -1c6,-2 1,-1 7,-2 3,0 4,0 5,-3 -6,0 -7,-4 -11,-6 -6,-4 -12,-6 -20,-3l-15 9c-1,2 -1,-1 0,1zm6 -1c1,-2 3,-2 5,-3 -1,2 0,4 1,6 -4,-1 -3,-2 -6,-3zm8 0c0,-3 0,-1 2,-4l5 1c-2,4 1,1 -5,2 -1,0 -1,0 -2,0zm17 4c1,-3 1,-5 1,-9 2,1 6,3 6,6 0,2 -5,3 -7,3zm41 32c0,10 1,13 -7,13 4,5 9,-2 9,-13 0,-7 -2,-14 -2,-21 -1,-9 -6,-20 0,-32 1,-2 1,-3 3,-4 3,-2 2,1 5,-3 4,-3 5,-4 10,-6 0,0 1,0 1,0 8,-3 18,-3 25,1 4,2 5,4 7,5 -1,-9 -16,-13 -23,-13 -7,0 -18,3 -22,6 -7,5 -14,19 -12,29l4 24c1,4 1,8 1,13zm-12 634c20,0 15,0 34,-2 10,-1 6,0 13,-3l3 -1c0,0 0,0 0,0 0,0 0,0 0,0 -2,0 -15,4 -26,4 -23,0 -41,-3 -64,-7 -4,-1 -5,-1 -8,-2 -12,-3 -27,-8 -39,-12l-14 -6c-2,-2 -4,-3 -7,-4 3,4 11,8 16,10 19,10 61,20 84,22 2,0 0,0 3,0 2,0 1,1 4,1zm-58 -704c5,0 7,0 11,-2 30,-9 36,-4 67,-6 5,0 7,-1 12,-1l15 0c4,0 6,4 13,4 0,-1 6,-6 -2,-10 -11,-5 -23,-4 -35,-2 -19,2 -25,2 -44,2 -9,0 -18,1 -27,4 -3,1 -10,2 -12,4 -4,3 -1,9 2,9zm-2 -5c3,-3 5,-3 10,-5 32,-8 38,-2 64,-5 2,0 5,0 7,-1 3,-1 2,-1 6,-1 5,0 7,-1 13,-1 6,0 20,2 20,7 0,5 -7,1 -11,0 -12,-3 -24,0 -37,1l-6 0c-11,1 -13,-1 -22,-1 -15,0 -24,4 -37,7 -5,1 -6,2 -8,-3zm75 92c6,-4 5,0 9,-2l3 -3c3,-4 0,-2 3,-3l0 -2c-3,-1 0,0 -2,-2 -3,-6 -11,-7 -11,1l1 -1c2,-3 0,-2 3,-2 8,0 5,9 3,13 -4,0 0,0 -4,-2l-6 4c-15,9 -15,-10 -25,-4 0,4 2,3 5,2 6,-3 -4,1 2,-1 6,8 9,1 5,14 -11,0 -19,9 -22,8 -1,0 -4,-3 -5,3 4,0 5,0 8,3l1 1c10,10 9,6 17,6 11,0 16,4 23,-7 4,-7 8,-1 10,-6 -7,0 -5,2 -9,-3 -6,-7 -10,-4 -12,-4 -1,-3 -1,-4 -2,-7l4 -2c1,-1 0,0 1,-1zm-11 11c-4,0 -1,-4 -1,-8 6,0 5,0 6,4 1,4 0,4 -5,4zm-22 10c1,-3 4,-4 6,-5 2,-1 4,-3 7,-4 3,-1 10,1 14,1 3,0 4,-1 9,2 1,1 1,0 2,1 1,1 1,0 1,2 -7,1 -14,1 -19,1l-20 2zm5 2c1,0 7,-2 8,-2 3,0 6,0 9,0 7,0 11,-1 18,-1l-3 7c-3,3 -10,2 -12,1 -9,-1 -18,4 -19,-5zm17 -222c-3,1 0,0 -3,1 -1,-5 -7,-7 -2,-7 8,0 23,0 28,7 -2,1 -4,1 -12,3l-10 4c1,-3 6,-10 9,-12l-10 3zm-54 10c1,-3 1,-2 5,-5 4,-3 19,-7 25,-7 -1,3 0,4 0,5 0,2 -1,1 -3,4 2,2 2,2 3,5 -4,0 -7,1 -9,4 3,1 6,2 8,3 -2,2 -11,6 -12,6 1,-4 3,-7 3,-13 -5,0 -6,6 -12,7 0,-3 0,-2 -1,-4 -2,-3 -4,-4 -8,-4zm39 -8c-1,-1 0,0 -1,0 -4,0 -3,0 -3,2l-2 0c0,-1 -1,-1 -1,-1 0,0 0,0 -1,-1 0,-1 0,-1 0,-2 0,-2 2,-3 4,-3l0 4c0,0 0,0 0,0 1,-2 1,-2 2,-2 1,0 3,0 4,0 0,4 2,3 -1,8 -1,2 0,1 -2,2 -2,-4 2,-3 0,-5zm-207 324c0,-4 -2,-9 -3,-13 -1,-5 11,-25 14,-32l10 -21c1,-2 2,-4 2,-6 3,-8 8,-17 11,-27l6 -19c0,0 0,-1 0,-1 2,-6 2,-10 4,-14l16 -46c1,-2 1,-4 2,-6l16 -38c9,-21 32,-55 50,-72l19 -15c1,-1 1,-1 3,-2l8 -4c4,-2 7,-3 11,-4l-12 11 -30 39 -31 61c-8,19 -20,46 -27,65l-27 64c-3,7 -6,14 -9,22l-22 47c-1,2 -2,3 -3,5 -2,3 -3,7 -7,8zm201 -312c-1,1 1,0 1,0 3,1 0,-1 -1,0zm18 -8l2 -1 -1 0 -2 1 1 0zm-9 -11c2,-1 2,-1 4,1 3,4 0,10 -1,14 1,0 2,0 3,0l1 0c4,-3 -1,-7 9,-8 -1,3 0,1 -2,3 -3,4 -3,4 -8,7 -16,8 -17,4 -23,3l6 -2c2,0 0,0 3,0 7,0 7,1 12,-3 -9,0 -10,4 -15,-4 1,0 3,-1 4,-1 4,0 3,7 9,3 1,-1 3,-4 3,-6 0,-3 -2,-4 -3,-6zm-275 24c0,-3 1,-6 4,-7 0,2 -2,7 1,8 1,1 0,1 1,0 2,-1 -2,0 2,-1 0,6 -3,12 4,13 0,18 2,18 5,37 1,6 0,5 5,8 -2,3 0,12 1,15l5 31c1,5 2,10 2,15 2,1 3,2 5,3 0,4 -1,4 -1,8 0,9 2,15 1,21l-5 2c0,-6 -1,-15 -4,-19 -7,-13 4,-5 -3,-33l-3 -16c0,0 0,0 0,0 0,0 0,0 0,0l-5 -16c-1,-3 -1,-6 -2,-8 -1,-2 -1,-2 -2,-3 0,-2 0,-1 0,-4 1,1 2,1 4,1 -1,-6 -5,-20 -6,-27 -2,-12 -7,-21 -7,-27zm230 -5c0,-2 -1,0 0,-2 0,0 6,-2 8,4 0,2 1,3 1,5 0,1 -12,11 -13,-3 0,0 -3,0 0,6 5,8 13,0 13,0 1,2 -2,1 2,1l0 2c1,-1 2,-1 2,-3 0,-3 0,1 -1,-2 2,-3 4,-6 8,-7 -1,7 -8,11 -14,16 -2,1 1,1 -3,1 1,-2 2,-2 2,-4 -2,0 -9,5 -13,0 -4,-5 0,-12 5,-15 0,6 0,8 6,8 -1,-6 1,1 0,-4 0,-2 -1,-2 -3,-2 0,4 1,3 -2,4 -1,-2 -1,1 -1,-2l0 -3zm18 4c-2,2 -3,3 -5,5 2,-1 4,-3 5,-5zm114 60c0,-2 0,-1 0,-3 -2,-15 -4,-39 -10,-50 2,1 1,0 2,2 1,1 0,1 1,2l14 28c1,3 2,6 3,9 0,1 0,1 1,2l7 26c-5,0 -1,-2 -8,0 2,-7 1,-6 -1,-10 -1,-3 0,-2 -2,-3 -1,2 0,6 -5,10l-3 -13zm-159 -32c1,-2 2,-3 4,-6l4 -5c2,-3 5,-9 9,-11 1,2 1,4 2,6 2,2 3,2 4,4 -2,0 -3,1 -4,2 -3,2 -6,9 -6,12 -6,0 1,-2 -12,-2zm18 -6c2,-1 2,-1 5,-1 5,0 3,-2 5,0 -2,1 -4,5 -5,7 -3,-1 -2,0 -4,-5 0,-1 0,0 -1,-2zm-126 290c4,-7 7,-13 11,-20 2,-3 4,-6 5,-10 3,-5 4,-10 7,-15 1,-2 1,-3 2,-5 1,-4 3,-7 5,-10l4 -10c1,-2 2,-3 2,-5 1,-2 1,-3 2,-5l15 -31c2,-4 3,-7 5,-10 4,-8 14,-31 18,-42 3,-7 6,-14 9,-21 1,-2 2,-2 3,-5 3,-5 5,-9 7,-15l28 -62c1,-2 2,-3 3,-5 1,-2 1,-3 3,-5l6 -9c3,-4 6,-9 10,-12 4,-3 15,-8 20,-10l39 -15c11,-4 26,-2 37,3 4,2 5,3 8,7 8,10 10,20 11,34l3 20c0,2 0,4 0,7 2,11 7,40 8,50l3 28c1,5 0,9 0,14 0,2 1,4 1,6 0,3 0,4 0,7 1,17 6,33 8,50 1,9 2,18 3,27 1,4 2,9 2,12l2 12c3,18 7,29 17,43l-22 -11c-1,-1 -3,-1 -4,-2 -4,-2 -4,-2 -7,-6 -3,-6 -7,-10 -10,-15 -3,-5 -6,-12 -7,-19 -2,-14 1,-32 2,-45 0,-4 1,-7 1,-11 0,-4 0,-4 -1,-9 -4,-21 -3,-10 -3,-33 0,-6 -2,-9 -2,-14 0,-10 5,-15 5,-24l-1 -19c-1,-10 -3,-20 -5,-30 -3,-13 -4,-21 -11,-34 -4,-7 -9,-14 -15,-20 -2,-2 -4,-4 -6,-6 -4,-3 -11,-7 -16,-8 -3,0 -8,-1 -10,-1 5,-6 27,-10 38,-2 2,1 3,2 5,4 10,9 12,17 16,29 3,10 3,21 5,32 1,7 1,11 2,16 1,6 1,9 1,17 0,11 5,33 5,41 0,4 0,6 1,8 3,21 0,13 0,32l0 33 3 15c1,-4 -1,-21 -1,-26 0,-13 1,-34 1,-44 0,-10 -2,-18 -3,-27 -1,-8 -1,-17 -3,-25 -3,-16 -3,-33 -5,-49 0,-3 -1,-3 -1,-6 0,-5 -1,-9 -2,-14 0,-2 -1,-4 -2,-6 -9,-26 -29,-40 -57,-31 -4,1 -6,3 -9,5 -13,8 -32,8 -41,15 -4,3 -11,11 -11,16 7,-5 7,-17 25,-21 13,-2 24,-8 35,-7 13,1 22,6 30,15 5,6 16,20 16,28 -3,-1 -5,-2 -8,-3 -8,-2 -15,0 -23,0 -20,1 -43,0 -62,2 -6,0 -20,3 -23,8 -2,2 -3,10 1,10 4,0 10,-2 13,-4 13,-5 26,-4 40,-5l14 0c2,0 -1,0 1,0l11 -1c28,-4 30,2 40,2 0,2 1,5 2,7 -4,-1 -3,-2 -7,-3 -3,-1 -4,-1 -7,-2 -2,0 -13,0 -17,1 -6,1 -11,1 -17,2 -12,2 -79,-2 -79,14 0,11 21,0 34,-2l17 -1c3,0 6,0 9,0l13 -1c8,0 16,-2 24,-3 6,-1 10,-2 16,0 8,2 4,2 14,2 1,5 2,10 3,16 3,16 1,13 1,25 0,3 0,7 0,10 0,3 0,2 -1,4 -3,10 -2,24 -1,34 1,8 -1,25 -4,33l-3 9c-4,10 -7,15 -13,24 -6,9 -11,12 -19,18 -8,6 -25,10 -39,10 -18,0 -41,-12 -54,-24 -1,-1 -2,-2 -3,-3 -3,-3 -5,-5 -8,-9l-7 -15c-3,-9 -6,-16 -8,-26 -1,-5 -2,-14 -2,-20 0,-28 1,-35 13,-60 1,-3 1,-4 2,-7l4 -9c5,-10 9,-20 14,-30 2,-4 9,-15 10,-19 -7,5 -26,49 -31,61l-8 18c-4,8 -18,35 -21,44 -1,4 -2,6 -4,10l-20 46c-5,10 -11,21 -15,31l-27 57c-5,9 -4,14 -12,15zm196 -265c10,0 12,-1 17,-1 16,-1 15,-3 29,1 4,1 6,2 6,8 -3,0 -5,-2 -9,-2 -13,-2 -26,0 -38,1 -4,0 -5,1 -10,1l-8 0c-17,0 -25,-1 -42,4 -6,2 -5,3 -10,3 -3,0 -7,-6 10,-11 8,-2 20,-3 28,-3l27 0zm-79 1c0,0 0,0 0,0l0 0zm2 -7c3,-2 1,-5 2,-9 0,-2 2,-4 3,-8 4,1 1,2 0,5 -1,3 0,6 0,9 -1,5 -5,9 -6,13 -3,-1 -1,0 -1,-3 -6,4 0,7 -7,9 1,-4 2,-5 5,-8l3 -3c-2,-1 -1,0 -3,-1 -1,2 -1,3 -3,4 -4,3 -6,2 -10,1 -2,-8 -4,-10 0,-13 0,11 7,13 11,7 -3,0 -4,1 -7,-1 -1,-1 -5,-8 -1,-12 1,-1 4,-2 6,-2 6,0 8,3 8,13zm-36 27c1,-4 4,-10 6,-14 2,-3 7,-9 7,-12 3,2 1,0 2,4 2,5 5,8 11,5 0,4 0,1 -1,3 -4,10 -7,8 -11,16 -3,-2 -5,-7 -15,-2zm25 -5c0,-4 3,-5 7,-6l-4 11c-1,3 1,1 -2,3 -1,-3 -1,-2 -1,-8zm123 1c-5,0 -11,0 -15,1 -15,3 -27,2 -43,3 -9,0 -18,1 -26,3l-12 4c-3,1 -11,3 -9,-2 2,-5 16,-7 23,-8 4,0 3,-1 7,-1 5,-1 16,0 21,0 25,0 19,-1 41,-3 10,-1 15,-3 26,1 2,1 7,3 5,5 -3,4 -4,-2 -19,-2zm-137 19c0,0 0,0 0,0l0 0zm5 -6c1,-4 1,-11 7,-13 0,6 3,9 0,14 -1,3 -2,4 -3,6 0,-5 2,-9 2,-16 -2,2 -3,12 -3,13 0,3 2,2 0,6l-3 3c0,0 -1,1 -1,1 -2,2 -5,5 -8,7 1,-3 2,-4 2,-7 -3,1 -3,2 -4,4l-6 0c-1,-2 -3,-7 -2,-12 0,-1 0,-4 1,-6 1,-6 9,-8 12,-8 5,2 5,6 5,8 -2,-1 -2,-1 -2,-4l-2 0c0,4 1,8 -4,9 0,-2 -1,-2 -1,-4l-2 0c0,7 -1,4 2,8 -3,1 -3,2 -4,-1 -1,-4 -1,-13 7,-9l0 -2c-4,0 -1,-1 -4,0 -5,1 -4,3 -5,4 -3,10 6,15 11,7 -1,-1 0,0 -1,0 0,0 -1,0 -2,1 1,-2 1,-2 3,-6 2,-5 -1,0 5,-2zm172 -1c0,-2 4,-7 6,-8 2,8 -3,9 -3,16 0,1 1,4 2,6 2,5 4,13 4,18 -4,-3 -6,-8 -7,-13l-2 -18zm5 7c0,-5 5,-6 9,-6 1,2 2,2 2,4 -10,-6 -12,6 -6,7 -1,-3 -1,-1 -1,-4 0,-1 1,-2 1,-4 6,0 5,3 5,9 -3,-1 -2,0 -3,-4l-1 -2c0,1 -2,7 2,7 3,0 2,-4 2,-7 1,1 1,1 1,3 3,13 -7,7 -10,7 0,-2 0,-1 -1,-2 -1,-4 -3,-2 -3,-9zm-191 25c4,0 1,0 6,-5 2,-2 4,-4 6,-4 -2,3 -3,6 -5,10 -3,7 -2,9 -6,9 0,-4 -1,-6 -2,-10zm196 11c0,3 -2,6 -4,7 -1,-2 -1,-9 -2,-12 -1,-3 -2,-8 -2,-11 5,1 0,2 9,8 0,-6 -2,-8 -2,-14l3 0c3,0 4,-1 7,-1l3 17c1,5 2,13 2,18 -3,-1 -2,-1 -5,-1 -4,0 -4,1 -5,0 -2,-3 1,-7 -3,-10zm-218 -6c1,-2 2,-6 4,-9 1,-3 2,-6 3,-9 1,-2 1,-2 2,-4 1,-2 1,-3 2,-4 2,-4 2,-6 5,-7 0,13 1,15 8,16 0,2 0,6 0,8 0,4 0,1 -2,1 -2,0 -4,10 -4,11 -4,-1 -4,-5 -11,-5 -1,0 -4,2 -6,3zm5 31c1,-2 3,-6 4,-8 7,-7 1,0 6,-11 3,-7 2,-6 3,-9 1,-2 1,-2 2,-4l2 0c0,3 1,2 1,4 0,4 -1,-1 0,3 0,1 0,0 0,3 0,4 -4,11 -6,14 -3,4 -7,7 -11,9zm-8 -18c0,-4 1,-7 3,-9l2 -1c1,-1 2,-1 4,-1 14,0 8,16 2,16 -7,0 -6,-5 -5,-10l-2 0c0,4 -2,12 6,12l2 0c1,0 1,0 2,0 -2,3 -5,4 -9,3 -5,-1 -5,-5 -5,-9zm27 13c0,-5 2,-6 3,-9 1,-2 1,-2 2,-4 3,-5 2,-4 3,-3 -1,2 -2,5 -2,7 -2,7 -1,32 0,39 1,8 2,10 -2,16 -3,4 -3,4 -7,4 -12,0 -5,-20 -3,-25 1,-1 1,-3 1,-4 2,-4 4,-11 4,-16 0,-3 0,-2 0,-5zm-29 17c-5,-5 -9,1 -14,1 1,-1 1,-3 2,-4l10 -23c1,-3 0,0 1,-3 3,2 0,2 4,7 2,3 4,3 9,3l-5 10c-1,2 -1,1 -1,3 3,-1 10,-6 14,-7 -1,4 -5,11 -6,16l-2 0c0,-5 -2,-4 -2,-9 -3,1 -2,1 -3,4 -1,2 -2,2 -3,5 -4,-1 -1,0 -3,-3zm228 3c-2,-2 -5,-4 -6,-7 -2,-5 -5,-23 2,-28 0,10 -4,17 1,26 2,3 2,6 3,9zm-2 -11c0,-3 0,-3 -1,-5 -1,-3 -1,-1 0,-4 0,-3 1,-6 5,-6 9,0 8,1 9,10 1,12 -4,10 -13,6zm-232 92c0,-2 -1,-1 0,0 0,3 0,0 0,0zm-42 67c0,-3 1,-3 2,-5l12 -24c4,-7 16,-34 18,-41 4,-10 10,-20 15,-30 7,-13 13,-28 18,-42 1,-3 3,-7 4,-11 2,-4 3,-7 4,-11l2 0c0,17 -11,21 -9,43 -1,-1 -1,-2 -3,-2 -5,3 -5,7 -8,12 -5,8 -8,19 -9,28 -1,6 -4,11 -4,15 3,-2 5,-8 6,-13l3 -16c1,-5 3,-9 5,-14l6 -12c4,2 -3,-2 1,1l2 1c0,0 0,0 0,0 1,0 0,-1 2,1 4,4 -1,17 -2,21 -2,9 -1,21 -1,30 0,7 -2,14 -4,20 2,-1 2,-2 3,-3 6,-10 14,-33 15,-45 1,-7 2,-11 2,-18l-2 0c0,4 -1,8 -1,12 0,5 -1,7 -2,11 -1,4 -5,18 -7,20 0,-9 -1,-7 0,-19l0 -10c1,-6 2,-8 2,-16 5,0 6,2 10,0 2,-1 2,-1 3,-3 1,-1 2,-3 2,-4l2 0c1,6 4,13 6,19 1,3 2,3 2,6 1,4 4,25 4,28 0,15 0,7 -7,11 -2,1 -3,3 -5,5 -2,1 -4,3 -7,3 0,0 0,0 0,0l-2 0c-2,1 -2,0 -3,1 0,-3 6,-18 7,-21 2,-5 2,-13 3,-18 0,-4 0,-4 -1,-5l-2 11c0,2 0,2 -1,4 -1,12 -8,21 -9,29 0,2 0,2 -1,4 -1,4 -2,5 1,9 -6,1 -5,3 -9,6l-56 27c-3,1 -6,4 -10,4zm277 -132c0,4 -3,4 -3,8l-2 0c0,-6 -3,-18 -4,-25 4,1 9,6 10,10 2,-1 2,0 1,-3 0,-7 -2,-9 -3,-12l6 1c1,0 3,-2 5,-2 0,7 3,26 3,38 -8,-5 -4,-3 -10,-2 0,-6 0,-7 -2,-11l-2 0zm-419 -7c0,-3 1,-8 3,-10 1,-1 0,-1 2,-1 0,2 -1,3 -1,5l1 8c0,3 -1,2 0,6 1,8 1,19 8,24 6,5 9,4 21,1 6,-1 31,-11 36,-11 0,5 0,3 -10,7 -4,2 -9,3 -13,4l-19 6c-7,2 -14,2 -18,-4 -5,-6 -9,-28 -9,-35zm82 -4c0,-3 1,-8 2,-10 2,-3 1,-1 4,-2 8,-2 12,-1 12,13 0,9 2,17 -11,18 -6,0 -9,-5 -10,-9 0,0 0,0 0,0 0,4 -2,4 1,7 1,2 3,3 5,5l-3 2c-5,4 -8,5 -10,-1 -1,-2 -1,-3 -1,-6 -1,-16 -6,-29 5,-29 5,0 5,6 5,12l2 0zm-73 4c0,-9 -4,-11 6,-15 21,-9 44,1 50,2l0 4c-12,0 -32,-2 -42,1 -2,1 -5,2 -6,3 -3,3 -6,27 8,31 3,1 34,-7 39,-9 2,-1 1,0 2,-1 -5,0 -4,0 -8,1 -3,1 -5,1 -7,2 -20,4 -26,10 -32,-3 -2,-4 -3,-18 4,-21 3,-1 39,-3 42,-2 0,5 1,7 1,13 -3,-1 -2,0 -2,-5 0,-1 0,-2 0,-3 -9,-1 -22,0 -25,10 2,1 1,1 4,1 7,0 13,-2 23,-2 1,16 0,4 2,14 -2,1 -2,0 -5,1 -3,1 -2,1 -6,2 -4,1 -7,2 -12,3l-11 3c-6,2 -18,4 -22,-1 -5,-6 -5,-21 -5,-29zm55 1c0,1 -2,6 -3,3 0,-1 0,-1 0,-4 0,-2 0,-1 -1,-3 0,0 4,-1 4,4zm116 -2c6,1 1,-4 10,-4 1,4 2,5 0,8 -2,2 -10,6 -10,-3zm-128 4c0,2 -1,2 -4,2 1,-4 0,-1 0,-5 2,0 4,1 4,3zm137 12c2,-1 -1,0 -1,0 -1,2 1,0 1,0zm5 -18c0,0 0,0 0,-1l2 -6c1,-2 3,-3 4,-5 1,7 4,5 -3,20 -3,5 -6,3 -7,9l4 -4c-1,3 -1,3 -3,5 -2,2 -4,4 -7,5 1,-2 1,-2 2,-4 4,-5 7,-7 8,-12 -2,1 -2,1 -3,2 -1,1 -1,1 -2,2 -2,1 -4,3 -7,3 -2,0 -5,-9 -5,-11l0 -5c0,-3 7,-7 11,-8 5,-1 6,6 7,10zm-6 -5c-4,0 -6,7 -7,3 -1,-3 5,-2 6,-6 -2,-1 -6,2 -8,4 -2,2 -1,2 -1,5 0,1 0,4 1,5 3,7 14,1 14,-5 0,-5 -1,-7 -5,-7zm-28 41c0,-4 7,-19 9,-25 1,-2 1,-2 2,-4 1,-3 0,-1 2,-3 1,6 4,12 11,13 -1,3 -3,6 -4,10 6,-3 8,-6 12,-6l-9 17c-1,-4 -2,-7 -3,-11 -3,2 -2,4 -5,10 -4,-1 -4,-6 -15,-1zm205 46c0,-5 -1,-6 -1,-11 0,-3 4,-7 8,-12l10 -20c1,-3 2,-4 3,-7l4 -14c4,3 2,13 2,20 0,8 -2,12 -2,17 -1,14 -1,20 0,34 0,3 3,9 3,13 -2,-1 -3,-1 -6,-1 -2,-8 -4,-3 -8,-8 -2,-2 0,-1 -2,-3 -3,-4 -2,0 -4,-3 -5,-6 2,-2 -7,-5zm70 -50c0,6 1,7 -1,11 -5,7 -11,-4 -12,-5 -2,-2 -1,-1 -2,-1 -2,2 4,8 4,11 1,6 -4,-2 -5,-4 -1,-3 -1,-9 -1,-11 0,-1 0,-1 -1,-2 -3,-7 0,-16 4,-17 0,12 -2,8 -2,18l2 0 2 4c0,-6 1,-7 7,-7 2,0 2,3 2,5 0,6 -1,3 -2,6 6,-1 4,-4 4,-9l2 0zm-13 -7c3,-1 3,-3 12,-1 1,3 1,2 1,6 -8,-4 -6,-2 -12,1l0 -6zm-333 76c-1,-6 -5,-13 -7,-17l6 -3c2,-1 3,0 6,-1 0,-4 1,-2 -2,-3l-4 -1c-3,2 -2,3 -5,4 -3,-4 -2,-9 -2,-13l-5 -27c-1,-6 -2,-7 -2,-12 1,0 5,-1 6,-1 3,-1 1,-2 4,-3l3 33c0,3 0,4 0,5 0,4 0,8 3,10 5,-1 3,-7 8,-7 6,0 -2,6 -2,8 0,9 1,3 2,8 -5,2 -9,-1 -4,18 1,4 2,8 3,12 4,16 6,33 10,51 1,4 2,8 3,12 1,3 2,9 2,13 5,0 5,-2 9,-2 -1,1 -4,5 -5,6 -3,-1 -2,-1 -5,-1 -7,0 -5,1 -6,-5l-3 -16c-2,-10 -1,-9 -1,-12l0 -1c-1,-3 -1,1 -2,-7l-9 -49zm85 -57c1,-8 5,-11 5,-8 0,2 0,0 -1,3 -1,4 1,8 -1,11 -4,1 1,-1 -2,-2 -1,7 -5,12 -13,12 -4,0 -4,0 -5,-5 -2,-10 0,-6 0,-13 4,0 1,0 3,-2 0,0 1,-1 2,-2 4,-3 11,-5 11,6l2 0zm255 25c0,-5 -2,-6 -2,-10 -5,3 0,4 -5,7 0,-4 -1,-11 -2,-15 4,1 2,4 8,4 0,-2 -1,-5 -2,-7 10,0 5,-2 10,-3 0,8 5,20 5,24 -4,-2 -9,-1 -13,0zm-184 27c0,0 2,-14 2,-20 0,-3 -2,-18 -2,-20 4,1 4,4 7,6 5,5 8,7 13,11 23,15 50,22 77,12 5,-2 12,-5 16,-9 2,-2 1,-3 5,-3 0,7 -1,17 0,23 0,1 0,9 0,11 1,4 3,4 5,7 0,1 -8,11 2,13l0 1c-10,2 -3,13 -3,13 -9,5 -4,9 -4,13 -10,0 -3,8 -7,10 -1,0 -5,1 -6,2 -1,9 -4,7 -6,7 -6,1 -7,2 -8,6 -7,-2 -7,0 -7,0 -5,1 2,-2 -9,0 -1,-3 -3,-5 -7,-5 -5,0 2,1 -8,1 0,-12 -8,-7 -11,-8 -2,-1 -1,-1 -2,-3 0,-8 -7,-5 -12,-5 -1,-2 0,-1 -2,-2 0,-1 2,-3 0,-7 -2,-3 -5,-3 -9,-3 0,-6 2,-11 -5,-11 -3,0 -1,0 -5,1 -1,-6 2,-2 2,-7 0,-5 -5,-4 -8,-4 0,-6 6,-11 -5,-14 0,-6 2,-6 2,-9 0,-6 -3,-4 -3,-7zm-78 -32c0,0 0,0 0,0l0 0zm-4 4c1,-3 2,-6 4,-8 2,-2 4,-4 6,-5 -1,3 -1,3 -3,4 -2,1 -2,1 -3,4l1 1c-3,2 3,-2 -1,1 -1,1 -1,0 -1,1l-3 2c0,0 0,0 0,0zm-22 10c0,-5 11,-25 12,-29 5,3 0,11 10,12 0,4 -1,5 -1,8 3,0 4,-2 8,-3 -1,4 -5,16 -8,18 0,-3 1,-2 0,-5 -1,-5 -4,-7 -5,-12l-2 2c-2,4 -2,4 -3,8 -8,-2 -7,0 -12,1zm287 1c0,0 0,0 0,0l0 0zm15 1c0,0 0,0 0,0l0 0zm-21 -13c0,-2 0,-2 1,-2 1,-1 0,-1 2,-1 0,7 -1,13 2,16 0,-3 0,-5 1,-7 2,-4 12,-6 15,3 1,2 3,9 3,12 -2,9 -12,1 -13,0 -4,-5 -1,-10 4,-10 3,0 4,3 6,4 -1,-4 1,-4 -2,-6 1,4 1,1 0,2 -1,-1 -3,-2 -5,-1 -3,0 -4,3 -5,5 0,0 0,1 0,1 -1,3 -2,2 -4,4 5,7 3,1 6,12 1,2 1,2 1,4 -5,-1 -7,-8 -9,-12 -2,-6 -2,-15 -2,-22zm10 7c3,0 1,-1 4,-1 4,0 3,2 4,0 -3,-2 0,-1 -3,-1 -5,0 -5,-1 -5,2zm-196 11c0,-2 5,-3 7,-3l0 13c-2,0 -3,1 -5,1 1,-3 2,-3 1,-6 -1,-3 -3,-3 -3,-5zm128 7c0,-4 0,-6 1,-9 6,1 3,8 -1,9zm8 1c-2,1 -1,1 -3,1l-2 -2c2,-3 0,-3 5,-3l3 6c-2,1 -1,1 -4,1l1 -3zm-142 1c-1,-1 0,-3 1,-4 5,-7 11,3 4,7 0,-2 0,-2 -1,-3l-4 0zm-12 4c0,-2 4,-8 9,-5 -1,3 -2,0 -4,4 -2,3 0,3 -4,4 -1,-2 -1,1 -1,-2zm218 6c0,0 0,0 0,0l0 0zm107 267c-1,-3 -1,-5 -2,-7l-8 -34 -4 -60c-1,-19 -1,-28 -4,-48 -3,-15 -10,-36 -20,-49 -3,-4 -15,-13 -19,-15l-30 -13c-2,-1 -4,-1 -6,-2 -6,-2 -6,-3 -9,-8 -10,-15 -12,-32 -14,-36 5,1 5,5 10,6 0,-2 -1,-7 -2,-10 5,1 -1,1 7,1 6,0 7,-3 8,-7 3,2 0,0 2,3l8 13c1,2 2,3 4,5 6,7 9,13 14,20 1,2 2,4 4,5l7 10c1,2 2,3 4,5 16,21 25,27 34,51l11 39c0,2 0,3 0,4 0,6 7,44 7,45 0,3 -1,3 0,7l14 75c0,8 5,25 8,34 1,2 1,4 2,7 3,13 1,8 2,14 2,9 5,27 7,35 3,9 5,18 5,28 -5,0 -5,-1 -10,-10 0,-1 0,-1 -1,-1l-5 -10c-7,-13 -12,-23 -14,-38 -2,-16 -2,-19 -5,-36 -1,-3 -1,-4 -1,-7 -1,-5 -2,-9 -3,-14zm-177 -272c-5,-1 -3,-2 -2,-6 2,1 3,1 3,4 0,0 -1,1 -1,2zm-144 6c0,-3 1,-8 5,-8 5,0 2,5 2,7 -7,0 -2,0 -6,1zm149 -7c3,-1 6,-1 10,-1 0,2 1,2 1,4 -3,0 -9,5 -11,-1 0,0 0,-1 0,-1zm-217 -1c1,0 0,-1 0,-1 0,-1 -3,2 0,1zm0 -22c0,-2 0,-2 1,-4 4,2 5,8 5,14 0,2 -1,1 -1,4 -3,-1 0,1 -1,-6l-2 -8c0,12 5,21 -6,29l-4 3c-1,1 -1,1 -2,1 -2,1 -2,2 -4,3 0,-3 0,-5 2,-7 2,-2 0,-1 3,-2l0 2c3,-1 8,-4 8,-8l-4 3c2,-7 4,3 4,-17l-1 0c0,5 1,8 -1,11 -3,6 -5,6 -11,6 -6,0 -6,-11 -4,-15 0,0 1,-1 1,-1 4,-7 9,-6 15,-5 1,3 0,3 2,4 1,-2 0,-3 0,-8zm-34 44c2,-4 11,-22 12,-26 4,3 2,8 9,10 -2,3 -3,8 -3,13 2,-2 7,-8 12,-10l-8 16c-1,3 -3,7 -5,8 0,-8 1,-7 2,-13 -4,1 -4,5 -8,6 -3,-11 -10,-5 -11,-5zm118 -12c-5,0 -5,-6 -3,-8 1,-1 9,-3 9,1 0,4 -2,7 -6,7zm149 8c-2,-7 3,-2 -1,-11l3 -1c0,1 1,1 1,2l1 2 -2 3c2,0 5,0 5,1 0,4 -3,4 -7,4zm-25 -10c0,-3 3,-3 5,-4l2 2c2,3 0,4 -2,6 -7,0 -6,1 -6,-4zm-127 44c1,-5 0,-2 0,-5 0,-3 5,-10 -6,-10 0,-1 9,-12 -2,-13 0,-3 2,-3 2,-7 0,-3 -2,-4 -2,-6 0,-2 1,-3 2,-5 1,-3 0,-2 2,-3 0,5 1,9 6,10 0,4 -2,3 -2,7 0,10 2,7 7,9 0,2 -1,3 -1,5 0,7 5,4 8,14 2,7 4,5 6,7 1,1 1,1 2,3l2 4c4,9 6,1 11,7 1,1 1,0 1,2 4,11 6,5 11,8 5,4 2,9 9,9 4,0 1,-1 5,-1 2,1 2,2 5,2 0,5 9,6 11,1 5,0 2,2 7,1 -6,9 -4,9 0,17 0,1 1,1 1,2 2,4 1,5 3,5 2,0 3,-3 4,-4 0,-1 1,-3 1,-3 1,-2 0,0 2,-2 4,-4 3,-7 3,-12 0,-5 3,1 9,-7 2,-2 0,-1 2,-2 1,0 1,0 1,-1 0,0 1,0 1,-1 6,-3 7,3 11,-8 1,-2 0,-1 1,-3 2,-3 7,-2 7,-8 0,-3 -1,-3 -2,-5 1,-1 0,0 1,-1 11,-10 4,-7 3,-14 5,0 1,-1 5,-2 1,3 0,2 2,3 -4,5 -5,7 -1,14 -2,1 -3,1 -3,3 0,10 0,3 2,8 -5,8 0,8 0,13 -3,0 -5,2 -5,5 0,6 2,3 2,5 0,4 -2,4 -3,7 -1,3 1,4 1,8 -6,2 -7,7 -6,12 -8,0 -8,5 -8,11 -5,0 -4,2 -8,2 -1,5 0,7 -6,8 -4,0 -3,0 -5,2 -2,2 -1,2 -3,4 -3,-1 -3,-3 -6,-3 -3,0 -5,2 -6,3 -2,1 -3,0 -7,0 -1,-2 -1,-4 -5,-5 -3,-1 -4,0 -8,0 1,-2 0,-1 2,-3 -6,0 -2,2 -6,-2 -2,-2 -4,-2 -7,-2 0,-12 -6,-9 -11,-9 -2,-8 0,-10 -11,-10 1,-3 2,-5 1,-7 -3,-7 -9,-1 -10,-6 0,-2 1,-3 1,-6 0,-6 -7,-4 -8,-4 -3,0 0,-6 -1,-9 -1,-3 -4,-3 -7,-4 0,-5 -1,-2 -1,-5 0,-2 5,-6 -2,-9 -7,-3 -3,-2 -3,-10 -2,-1 -2,-2 -5,-2zm140 -44c4,0 6,-1 9,0 3,2 1,4 0,6 -4,0 -6,0 -9,-1 -1,-4 -1,-1 0,-6zm-164 2c2,-1 2,-2 5,-2l2 1c0,6 0,6 -7,6l0 -5zm9 2c2,0 2,0 4,-1l3 2c0,4 0,4 -2,7 -9,0 -5,-6 -5,-9zm4 247c0,1 1,1 2,0 1,-2 0,0 -1,0 0,0 -1,0 -1,0zm-118 -198c0,-3 10,-5 13,-6l45 -19c2,-1 4,-2 6,-3 4,-2 8,-4 12,-6l25 -12c2,2 2,1 2,4 -5,0 -10,8 -4,15 4,5 -4,11 3,13 0,8 -9,10 -2,19 3,4 0,0 1,5 1,4 2,0 2,6 0,3 -4,11 1,15 3,2 3,1 4,5l0 4c0,3 1,2 3,4 5,5 1,7 4,14 1,3 4,4 6,6 6,4 -2,8 3,12 1,1 5,1 6,5 1,2 0,0 0,3 0,6 4,6 7,9 3,4 1,8 7,8 0,3 0,4 -2,6 -5,7 -5,9 -4,17 -4,3 -7,6 -8,11 -4,14 -4,25 0,39 3,12 5,22 1,35 -1,3 -4,4 -6,6 -1,1 -1,1 -2,2 -15,11 -42,18 -61,21 -5,1 -9,2 -14,2l0 -8c1,-29 -1,-23 -8,-48l-4 -15c-1,-7 -2,-10 -2,-18 2,1 2,3 4,5 1,2 2,3 3,6 3,6 7,11 11,16 3,4 5,8 9,11 13,12 30,17 47,14 2,0 6,-2 8,-4 -3,0 -3,1 -5,1 -6,2 -8,1 -14,1 -12,0 -25,-5 -33,-13 -6,-6 -11,-12 -15,-19 -5,-9 -15,-19 -15,-30 0,-8 -1,-21 -8,-26 0,4 4,21 5,29 0,5 0,11 -1,16l-1 6c0,2 -1,4 -1,6 0,0 0,0 0,0 0,0 0,0 0,-1 -2,-4 1,4 0,-1 -3,-8 -3,-19 -4,-28 0,-3 -1,-7 -1,-10l-14 -75c-5,-19 0,-21 4,-26 7,-10 -7,-5 -10,-4 0,-8 -4,-16 -4,-25zm108 -24c1,-2 5,-7 5,-10 0,-4 -3,-5 -4,-10 3,1 1,0 2,2 4,5 4,4 3,8 -3,6 1,7 4,11 -1,3 -2,1 -2,4 0,8 5,4 5,8 0,3 -2,3 -2,6 -1,6 5,5 6,8 1,3 -1,2 -1,5 0,8 3,6 5,7 4,3 -1,9 4,13 2,1 3,1 5,2 5,2 0,6 5,9 2,1 3,1 4,3 1,3 -1,7 4,10 3,2 2,1 5,2 1,4 0,6 3,8 5,4 5,-1 7,3 2,3 -1,6 3,8 5,4 7,-1 9,3 -3,3 0,0 -6,2 -11,3 -12,0 -19,7l-1 1c-2,1 -4,4 -6,5 -7,-6 3,-10 -9,-15 -3,-1 -3,-1 -3,-4l0 -6c-2,-1 -1,-1 -5,-1 0,-5 -1,-1 -2,-5 -1,-4 2,-11 -7,-16 -7,-4 -1,-3 -5,-10 -4,-6 0,-6 0,-11 0,-7 -4,-6 -5,-9 -2,-3 0,0 0,-2 0,-1 0,0 -1,-2 -2,-5 2,-1 -2,-8 5,-4 4,-10 1,-14 -5,-6 1,-4 1,-11 0,-1 -2,-3 -3,-4zm23 -18c0,-2 1,-3 3,-4 5,-3 8,-3 10,5 -7,4 -6,4 -12,3 0,-2 -1,-2 -1,-4zm126 3c0,-6 3,-4 6,-4 2,0 0,-1 3,-1 1,0 4,4 0,7 -2,1 -2,1 -3,1 -2,0 -6,1 -6,-3zm17 4c-3,-4 -2,-2 -1,-7 7,0 8,0 8,2 0,5 -4,5 -8,5zm-265 11c-2,-4 -3,-5 0,-10 3,-7 11,-9 12,0 -3,-2 -3,-1 -6,-2 -1,2 -1,2 -3,3 -4,3 -3,5 2,8l1 -2c1,-1 0,-1 1,-1 -4,0 -4,0 -4,-4 5,0 3,0 6,1 0,3 -3,7 -8,7zm274 -18c4,-1 8,-1 8,4 0,6 -6,9 -8,7 -2,-2 0,-2 0,-12zm-264 10c-2,-1 -3,-1 -4,-3 4,1 3,1 6,3l-3 9c0,0 0,0 0,0 0,0 0,0 0,0 -7,7 -8,6 -14,2 0,-5 1,-4 1,-7l2 3c1,1 1,1 1,2 4,0 6,0 9,-3 1,-2 2,-4 2,-7zm82 4c-4,0 -5,-13 7,-13 1,3 2,1 2,4 0,8 -1,4 -2,9 -3,0 -3,1 -7,1zm172 -4c-2,2 -1,1 -2,4l-2 0c-1,-4 -2,-2 -5,-5 1,-2 2,-1 2,-4 3,2 0,3 5,5zm-158 4c0,-4 0,-5 2,-7 7,-5 7,4 5,6 -2,2 -5,1 -7,1zm178 5c0,-3 2,-1 2,-4 0,-3 -1,-3 -1,-5 -2,0 -2,0 -3,-1 1,-3 1,-2 2,-6 2,1 4,2 6,4l19 11c2,1 4,2 7,3 2,1 5,2 7,3 16,8 27,9 47,21 5,3 13,8 16,13 -5,0 -11,3 -15,5 -14,7 -8,25 6,13 0,0 0,0 0,0l1 -1c0,0 0,0 0,0 0,0 0,0 0,0 4,-4 8,-6 14,-7 1,2 3,4 4,7 -2,1 -6,1 -9,3 -4,2 -12,5 -13,9 -4,8 -1,13 3,13 4,0 9,-4 12,-6 4,-3 6,-5 12,-6 1,2 1,4 2,7 -5,2 -7,2 -13,6 -12,8 -8,15 -3,15 7,0 11,-8 18,-9 2,3 1,10 2,13 0,3 1,2 1,4 0,4 1,6 1,10 1,16 0,37 2,49 1,7 0,14 1,21l7 37c1,5 3,12 4,17 -3,1 -4,3 -7,4 -3,2 -5,2 -8,3 -7,4 -6,19 11,10 2,-1 2,-1 4,-2 2,-1 2,-1 4,-2 1,3 1,3 -2,4 -1,1 -3,2 -4,3l-9 5c-8,4 -9,14 1,14 7,0 11,-8 17,-8 -1,7 -17,9 -20,14 -3,4 -1,4 0,8 4,0 3,1 7,0 5,-1 10,-7 15,-8 1,3 1,7 1,10 1,4 1,7 2,10 1,3 1,6 3,9l18 34c1,1 1,2 2,4 -4,2 -18,3 -23,4 -8,1 -15,3 -21,5 -4,1 -7,2 -11,3l-11 3c-28,4 -20,12 -26,-10 -5,-21 -9,-42 -14,-63 -1,-3 -1,-5 -2,-8l-8 -41c-2,-10 -3,-22 -6,-33 -1,-5 -2,-10 -3,-17 -1,-5 2,-10 4,-14 6,-11 14,-32 12,-45 0,-4 0,-6 -1,-9 -1,-4 0,-5 -3,-6 0,5 2,8 2,14 0,8 -1,16 -4,23l-7 18c-4,8 -9,17 -12,25 -1,3 -3,6 -4,8 -1,3 -2,7 -2,11 0,4 -1,6 -2,10 0,4 0,6 -1,10l-2 34c-2,20 -3,11 -3,36 0,18 5,28 5,36 -3,0 -5,0 -8,-1 -3,0 -4,-1 -7,-1l-21 -4c-19,-5 -19,-4 -40,-1 -18,3 -23,1 -38,2 -5,0 -9,1 -14,2l-13 3c-12,1 -28,1 -39,-3 -4,-1 -6,-2 -10,-3l-19 -6c-3,-1 -6,-2 -10,-3 -6,-2 -15,-4 -20,-1 1,-2 0,-1 2,-2 7,-4 14,-6 21,-11l19 -13c1,-1 1,-1 3,-2 2,-1 3,-2 5,-4l13 -10c0,0 1,-1 1,-1 0,0 1,-1 1,-1 0,0 0,0 0,0l19 -17c6,-6 13,-11 18,-18l8 -10c3,-4 11,-19 13,-23 4,-15 4,-15 4,-31l-1 -7c-1,-4 -1,-4 -1,-8 1,1 2,2 3,2 3,2 3,0 7,2 1,1 2,1 3,2 0,14 2,21 11,31 3,3 14,9 19,10 3,1 9,2 13,2 5,0 20,-1 23,-5 -4,1 -10,3 -15,3 -11,0 -22,-2 -31,-7 -1,-1 -2,-1 -3,-2 -11,-7 -15,-19 -15,-32l8 -5 15 -2c5,-1 9,-2 13,-4 2,-1 3,-3 4,-4l4 -4c4,-3 5,-5 6,-11 3,0 5,-1 7,-3 4,-4 1,-7 5,-9 4,-1 8,-1 12,-2 10,-1 30,2 30,-8 0,-8 -36,-2 -41,-2 1,-2 3,-4 4,-6 9,0 17,-1 27,-1 2,0 3,1 5,1 9,0 14,-13 1,-14 -2,0 -3,0 -6,1l-16 0c0,0 -2,0 -3,0 -11,1 -5,-1 -7,-10 7,-2 12,-1 20,-2 3,0 9,0 11,-3 2,-2 2,-4 2,-6 0,-7 -26,-1 -32,-4 -1,-4 0,-5 2,-8 1,-3 -1,-4 -2,-7 4,-6 6,-11 -2,-16 1,-2 2,-2 2,-4 0,-3 -2,-3 -2,-7 0,-4 2,-2 2,-5 0,-8 -4,-8 -4,-10 0,-4 2,-4 2,-6 0,-2 -2,-2 -2,-5 0,0 2,-2 2,-3 3,-6 -3,-7 -3,-11zm-155 -6c0,-4 4,-5 8,-5l2 2c2,3 1,4 -2,6 -4,2 -4,1 -7,1 -1,-2 -1,-1 -1,-3zm135 5c0,-3 -1,-3 0,-6 2,-4 13,-3 9,6 -5,1 -4,1 -9,0zm13 -1c0,-4 0,-4 2,-7l2 0c6,0 3,8 -3,7zm-29 -2c0,-5 12,-8 12,0 0,4 -12,6 -12,0zm25 9c-3,0 -1,-5 2,-5 1,0 2,1 2,2 0,1 -2,3 -4,3zm-165 1c0,-2 0,-4 2,-5 3,-4 6,-2 7,-2 0,7 -3,10 -9,7zm-92 -16c0,2 0,0 0,0 1,0 0,-2 0,0zm-12 20c2,-7 6,-8 8,-12l3 -7c2,-3 2,-4 5,-5 0,2 -1,2 -1,4 0,12 3,3 -4,15 -1,2 -2,3 -6,3 1,-2 2,-2 4,-3 3,-2 6,-10 3,-13 0,2 -1,5 -1,7 -1,4 0,2 -3,5 -8,7 -2,6 -7,8zm88 -5c0,-4 11,-7 5,2 -4,0 -5,0 -5,-2zm44 2c0,-6 4,-6 8,-7 10,6 -1,12 -5,12 -1,0 -4,-3 -4,-4zm-146 10c-5,-10 1,-13 2,-17l2 0c1,4 6,6 10,6 0,3 0,2 -1,5 0,0 0,0 0,0 0,2 2,1 -2,3 -4,1 -6,2 -10,3zm285 -10c1,-2 3,-5 5,-5 6,0 4,7 3,8 0,0 0,0 0,0 -2,2 -4,2 -6,2l-2 -5zm-31 4c0,-3 0,-3 1,-5 1,-1 2,-2 4,-2 10,0 6,10 2,10 -4,0 -3,-1 -6,-2zm19 -2c0,-2 1,-4 2,-4 4,-1 7,0 7,4 0,7 -9,7 -9,0zm-380 255c3,-15 3,-23 6,-37 0,-2 0,-4 1,-5 0,-2 1,-3 1,-5l1 -9c1,-4 1,-7 1,-11 1,-7 5,-20 6,-29 1,-7 3,-13 5,-20 3,-15 13,-51 18,-64 8,-20 27,-52 40,-71 1,-2 9,-12 11,-13l2 16c0,2 1,3 1,6 -4,1 -11,8 -13,10 -5,4 -11,15 -15,21 -1,2 -1,2 -2,4l-3 8c-1,3 -1,2 -1,4 -1,3 -2,6 -3,9l-11 76c0,4 -1,6 -1,10 -1,13 -9,41 -13,57 -1,3 -1,7 -2,9 -1,8 -9,17 -15,26 -1,1 -1,2 -2,3 -3,5 -5,10 -8,16 -1,2 0,1 -1,2 -2,4 -5,12 -7,13l3 -26zm263 -246c2,-3 4,-2 4,-7 16,0 0,22 -4,7zm-33 -4c5,0 7,-3 7,5 -3,1 -2,1 -6,1 -2,-4 -1,-2 -1,-7zm162 6c0,-2 2,-3 2,-5 6,0 5,1 5,5 -1,0 -3,2 -4,2 -1,0 -3,0 -3,-2zm-185 -1c0,-2 1,-5 4,-5 8,0 9,15 -3,12l-1 -7zm170 4c2,-3 2,-4 7,-3 5,1 3,3 2,6l-7 0 -2 -3zm-21 -1c0,-3 3,-3 5,-2 7,2 2,7 2,8 -4,0 -4,0 -7,-1l-1 -4zm30 7c0,-2 2,-3 2,-5 3,1 2,0 4,3 -1,5 -7,10 1,14 0,2 -2,6 -2,7 0,2 2,4 3,5 -4,8 -3,9 1,16 -6,8 -2,5 -1,12 -3,4 -3,6 -8,6 -1,0 -3,0 -4,0 -7,0 -11,1 -12,8 5,7 14,4 22,4 0,3 -1,3 -1,5 0,2 1,3 1,5 -14,0 -9,1 -16,1 -7,0 -10,0 -12,5 -5,12 19,7 23,7 1,0 4,4 -1,5 -6,1 -26,0 -26,5 0,10 10,7 19,7 -2,8 0,8 -7,12l0 6c-5,0 -14,-1 -16,7 -9,-2 -11,2 -12,4l-1 1c-2,-1 -4,-4 -8,-3 -3,1 -5,4 -7,4 -5,0 1,-2 -8,-7 0,-6 -2,-9 -2,-15 0,-16 4,-22 -5,-20 0,-3 0,-5 3,-6 1,0 0,0 2,0 -2,-2 -5,-2 -8,-5 4,0 3,-1 5,-2 6,-3 6,6 13,6 3,0 2,0 5,-3 6,-5 11,4 19,-7 1,-2 1,-2 1,-5 11,-2 9,2 12,-9 2,-7 7,-1 7,-13 4,-1 4,0 6,-2 4,-5 -1,-9 2,-14 2,-3 7,-4 2,-12 2,-2 4,-4 5,-7 1,-3 -1,-4 -3,-7 2,-2 5,-4 5,-8 0,-2 -2,-2 -2,-4zm-112 -1c0,0 2,-3 3,-4 6,-5 16,2 4,10 -3,-1 -6,-3 -6,-7zm-41 4c0,-8 11,-8 11,-3 0,6 -11,9 -11,3zm-18 -1c-2,3 -1,2 -5,2 0,-1 0,-1 -1,-2 1,-2 2,-2 5,-2 0,1 0,1 1,2zm179 7c-3,0 -3,-3 -2,-5 1,-3 0,-1 4,-5 3,1 6,2 6,6 0,3 -3,5 -7,5zm-14 -8c2,1 1,0 5,2l-1 4c-5,1 -3,1 -8,0 -1,-2 -1,-1 -1,-3 0,-2 1,-3 2,-4 0,0 2,1 2,1zm-33 2c0,-2 1,-3 3,-3 3,0 0,0 2,1 5,5 4,9 0,9 -5,0 -5,0 -5,-7zm-59 7c0,0 1,-7 5,-7 10,0 4,11 0,11 -4,0 -5,-3 -5,-4zm44 5c0,-5 11,-10 11,-4 0,7 -11,10 -11,4zm-28 2c0,0 2,-5 2,-6 1,-2 0,-1 5,-2 5,7 2,7 0,10 -3,0 -7,1 -7,-3zm21 -1c0,0 1,-4 5,-1 -1,2 -1,2 -2,4 -2,-1 -3,-1 -3,-3zm-85 0c0,-4 11,-9 11,-1 0,2 0,1 -2,2 -5,5 -5,4 -8,3l-1 -4zm78 -2c1,2 1,1 2,3 -3,1 -1,1 -5,0l0 -2c2,0 2,0 3,-1zm75 5c1,-1 1,-9 9,-4 -1,5 -5,6 -9,4zm89 10c-3,-5 -2,-9 2,-12 0,0 0,0 0,0 3,-2 8,-5 12,-6 2,-1 2,-1 5,-1 1,3 2,3 3,6 -14,0 -16,12 -22,13zm-101 -7c-4,0 -7,0 -7,-3 -1,-8 10,-6 10,-2 0,2 -2,3 -2,5zm-170 -4c0,-8 10,-8 10,1 0,7 -10,9 -10,-1zm38 13c0,-6 5,-8 5,-8 7,0 6,11 -5,8zm75 -10c5,0 5,0 6,0 5,3 3,9 0,12l-8 1c-1,-1 -3,-4 -3,-5 0,-3 2,-8 5,-8zm-223 8c0,-2 1,-2 2,-2 6,0 7,-1 7,3 0,6 1,9 2,16l8 43c0,3 1,8 2,11l4 19c0,4 1,7 1,11 1,4 1,7 2,11 1,10 3,22 6,31 3,7 6,11 6,19 -3,0 -2,-1 -5,-1 -1,0 -3,2 -6,2 -2,-4 -3,-11 -4,-18l-13 -84c-3,-11 -7,-45 -9,-53 -1,-4 -3,-6 -3,-10zm276 0c0,0 3,-1 3,-1 5,9 -7,9 -7,4 0,-5 1,-3 4,-3zm18 -4c12,-5 11,12 5,12 -3,0 -4,0 -5,-2 -2,-3 -1,-6 0,-10zm-177 9c0,-4 6,-3 6,0 0,1 -2,2 -3,2l-3 0 0 -2zm273 8c0,-6 3,-7 7,-10 9,-5 15,-8 15,4 -8,1 -22,19 -22,6zm-454 205l12 3c4,1 12,6 16,4 7,-4 -1,-9 -5,-11 -7,-4 -15,-4 -23,-6 -3,0 -11,1 -11,-2 0,-3 1,-4 3,-4 5,0 12,1 17,2 4,1 8,2 11,3 2,1 8,5 8,5 9,0 12,-12 -6,-16 -3,-1 -5,-1 -8,-2l-23 -3c2,-4 -2,-8 12,-5l5 1c4,1 6,2 10,3l19 8c4,0 10,-6 5,-10 -7,-6 -29,-10 -38,-12 -3,-1 -5,-1 -8,-1 0,-11 4,-21 7,-31l6 -27c1,-7 8,-52 8,-58 19,-4 28,-1 35,-2 3,0 5,-1 5,-4 0,-13 -27,-8 -38,-8 0,-4 0,-4 3,-5 9,-3 20,2 29,2 3,0 6,-5 5,-8 -4,-7 -27,-7 -34,-5 0,-1 0,-4 1,-4 1,-2 0,-1 4,-2 4,-1 5,0 8,0l14 1c12,1 13,-9 -2,-12 -5,-1 -10,-2 -16,-2 -2,0 -4,2 -3,-2 1,-6 6,-13 9,-18 1,-2 1,-2 3,-4 4,-5 8,-10 14,-14 3,-3 5,-5 5,2 0,5 1,13 3,18 0,2 1,3 2,5 0,2 0,5 0,7 0,4 3,10 4,16 0,2 1,5 1,6 0,2 0,3 1,5 3,18 9,51 13,68l2 12c2,8 2,16 3,25 1,5 0,7 1,12 3,18 9,20 6,31 -2,7 -6,12 -9,19 -2,3 -3,6 -5,10 -7,13 -4,7 -18,10 -9,2 -22,4 -28,12 7,-1 11,-5 17,-7l20 -4c4,-1 6,-1 10,-2 6,-1 13,-3 20,-4 7,-1 13,-3 20,-4l13 -2c8,-1 16,-3 24,-5l7 -2c13,-6 29,-9 40,-20 5,-5 6,-20 4,-27 -1,-6 -3,-12 -5,-19 -2,-12 -3,-28 4,-38l6 -6c3,-3 2,-3 6,-5 4,-2 9,-3 13,-5l3 -2c6,4 9,1 10,4 1,5 -8,8 -12,6 0,0 0,0 0,0 0,0 0,0 0,0 -2,-1 0,-1 -1,-1 -2,1 2,3 1,5 0,2 -4,6 -7,6 -4,0 -6,-2 -8,-4 1,4 2,4 5,5 0,4 0,9 -3,13l-3 3c5,0 2,-1 6,2l8 6c2,2 4,6 7,7 -2,-3 -3,-9 -6,-11l-10 -7c2,-4 2,-5 2,-11 4,-2 10,-4 11,-9 6,0 4,-1 8,-1 0,2 -1,4 -2,5 -5,1 -10,1 -11,7 3,-2 0,-2 4,-3 5,-1 10,-1 14,2 3,3 7,12 8,16 -5,0 -12,1 -13,6 3,-1 2,-1 4,-2 11,-4 19,2 20,14l2 0c0,-9 -2,-7 -5,-13 -2,-4 -2,-13 0,-17 1,-2 1,-2 4,-2 -2,-2 -4,-4 -5,-7 -4,-12 3,-22 12,-22 2,0 5,3 5,4 0,11 0,19 1,30l2 26c0,13 0,9 -1,20 -1,4 -1,4 -2,8 -2,8 -9,18 -16,23 -8,5 -15,1 -15,5 0,5 12,0 14,-1 -1,4 -10,13 -13,17 -2,3 -6,4 -8,7 -3,3 -5,5 -8,7 -7,7 -15,12 -21,17l-41 27 -30 15c-3,2 -7,3 -10,5l-21 9c-4,2 -7,3 -11,5l-22 8c-13,4 -46,20 -59,7 -6,-6 -17,-31 -21,-39 -1,-3 -1,-3 -2,-6 -1,-2 -1,-2 -1,-3l-2 -6c0,-1 -1,-2 -1,-3 -3,-10 -5,-27 -3,-37 4,0 11,0 13,0zm221 -208c0,-2 2,-3 4,-4 7,-2 9,10 -1,10 -4,0 -3,-4 -3,-6zm113 1c2,0 -1,2 6,2 0,3 0,7 -3,8 -3,1 -7,-4 -7,-7 0,-1 2,-4 4,-4zm23 4c0,-4 3,-1 5,-1 2,0 4,-2 4,1 0,3 -4,5 -9,2l0 -2zm-170 -1c0,-2 4,-5 8,2 3,5 1,5 1,11 -8,0 -9,-5 -9,-13zm-164 6c1,-3 0,-5 2,-7 4,-3 29,0 29,5 0,3 0,2 -2,3 -1,0 -3,0 -3,0 -1,0 -6,0 -8,-1 -5,-1 -11,-1 -17,-1zm206 4c0,-4 9,-11 12,0 -4,3 -12,10 -12,0zm236 10c-9,0 2,-16 15,-16 1,3 2,5 2,8 -6,0 -10,8 -16,8zm-142 -7c0,-2 1,-3 2,-4 4,0 11,5 4,11 -3,-2 -5,-2 -5,-7zm33 3c0,-6 8,-6 10,-3 5,8 -10,19 -10,3zm13 -1c4,0 7,-1 14,-1 4,0 12,-1 12,3 0,7 -14,5 -20,5 -3,0 -4,1 -8,1 0,-4 2,-3 2,-8zm-130 5c0,-5 12,-9 12,0 0,2 -5,5 -8,5 -3,0 -5,-2 -5,-5zm-220 0c0,-7 12,-6 17,-5 4,1 6,0 10,1l6 3c2,2 1,4 0,5 -3,0 -6,-2 -9,-2 -15,-2 -12,0 -23,0l0 -3zm176 1c12,-6 9,4 2,4 0,0 -1,0 -2,-1l0 -4zm141 -1c0,-5 8,-4 11,-5 3,-1 4,-2 6,0 1,1 1,5 1,7 -4,1 -18,4 -18,-2zm-21 4c0,-3 4,-6 7,-3 2,2 1,4 0,8 -4,0 -3,1 -6,-1 0,-2 -1,-2 -1,-4zm-55 2c-5,0 -6,1 -10,1 0,-1 0,-1 -1,-2 3,-5 10,0 11,1zm102 1c2,0 3,4 -2,4 0,3 1,1 -2,3 -3,-2 -2,-2 -3,-6 2,0 4,-1 6,-1zm-98 3c-1,7 -2,9 -6,10 -15,2 -11,2 -19,6l-18 6c-3,1 -4,2 -4,-2 0,-5 2,-8 6,-10 11,-8 14,-6 29,-9 2,1 1,0 2,2 7,0 5,-2 10,-2zm-62 3c0,-3 3,-4 5,-4 2,2 4,4 5,7 -4,4 -6,5 -9,3l-1 -5zm64 0c0,-3 6,-4 8,-3 4,2 2,5 2,8 -5,1 -10,2 -10,-5zm35 1c0,-4 2,-4 5,-5 14,7 -5,16 -5,5zm-285 -2c3,0 3,-1 7,-1 15,0 33,-3 27,9 -3,0 -6,-1 -10,-1 -8,-1 -15,1 -25,1 0,-4 1,-4 1,-8zm346 5c3,0 2,0 3,0 1,0 3,0 4,0 3,0 6,0 9,0 4,0 5,-1 8,-1 12,0 13,-1 13,6 -8,2 -13,1 -22,1 -4,0 -8,1 -12,1 -5,0 -1,-3 -3,-8zm-68 4c0,3 -4,3 -6,3 -7,-1 -6,-11 4,-11 3,4 2,0 2,9zm250 157c1,6 1,11 2,17l7 31c2,6 7,26 7,30 -6,0 -9,2 -15,2 0,0 0,0 0,0 -1,-6 0,-11 -1,-15l-12 -61c-2,-11 -6,-15 -8,-29l-3 -16c-1,-9 -7,-37 -9,-47 -1,-3 -1,-6 -2,-8 0,-3 0,-5 -1,-8l-5 -31c-2,-11 -4,-20 -4,-32l17 49c4,12 3,16 5,24 1,3 2,4 2,7l15 72c1,5 4,9 5,15zm-216 -154c0,-2 2,-3 3,-4 1,0 2,0 4,0 19,-2 17,-3 16,3 -1,2 1,4 -8,4 -8,0 -15,1 -15,-3zm28 7c-2,0 -2,-1 -2,-3 -2,-7 1,-7 2,-10l5 0c1,4 0,13 -5,13zm-98 -7c3,-2 3,-3 8,-2 -1,5 -4,2 -4,5 0,5 11,4 12,4 0,9 -9,6 -15,2 0,-4 0,-6 -1,-9zm-47 1c3,-1 2,-1 5,-1 -1,2 -1,4 -2,6 -3,-1 -3,0 -3,-4zm54 1c1,-1 2,-1 3,-2 2,1 2,2 5,2l0 1c-3,0 -2,1 -8,1 -3,0 -2,-1 -1,-2zm-54 24c1,-1 0,-3 1,-5 1,-3 1,-3 2,-6 3,-6 7,-5 16,-9 17,-7 10,-2 19,-2 4,0 7,-4 7,0 0,3 0,5 -4,8 -3,2 -16,2 -25,8 -6,4 -8,3 -12,4 -3,1 -1,2 -5,2zm155 -15c5,0 32,-4 32,1 0,5 -24,4 -29,4 -4,0 -5,1 -10,1l1 -7 6 0zm-40 7c0,-2 1,-4 3,-5 3,-2 17,-2 20,-2 0,3 -1,5 -2,7 -5,0 -9,1 -13,1 -3,0 -3,0 -5,0 -2,0 -1,0 -4,-1zm-88 -1c4,-1 5,-3 11,-3 -1,2 -1,2 -3,3 -3,2 -6,3 -8,0zm5 18c4,-9 1,-6 3,-9 0,0 1,-1 1,-1 4,-6 1,-7 5,-9l6 -4 7 4c-2,4 -6,5 -6,12 0,4 0,6 2,10 5,8 -1,3 -1,19 -1,-1 0,0 -1,-2 -5,-9 -2,-11 -15,-19zm108 -14c1,-3 1,-1 0,-4 -1,-2 0,-3 0,-5l5 0c0,2 2,2 -1,6 -2,3 -1,-1 -2,3l-2 0zm-7 6c0,-2 1,-5 3,-5 2,0 0,3 6,3 -1,7 -9,8 -9,2zm-6 11c0,-3 2,-5 4,-6 1,3 3,8 -4,8l0 -2zm-17 10c2,-2 3,-4 6,-5 5,-2 2,2 8,2 0,5 -7,7 -9,7 -4,0 -4,0 -5,-4zm-8 1c5,0 4,7 2,7 -2,0 -5,-2 -5,-4 0,-1 2,-2 3,-2zm-5 2c0,3 1,2 2,5 -4,0 -4,-1 -5,-4 1,-1 1,-1 3,-1zm-17 4c0,-5 7,-7 10,-4 7,6 -10,12 -10,4zm-181 92c0,-11 -1,-6 -2,-15 -1,-4 -1,-8 -2,-11 0,-5 0,-7 -1,-12 -1,-7 2,-4 2,-9 0,-4 -3,-9 -4,-12 -4,-8 -1,-5 -1,-13l2 0c0,4 1,5 2,9 4,16 6,16 8,24 2,7 3,29 3,39l-6 1zm288 -33c2,-16 1,-11 5,-26 1,-3 1,-5 4,-7 2,6 3,15 4,21l6 31c1,4 1,6 2,10 0,2 1,3 1,5l9 43c1,4 1,6 2,10 0,2 1,4 1,5 1,7 6,31 6,35 -3,-2 -5,-3 -9,-4 -4,-1 -7,-1 -11,-1 -3,0 -4,-2 -10,-3 -4,-1 -7,-1 -11,-1 -1,-6 -4,-11 -5,-17l-1 -30 7 -69zm-302 -4c0,-4 3,-5 6,-5 2,8 2,16 3,22 1,4 1,5 2,9 2,13 4,11 -4,12 -2,-5 -3,-13 -4,-19 -1,-6 -3,-14 -3,-20zm-88 10c2,1 4,1 6,2 7,1 11,3 18,5 4,1 8,4 9,7 -1,1 -2,3 -4,3 -3,0 -9,-3 -12,-5 -4,-2 -8,-3 -13,-4 -21,-5 -21,0 -19,-8 1,-3 -1,-1 1,-2 1,-1 12,2 14,3zm476 12c4,-2 5,-2 10,-4 5,-2 6,-4 9,-4 0,3 1,5 2,8l-10 5c-9,4 -4,3 -10,1l0 -6zm-472 12c-4,-1 -8,-1 -11,-2 -5,-1 -6,-1 -11,-1 2,-8 -1,-9 21,-4 1,0 3,0 5,1l10 4c3,1 8,3 8,6 0,5 -5,3 -7,1 -2,-1 -2,-2 -4,-2 -1,-1 -3,-1 -5,-2 -2,-1 -2,-1 -5,-1zm-27 3c0,2 0,3 -1,5l-2 4c-1,3 -2,3 -6,4 -5,-8 2,-12 2,-13l-3 1 0 -2c3,0 3,-1 5,-1 1,2 1,2 4,3zm503 10c-3,0 -3,-4 -1,-6 2,-2 16,-11 19,-11 1,6 4,6 -4,12 -4,2 -9,5 -14,5zm-409 -4c0,-4 2,-5 4,-8 2,-4 10,-22 12,-24l4 27c-3,1 -6,2 -10,2 -3,1 -7,1 -10,2zm-62 2c3,1 7,4 10,4l0 4c-8,1 -6,-1 -18,-5 -6,-2 -14,-2 -22,-2 1,-6 0,-7 8,-7 7,0 16,2 23,5zm-45 4c0,-4 1,-3 1,-7l1 0c0,9 0,4 2,9 3,1 3,0 5,1 -2,4 -4,3 -7,2l-1 -5zm515 11c0,-5 8,-6 15,-10 2,-1 3,-2 5,-3l0 8c-3,2 -2,2 -5,3 0,0 -15,8 -15,2zm-528 13c2,-3 1,-7 7,-18 2,-3 1,-3 3,-5 1,4 3,6 7,7 0,2 -1,11 -2,13 2,-1 2,-1 3,-4 1,-3 1,-3 4,-4 0,6 1,7 -1,11 -3,6 -1,6 -4,8l0 -9c-4,1 -3,5 -7,8 -1,-3 0,-4 -3,-7 -3,-3 -3,-1 -8,-1zm15 6c1,4 1,4 0,9 -1,6 -4,22 -11,24 0,-3 1,-5 3,-7 3,-4 1,-1 2,-5l-2 0c-1,4 -4,6 -8,6 -1,-4 -3,-2 -3,-9 3,2 3,5 8,3 10,-5 4,-27 -6,-16 0,-6 0,-9 7,-9 2,0 6,14 6,16l2 0c0,-5 -1,-9 2,-11zm22 289c-6,-2 -17,-19 -21,-25l-7 -15c-2,-8 -3,-31 -5,-41 0,-4 0,-14 -1,-20 -1,-6 0,-25 0,-33 0,-5 -1,-6 -1,-10 0,-15 -2,-29 -2,-42 0,-10 1,-26 4,-38l12 -48c1,-6 7,-18 7,-20l2 0c0,2 1,3 1,5 0,4 -13,36 -14,40 0,2 0,3 0,5 -1,2 -1,1 -1,4l-4 38c0,7 0,14 0,21 0,43 6,54 11,92 1,6 2,12 3,18 0,8 2,20 3,29 0,2 2,6 2,8 2,13 6,20 12,31zm-35 -286c3,0 4,0 5,3 6,12 -6,18 -9,8 -1,-3 0,-4 0,-8 1,1 0,0 1,1l1 4c1,3 1,3 5,3 1,-4 3,-4 -1,-7 0,3 2,4 -2,4 -1,-2 -1,1 -1,-2 0,-4 1,-3 1,-7zm2 4c0,0 0,0 0,0l0 0zm-10 44c0,-9 2,-16 2,-26 5,1 2,4 7,5 -7,13 -2,9 -2,13 0,2 -1,1 -1,3 -2,6 -1,3 -7,4zm526 334l0 0c0,0 0,0 0,0zm-35 1l0 0c0,0 0,0 0,0zm-10 0l0 0c0,0 0,0 0,0zm-23 -166c0,0 0,0 0,0l0 0c0,0 0,0 0,0zm-2 -18c0,0 1,0 1,0 0,0 1,3 0,0 0,-1 -1,-3 -1,-1zm-278 -166l14 -6c9,-4 24,-3 34,0 5,1 9,3 14,4 9,3 18,6 27,9 13,4 33,1 47,-2 12,-3 20,-2 21,-2 13,2 18,1 32,-2 7,-2 15,-3 23,-3 5,0 39,10 53,10 6,0 15,0 18,4 -6,1 -12,4 -18,5 -15,3 -29,4 -45,3 -4,0 -4,-1 -9,-1 -7,0 -14,-1 -20,-2 -5,-1 -6,-1 -11,-2 -14,0 -12,-3 -32,-1 -3,0 -8,1 -10,2 -2,1 -2,1 -4,1 -4,1 -11,1 -13,4 8,-2 17,-5 25,-6l6 0c13,0 37,2 49,5 15,3 32,2 47,1 8,0 18,-3 26,-6 8,-3 19,-5 27,-1l4 2c5,3 6,9 6,14 -7,2 -16,3 -23,4 -20,4 -19,4 -19,13 0,2 0,1 0,4 0,3 1,1 0,4l0 8c0,8 -4,6 5,12 3,2 2,3 7,5 5,2 7,4 7,7l0 2c5,12 5,23 5,36l0 15c0,1 0,3 -1,5l-3 15c0,1 -1,3 -1,5l-4 19c-3,17 -4,40 -8,54 -2,6 -4,13 -6,19 -1,2 -1,3 -2,4 -10,17 -12,40 -6,58 1,2 1,5 2,8 1,-1 1,1 1,-2 0,-3 -1,-5 -1,-7 -1,-4 0,-7 -1,-11 0,-4 -2,-7 3,-8 2,0 9,0 12,0 -1,0 0,0 -1,-1 -4,-1 -8,0 -14,0l0 -3c3,0 3,-1 5,-1 4,0 7,1 10,-1 -5,0 -9,-1 -15,-1 4,-6 14,2 16,-4 -8,0 -10,-1 -15,-1 0,-3 1,-5 2,-7 4,0 4,-1 7,-1 5,0 12,2 16,-4 -8,1 -5,1 -16,1 -1,0 -2,0 -5,0l0 -1c12,-3 18,1 22,-4 -4,1 -6,1 -10,0 -5,-1 -6,0 -10,0 3,-4 9,-3 14,-3 4,0 3,1 5,-2 -3,0 -6,0 -8,-1 -3,0 -4,0 -8,1 1,-2 1,-2 3,-3 4,-1 9,1 12,0 1,0 0,1 1,-1 -5,0 -5,-1 -15,-1 1,-4 2,-6 3,-9 3,-8 6,-23 7,-31 3,-1 5,-1 8,-1 3,0 6,1 9,2 -2,-3 -10,-4 -16,-4 1,-7 11,-2 15,-2l-1 -1c-8,-4 -6,-2 -13,-2 -1,0 -2,-1 0,-2 1,-1 2,-1 4,-1 4,0 5,0 9,0 -4,-2 -10,-1 -15,-1l0 -1c9,-2 11,0 13,-1 1,0 1,0 1,-1 -12,-1 -7,0 -15,0l0 -2c2,0 4,-1 6,-1 3,0 4,0 7,-1l0 -1c-2,0 -5,0 -6,0 -2,0 -3,1 -6,1 0,-10 3,-18 5,-27 1,-2 1,-4 2,-6 1,-5 2,-17 3,-23 3,-12 2,-27 1,-39 -1,-8 -4,-13 -5,-21 4,1 6,3 10,5l9 6c3,-1 5,-1 8,-2 8,-3 18,-4 26,-6 9,-2 8,10 23,4 3,-1 4,-3 6,-4 3,1 2,1 5,2 3,1 2,0 5,1 -1,14 3,29 7,43l3 9c2,7 4,14 5,21 1,12 1,13 1,26 0,7 -2,12 -2,18 -5,-3 -7,-2 -15,-2 -7,0 -15,-7 -25,-2l-1 -16c0,0 0,0 0,-1l3 -43c0,-11 0,-24 -1,-33 0,-5 -1,-8 -1,-14 -2,1 -2,1 -2,4 0,18 2,36 -1,52l-3 51 -6 0c-6,0 -18,-4 -22,-3 -2,0 -8,2 -8,0 0,-13 0,-27 3,-40 1,-4 1,-8 1,-13 2,-12 2,-26 4,-38 1,-5 1,-8 1,-14l-6 41c-1,5 -1,8 -2,13 -2,13 -4,29 -4,43 0,5 0,11 0,16 -1,14 -4,25 -7,38 -1,4 -2,8 -4,12 -6,14 -13,38 -13,54 0,5 2,12 4,17 0,0 0,0 0,0 0,-9 -2,-16 -2,-25 0,-5 15,-3 20,-3 5,0 17,0 21,-3 -8,0 -13,2 -21,1l-15 0c-2,0 -2,2 -3,-2 4,-2 25,0 32,-1l5 -1c2,-1 1,0 2,-1 -11,0 -17,1 -27,0 -8,-1 -10,2 -10,-2 9,0 13,0 21,2 6,1 11,-1 16,-3l2 -1c-7,0 -12,1 -18,1l-19 -1c1,-4 2,-5 6,-6 10,-2 19,0 31,-3 -3,-2 -12,1 -16,1 -5,0 -7,-1 -12,-1 -3,0 -3,1 -5,1 3,-4 17,-2 23,-3 3,0 8,1 10,-1 -10,0 -20,-2 -28,-2l6 -2c7,-1 12,1 19,1l7 -1c3,-1 1,0 2,-1 -9,0 -30,-2 -35,-1l0 -1c7,-2 17,-1 24,0l-3 -1c1,-4 7,-2 7,-14 0,-6 -5,-5 -8,-8 3,-1 8,-4 9,-7 1,-2 10,-29 -16,-16 1,4 0,-1 2,3 1,3 -3,5 -3,11 0,3 4,4 6,5 -7,2 -8,-3 -7,-10 1,-3 0,-4 0,-7 0,-3 1,-6 1,-8 14,-3 8,0 19,0 4,0 7,-1 17,-1 -2,-3 -9,-1 -13,-1 -5,0 -9,-2 -14,-2 -3,0 -5,1 -8,1 2,-7 16,-2 21,-2 4,0 9,0 13,-1 -2,-3 -6,-1 -11,-1 -1,0 -4,0 -5,-1 -8,-1 -9,-1 -16,0l0 -1c6,-1 11,-2 17,-1 9,2 10,0 18,-1 3,13 5,50 6,66 0,2 0,3 0,6 -1,12 -4,24 -3,36 0,3 0,5 0,8l1 0c0,-5 1,-20 5,-23 2,-1 2,-1 5,-2 2,-1 2,-1 5,-1 5,0 11,-2 16,0 3,1 1,1 4,1l3 13c1,3 0,2 2,4 0,-4 -1,-6 -1,-10 0,-8 0,-10 -1,-18 -1,-5 0,-14 0,-20 0,-9 1,-14 2,-22 0,-6 1,-8 1,-12 2,-27 7,-55 1,-82l-7 -25c-3,-14 -8,-19 -8,-36 0,-1 0,-2 1,-2 0,0 2,-1 3,-2 3,-2 3,-3 5,-4 4,3 4,5 15,1 4,-1 5,-4 8,-5 -2,7 -9,3 -4,29 3,16 2,12 1,27 0,4 0,5 -1,7l-2 39c0,11 1,19 2,30l2 52c0,13 -4,26 -2,39l1 7c1,2 1,4 2,6l12 20c1,2 2,3 3,6 -3,-2 -4,-2 -6,-5 -2,-2 -3,-4 -6,-5 0,4 2,6 2,11 -4,-1 -5,-6 -9,-7 1,4 3,6 5,12 -4,-3 -5,-8 -9,-11 0,4 0,3 1,5 1,2 1,3 2,6l-10 -9c0,4 1,4 3,6 1,2 2,5 2,7 -5,-3 -6,-9 -11,-12 0,3 5,11 6,14 -2,-1 -2,-2 -3,-4l-5 -5c0,0 0,0 0,0l-5 -5c0,3 2,10 3,12 -5,-1 -6,-7 -10,-10 0,5 1,6 2,10 -4,-1 -7,-8 -12,-9 0,5 3,5 3,12 -4,-3 -8,-9 -12,-12 -2,3 1,10 2,14 -2,-1 -4,-3 -5,-5 -1,-1 -1,-2 -2,-3l-2 -3c0,6 0,7 2,12 -4,-2 -6,-8 -9,-10 0,4 0,3 2,6 1,2 1,4 2,7 -2,-1 -2,-2 -3,-3l-5 -7c-1,-3 0,-3 -3,-4 0,3 1,5 0,7 -1,2 -1,0 -1,0 -1,-1 -4,-5 -4,-7 -5,0 -4,1 -2,4 1,2 3,4 3,7l-3 -2c-2,-2 -4,-4 -5,-7 -2,-3 0,-2 -2,-4 -2,4 0,1 0,5 0,3 -1,1 0,3l2 5c-2,-2 -4,-4 -6,-7 -2,-2 -6,-7 -3,-1l4 11c-6,-4 -6,-8 -9,-12 0,4 2,6 2,11 -5,-1 -7,-8 -12,-11 1,4 3,5 3,11 -3,-1 -6,-6 -8,-9 -2,-3 -1,0 -2,-4l-2 0c0,4 1,9 -1,13 -1,-3 -7,-13 -10,-15 0,2 1,4 1,6 1,2 1,4 2,7 -4,-1 -6,-6 -8,-9 -1,-2 -2,-2 -3,-5l-2 0c0,6 2,9 2,15 -7,-7 -11,-17 -12,-18 1,3 2,8 2,12 -2,-1 -4,-3 -5,-5 -1,-2 -2,-6 -2,-8l-2 14c-6,-4 -7,-14 -9,-20 -3,-12 0,-50 3,-63l5 -32c2,-11 5,-28 0,-39 -4,-8 1,-2 -5,-15 -2,-5 1,-4 -5,-15 -1,-2 -4,-13 -4,-16 9,2 24,13 29,20l7 10c-1,-9 -19,-23 -27,-27l-22 -11c-8,-4 -14,-10 -20,-13l-22 -11c-3,-2 -4,-3 -7,-4 -3,-1 -5,-2 -8,-4 -10,-6 -18,-9 -26,-18 -2,-2 -3,-4 -4,-6l-5 -6c-2,-2 -3,-3 -6,-5l-12 -10c-5,-3 -41,-31 -43,-34 6,0 9,-2 18,6l2 2c1,1 2,1 3,2 12,11 20,15 29,23 3,3 8,6 11,9 1,1 1,2 2,3l10 10c1,1 0,0 1,1 11,10 16,13 30,20l50 27c1,1 2,1 4,2l17 9c3,1 3,2 6,4 9,5 14,11 17,14 -1,-4 -6,-7 -9,-10l-11 -8c4,0 7,-2 9,-5 -3,-2 -7,-3 -11,-4 3,-7 3,-11 -2,-17 5,0 15,10 19,13 3,2 5,5 7,8l7 10c-1,-12 -17,-24 -28,-30 -13,-8 -11,-8 -28,-16 -6,-3 -27,-16 -32,-19 -2,-2 -2,-2 -4,-3l-26 -19c-4,-3 -8,-7 -12,-10 -2,-1 -3,-2 -4,-3l50 7c4,0 5,1 8,1 9,1 16,3 24,5 9,3 21,6 29,12 2,2 3,2 5,5 2,2 3,5 5,6 -2,-6 -4,-8 -9,-12 -2,-2 -1,-2 -4,-3 -10,-5 -20,-8 -31,-11 -8,-2 -15,-4 -23,-5 -3,0 -7,-1 -11,-2 -12,-2 -25,-2 -37,-5 -15,-4 -29,-9 -44,-12l-11 -3c2,-2 5,-2 11,-2 32,-3 58,-4 90,1 4,1 5,1 9,1 11,1 21,3 33,3 22,1 35,-14 57,-9 -2,-3 1,-1 -3,-2 -12,-3 -31,4 -40,6 -16,3 -23,1 -39,0 -2,0 -6,-1 -9,-1 -19,-3 -40,-5 -61,-5 -14,0 -28,2 -42,3 -5,0 -8,1 -14,1 -2,0 -5,0 -6,0l-19 2c-22,1 -44,3 -65,-1 0,-3 -1,-5 -1,-7l-5 -23zm435 4c1,-5 7,-9 12,-9 8,0 8,4 9,7 -4,1 -2,0 -5,0l-10 1c-2,0 -3,1 -5,1zm-595 99c0,-3 -1,-7 -1,-11 -1,-13 0,-28 0,-44 0,-16 2,-25 6,-40 0,-2 0,-2 1,-4 1,-2 1,-2 1,-5 3,-8 2,-9 6,-18 1,-3 1,-6 3,-8 1,3 2,7 3,10l17 33c4,8 8,16 18,18 -1,3 0,2 -4,3 -13,6 -25,16 -30,29 -5,14 -5,27 -4,41l2 32c2,15 0,47 1,65 0,3 1,5 1,7 1,4 3,9 5,13 1,2 2,4 3,6l4 5c2,3 7,7 10,9 3,2 8,5 13,5 0,3 -1,3 -1,5 -1,4 -2,6 -12,4 -4,-1 -5,-3 -7,-5l-1 -1c-16,-16 -17,-41 -19,-62l-3 -20c-1,-7 -2,-14 -3,-21l-7 -39c-1,-6 0,-6 0,-10zm163 0c1,-5 3,1 0,-10 -1,-2 -1,-4 -1,-6 -1,-4 -2,-8 -2,-12 -3,-17 -7,-45 -10,-59 -1,-3 -2,-9 -2,-12 2,-1 5,-3 8,-3l10 49c1,4 8,42 8,48l2 0c1,-3 0,-2 2,-3 0,18 -5,5 -1,28l17 91c1,5 1,7 2,12l2 8c0,0 1,2 1,2 1,5 3,23 6,35 1,4 3,18 5,23 2,-1 2,-2 4,-2 2,0 3,2 3,4 -1,5 -8,5 -14,5 0,-5 0,-9 -1,-13 -3,-11 -8,-19 -8,-20l-20 -120c-1,-3 -2,-7 -3,-11 -1,-7 -4,-16 -4,-24 0,-2 2,-2 3,-2 5,-1 7,-1 6,-8l-2 0c0,3 0,3 -1,5 -2,0 -13,2 -11,-5zm-42 -87c2,-1 2,-1 3,-1l10 -4c4,-1 9,-4 13,-5l1 17c1,2 1,3 1,5 -6,0 -12,-2 -18,-2l-17 -1c-2,0 -1,0 -2,1l17 3c22,2 21,2 21,11 -2,0 -4,-1 -7,-2 -13,-6 -29,-7 -42,-8 -4,0 -5,1 -7,-2l26 -11zm314 23c4,-1 6,-2 11,-3l77 -17c12,-3 33,-8 45,-9 12,-1 23,-4 36,-6 16,-2 8,-3 16,2l22 13c25,14 6,11 -7,12 -10,1 -37,6 -45,6 -1,-3 -2,-5 -4,-8 -1,-1 -1,-2 -3,-3 -3,-2 -9,-2 -12,1 -3,3 -1,4 -4,6 -2,-3 -1,-3 -4,-6 -4,-4 -8,-4 -14,-3 -5,2 -4,4 -6,11 0,0 0,0 0,0 0,0 0,0 0,0 0,0 0,0 0,0 -1,-1 0,0 -1,-1 -3,-2 -9,-1 -12,-1 -1,3 -2,5 -2,8 -2,6 2,10 2,24l-1 -3c-1,-1 0,-2 -1,-3l-4 -13c-1,-2 -1,-5 -3,-5 -12,0 -9,-1 -12,9 -4,14 8,9 -13,12 -4,1 -7,1 -11,2 -18,2 -12,5 -20,-1l-15 -11c-3,-2 -5,-4 -8,-6 -3,-2 -5,-3 -6,-6zm-445 -25c0,-2 1,-6 2,-7l2 0c0,6 0,13 -2,17l-3 -2c-6,-3 -5,4 -1,5 0,-1 0,1 0,-1l2 2 -2 3 -4 0c-1,-3 -1,0 -1,-5 0,-2 0,-2 -1,-4 -1,-3 0,-4 3,-7 4,2 4,2 5,7 3,-4 1,-3 1,-7zm294 37c1,2 3,7 3,9 -19,-12 -16,-13 -28,-23 -2,-1 -5,-2 -3,-4 3,-3 30,6 34,7 4,1 22,7 24,10 -4,1 -5,1 -10,1 -6,0 -4,1 -8,2 -4,-3 -8,-9 -16,-10 2,3 4,2 6,6zm-30 -2c0,0 0,0 0,0l18 15c-4,0 -8,-1 -12,-2 -4,-1 -8,-1 -11,-2l-43 -6c-1,0 -3,-1 -5,-1l-16 -3c-13,-3 -15,-3 -17,-10 -2,-11 -4,-9 12,-7 18,2 30,1 50,1 2,0 16,9 17,10l6 5zm338 -5c0,-5 3,-4 15,-5 10,-1 26,-3 35,-3 11,0 12,-3 15,-4l2 1c1,1 0,0 1,1 -2,3 -3,2 -8,2 -10,1 -17,1 -27,2 -2,0 -2,0 -4,0 -15,1 -18,3 -29,4zm-13 -4c0,1 1,1 2,0 1,-2 0,0 -1,0 0,0 -1,0 -1,0zm12 6c1,4 1,8 2,13 0,2 1,4 1,6 3,15 -5,18 -14,14 -2,-1 -3,-1 -4,-4 -1,-3 0,-10 -1,-14 -1,-5 -4,-21 -3,-25l2 4c2,2 1,2 4,2 -1,-1 0,0 -1,-1 -4,-2 -3,-2 -3,-6 3,0 4,-1 6,-1 2,4 1,2 1,6 4,-1 2,-2 2,-7 -2,0 -4,0 -6,0 -3,1 -1,1 -5,1 1,-2 2,-5 5,-5 10,0 12,10 14,17zm-603 97c-1,-1 -1,-1 -2,-3l-8 -76c0,-4 -1,-4 -1,-7l3 -21c1,3 1,2 2,4 -3,4 -4,10 -2,14 3,-2 2,-4 7,-7 0,3 -1,9 -1,12 0,2 0,4 0,6 0,10 -1,19 0,31 1,10 2,35 2,47zm-7 -93c0,-3 1,-6 2,-8 1,-3 2,-4 6,-4 0,5 -4,10 -8,12zm612 -3c3,0 6,-1 9,-1l27 -3c4,0 5,-1 9,-1l20 -3c2,-1 0,-1 4,-1l0 3c-3,1 -5,1 -9,2 -10,1 -18,1 -27,3l-17 2c-12,2 -15,3 -15,-1zm-91 17c2,0 4,0 7,0 0,4 -1,3 -4,3l-19 2c-21,3 -15,5 -27,-3l-21 -15c-2,-1 -6,-4 -7,-7 -2,-7 8,4 15,8 3,2 6,4 8,6l12 10c4,2 7,0 11,0l19 -2c3,-1 3,-1 5,-1zm46 -28c0,-2 0,-4 2,-6 3,-3 10,-5 14,2 1,2 3,6 3,8 2,6 3,12 4,18 0,2 1,2 1,5l2 13c1,7 -6,9 -12,9 -17,0 -6,-7 -12,-33 -2,-9 -3,-5 -3,-16zm46 19c3,-4 11,-3 17,-4 4,-1 4,-1 9,-2 11,0 17,-2 27,-3 13,-2 12,-5 16,-2 -1,2 -1,1 -1,3l-43 6c-5,1 -24,4 -26,2zm-74 -9c0,6 1,7 -6,5 0,-5 -1,-4 0,-7 2,-1 6,-2 6,2zm12 -7c0,-4 13,-6 8,4 4,-1 1,-2 3,1 4,7 6,20 6,28 0,4 1,5 1,9 0,3 1,1 -1,4 -4,5 -11,5 -17,3 -1,-5 0,-5 0,-11l0 -11c0,-8 -3,-14 -3,-22 3,1 7,5 11,0 -5,0 -8,3 -8,-4zm-9 52c-9,0 -6,0 -12,-3l1 -9c0,-8 -1,-27 0,-31 0,0 0,0 0,1 0,0 0,0 0,1l1 4c11,0 3,0 10,-1 1,4 3,9 4,13 4,13 2,7 2,13 0,7 0,5 1,10 -4,1 -2,3 -7,3zm-56 -17c7,0 26,-6 42,-6l0 3 -25 4c-22,4 -14,5 -22,1 -6,-3 -27,-18 -30,-21 -2,-2 -2,-2 -2,-5 3,2 11,9 22,16 2,1 3,2 4,3 1,1 8,6 9,6zm-275 78l0 0c0,0 0,0 0,0zm-9 -65l-2 0c0,4 -1,3 -2,6l-8 -41 0 -2c5,0 11,2 15,4 14,4 30,6 45,9 3,1 5,0 8,1 14,2 34,1 47,11 9,7 17,19 22,23l30 20c4,2 5,1 10,4 22,14 24,5 21,26l-6 27c-2,8 -1,4 -15,8 -3,1 -8,1 -10,1 -20,3 -48,-2 -67,-6 -3,-1 -6,-2 -9,-2 -15,-3 -22,-6 -36,-10l-33 -13 12 7c4,2 9,5 13,6 9,4 46,15 56,16 2,0 2,0 4,1 28,5 49,8 77,0 2,-1 5,-2 7,-2 0,9 1,18 0,26l-1 26c-1,0 -3,0 -4,1 -1,0 -2,1 -3,1 -14,4 -51,2 -63,0l-7 -1c-15,-3 -24,-5 -39,-10 -7,-3 -41,-18 -46,-22 -3,-2 -2,-2 -3,-7 -2,-12 -14,-69 -14,-80 0,-9 1,-10 2,-15l0 -12zm452 -30c1,0 2,-1 3,-1 6,-2 20,-3 27,-3 0,5 -2,4 -6,4l-54 8c-4,1 0,2 -7,1l0 -2 38 -6zm-319 18c3,-4 8,-5 8,-11 0,0 -1,-2 -1,-2 -3,-5 -3,0 -3,-6l7 5c5,5 7,5 12,9 2,1 1,1 3,2 2,1 0,0 2,1l12 10 -12 2c-4,1 -6,3 -6,8 -5,-3 -8,-4 -12,-8 -2,-2 -3,-3 -5,-5 -3,-4 -2,-4 -5,-5zm-218 49c-1,-2 0,-2 -2,-2l2 2zm-24 -10c1,3 2,7 4,8l-3 -6c-1,-2 -1,-1 -1,-2zm-49 25c2,5 2,7 3,5l-1 -2c0,0 0,0 0,-1 -2,-5 -2,-5 -3,-4l1 1zm-3 -61c1,-6 3,-9 5,-14 4,-9 11,-14 19,-19 3,-2 4,-2 7,-3 3,-1 4,-2 7,-3 4,-2 10,-3 15,-5 18,-5 38,-3 55,2 8,2 14,6 21,8 1,3 1,5 2,9 0,3 2,6 2,9 2,13 5,24 5,38 0,19 4,2 6,27 1,9 5,17 6,27 2,13 7,24 7,37 -3,-1 -5,-2 -7,-3 -2,-2 -3,-2 -5,-4 -9,-5 -24,-16 -31,-23 -2,-2 -3,-2 -5,-4l-21 -20c-4,-3 -7,-8 -11,-11 2,5 20,24 25,29 1,1 1,1 2,1l17 14c2,2 4,4 7,5l14 11c14,13 18,3 20,29 0,7 3,15 3,21 -6,0 -11,0 -17,-3l-8 -6c-1,-1 -2,-2 -4,-3 -1,-1 -2,-2 -4,-3l-1 -1c0,0 0,0 0,0l-19 -17c-6,-5 -14,-14 -18,-20l-17 -24c-7,-11 -12,-23 -19,-33 -1,-2 0,-1 -1,-2 0,3 2,5 3,8 3,11 13,24 19,33 2,2 3,4 4,6 9,12 18,25 29,35 0,0 1,1 1,1 0,0 0,0 0,0 0,0 0,0 0,0 0,0 1,1 1,1 2,2 12,13 13,14 -3,-2 -5,-3 -9,-4 -15,-6 -23,-3 -31,-6 -11,-4 -22,-11 -32,-17 -10,-6 -19,-13 -27,-22 -1,-2 -2,-2 -3,-4 -1,-1 -1,-1 -1,-2l-8 -10c0,-1 -1,-1 -1,-2 -1,-1 -1,-2 -2,-4 -1,-2 -4,-5 -6,-7 1,5 1,3 4,6 2,2 2,3 4,5 5,7 11,13 16,20 8,10 20,19 31,24l24 12c-5,0 -7,-1 -13,-1 -10,0 -22,4 -28,11 -8,11 0,21 1,24 -14,3 -20,4 -28,-6l-11 -17c0,-1 -1,-2 -2,-3 -1,-1 -1,-2 -2,-3 -6,-15 -3,-46 -3,-68 0,-8 -1,-14 -2,-23l-1 -16 3 -33zm431 -3c1,1 9,7 12,8 -1,-1 -10,-8 -12,-8zm0 0c-1,-2 -4,-3 -6,-4 -1,-1 -2,-1 -3,-2 -5,-4 -11,-5 -12,-9 -1,-2 0,0 0,-4 3,1 3,1 5,3 8,7 27,18 28,19 4,4 3,2 13,0 7,-1 26,-5 32,-5l0 3c-2,1 -3,1 -5,1l-33 5c-4,1 -2,1 -6,1 0,1 0,1 2,1 8,0 40,-7 43,-6 -2,3 -9,3 -17,4l-22 4c-2,0 -3,1 -5,-1 -7,-5 -6,-3 -11,-7 -1,-1 -1,-1 -2,-1l-13 -8c-4,-2 -7,-3 -8,-6 8,2 14,9 21,10zm56 7c-1,5 -5,4 -9,4 -12,2 -10,2 -18,4 -16,3 -10,5 -26,-4l-9 -6c-4,-2 -15,-6 -16,-12l14 8c1,1 3,2 4,2 4,2 6,3 10,5 12,6 1,6 20,3 4,-1 7,-1 10,-2 7,-1 13,-2 20,-3zm69 39c0,-6 -2,-12 -3,-21 -1,-5 -1,-14 4,-18 4,-3 13,1 17,-7 4,-7 -3,-8 14,-10 3,0 8,-1 10,-1 8,-1 11,-4 17,0 3,2 4,3 4,8 -5,1 -3,-1 -8,-1 -6,0 -15,5 -18,11 -4,5 -5,14 -5,23l-3 26c-1,7 -2,21 -5,29l-4 16c-3,12 -2,10 -3,18 -2,13 -4,17 -7,28 -1,4 -2,7 -3,11 -1,5 -1,9 -4,11 -1,-4 -1,-7 -1,-11l-2 -43 2 -70zm-275 -50c2,1 0,-1 -1,0 -1,1 1,0 1,0zm2 -17c1,0 12,-9 12,6 4,2 3,1 5,4 -3,6 -8,5 -14,6 -3,1 -2,1 -5,1 3,5 3,0 10,5 7,5 6,4 4,6 0,0 9,1 5,4l-11 -4c-3,-1 -3,-2 -4,-4 3,1 5,3 9,4 -1,-1 0,0 -1,-1l-3 -2c-2,-1 -3,-2 -5,-3 -1,-1 -8,-2 -12,-9 -1,-2 -2,-3 -3,-5 -1,-2 -4,-7 -5,-10 6,3 3,2 5,8 2,4 3,4 7,5 -1,-3 -2,-2 -4,-4 -1,-1 -1,-4 -2,-6 8,-5 4,-1 10,-1zm26 45c-9,-6 -8,-6 -13,-10 -2,-2 -3,-1 -4,-4 6,0 2,2 12,2 2,3 4,8 5,12zm4 -2c1,1 0,0 1,2 1,2 3,3 5,4 -1,-3 -3,-5 -6,-6zm28 12c5,2 5,2 6,4 -3,0 -7,1 -9,1 -8,0 -14,-11 -19,-12l2 2c1,1 1,1 2,2 -7,-2 -12,-8 -14,-15 3,1 3,2 5,3 8,6 5,4 11,6 3,1 11,1 14,0 7,-3 5,-6 1,-10 -3,-3 -1,-2 -6,-2l0 2c4,0 5,2 6,5 -2,1 -2,1 -5,2 0,-3 0,-3 -2,-5 -6,1 -4,3 -8,4 -1,-2 -1,1 -1,-2 0,-4 6,-4 7,-7 -2,0 -6,1 -7,2 -2,2 -2,4 -2,7 -4,-1 -5,-3 -5,-7 0,-2 1,-2 2,-3 5,-4 14,-5 20,-1 2,1 5,4 5,6 0,15 -7,9 -14,14 3,1 7,1 9,2zm-11 -12c1,-1 2,-1 4,-1 0,2 1,2 0,3 -2,2 -6,0 -4,-2zm18 3c1,-2 1,-4 1,-7l26 15c3,2 6,3 8,5 -6,0 -7,-3 -13,2 -3,2 -3,2 -4,5 -4,-1 -6,-4 -10,-4 0,3 3,7 4,10 -6,0 -13,-6 -18,-7l0 -1c5,0 2,-1 12,-1 -1,-4 -8,-7 -12,-7 2,-3 6,-4 8,-7zm338 19c0,-4 5,-3 8,-3 0,4 -2,3 -2,8 -6,0 -7,-1 -7,-5zm-315 -4c5,-3 8,-2 15,0 2,0 1,0 2,1 4,4 10,14 2,18 -5,2 -5,0 -7,3l-11 -5c-1,-2 -1,0 0,-1 3,-4 -1,3 1,-1 -2,-1 -1,0 -3,-2 -5,-6 -7,-10 0,-13zm315 27c-5,0 0,-5 1,-7l5 0c-1,3 -1,3 -2,7l-4 0zm-6 6c-1,1 -1,3 -2,5 8,2 1,1 8,1l0 -6c-3,1 -3,0 -7,0zm-95 56c-1,2 -2,2 -2,4 2,-1 1,0 2,-2l0 -2zm12 -118c0,0 0,0 0,0l0 0zm89 7c0,0 0,0 0,0l0 0zm-88 -7c5,-5 13,-10 20,-11 14,-3 17,-1 32,3 4,1 14,1 18,1 7,0 25,5 25,14 0,8 0,13 -10,13 0,-4 2,-8 3,-12 -5,3 -2,10 -6,10 -1,0 -5,-2 -6,-2 -6,-5 0,-14 11,-10 0,0 2,1 2,1 1,0 1,1 3,0 -1,-2 -1,-1 -4,-2 -4,-2 -10,-2 -13,1 -4,3 -3,6 -2,10 -4,0 -3,-1 -8,0 -5,1 -4,-1 -6,3 1,5 5,5 11,5 9,0 19,1 28,2 12,2 11,16 -1,16 0,-11 5,-12 -1,-13 -2,0 -6,0 -7,0 -3,1 -6,11 7,11l0 1c-4,0 -7,-1 -10,-2 -5,-1 -25,-5 -26,4 5,2 15,3 21,2 5,-1 15,1 18,5 2,3 0,9 -5,9 1,-1 3,-6 3,-8 0,-2 -6,-1 -9,-1 0,3 -3,4 -2,7 1,4 3,3 7,3l0 1c-12,0 -22,-3 -30,-3 0,4 2,3 7,3 4,0 5,1 9,1 5,0 14,-1 14,5 0,12 -30,-1 -33,4 -1,3 3,1 5,1 7,0 11,2 16,2 -2,2 -1,1 -5,1 -1,2 -1,2 -1,5 -9,0 -15,1 -23,-1 -7,-2 -14,-2 -17,-2 -3,-1 -4,-3 -7,-5 -10,-5 -22,-6 -33,-3 -2,0 -4,1 -5,2 -3,1 -5,4 -2,3l2 -2c8,-5 22,-4 30,-1 8,3 13,9 19,16 4,5 6,9 8,16 4,19 5,19 2,41 -3,18 -13,44 -26,56l-8 7c-2,1 -2,1 -3,2 -2,1 -5,3 -7,4l-25 7 11 -21c9,-20 4,-28 5,-37 0,-2 0,-4 -1,-6 0,3 -1,3 -1,6 0,2 0,5 0,7 0,19 -6,33 -19,47 -5,6 -6,9 -16,11 0,-3 -1,-3 -2,-7 -2,-13 0,-34 5,-45 5,-10 12,-17 14,-29 2,-9 6,-16 8,-21 -5,4 -9,18 -10,24 -2,7 -6,11 -9,17 -1,2 -1,3 -3,5 0,-3 1,-11 2,-13l9 -33c3,-11 9,-35 11,-47l5 -36c0,-3 1,-8 2,-12 2,-13 0,-38 19,-38 -3,4 -8,6 -8,10zm87 64l0 3 -3 0 0 -3 3 0zm-327 137c0,0 0,0 0,0l-14 -42c-4,-15 -2,-16 -2,-30 0,-5 0,-7 1,-11 1,-4 0,-6 1,-10 0,-6 0,-16 1,-21 2,-14 6,-26 6,-38l29 17c0,3 0,4 0,7 3,13 0,30 -4,42l-9 26c-3,9 -5,18 -7,28 -2,10 -2,20 -2,33zm-35 9c-1,-6 -7,-4 -15,-4 -5,0 -18,-5 -21,-8 -2,-1 -3,-1 -5,-3l-8 -6c-14,-10 -8,-5 -22,-17l-6 -5c-5,-6 -2,-2 -7,-7 -19,-18 -48,-6 -59,-12 -3,-1 -3,-7 -3,-10l-4 -22c3,0 4,2 6,3 7,5 27,14 36,18 15,7 48,15 65,15 10,0 20,0 28,6 10,7 19,11 27,18 4,3 11,5 13,13l5 13c1,4 4,7 4,13 -3,-1 -7,-1 -11,-2 -7,-1 -3,-5 -12,-3 -3,-2 0,-1 -3,-2 -3,-1 -7,1 -10,1zm132 -88c1,-9 21,-4 36,-4 0,3 1,3 -2,4 -2,1 -9,1 -12,1 -3,0 -8,-4 -17,-2 -3,1 -2,1 -5,1zm42 -2c6,0 5,-2 10,-1 2,0 3,0 5,1 11,3 4,1 15,2 7,1 7,1 8,4l-11 -1c-7,-1 -18,-4 -19,-3 -3,0 -6,1 -9,2l0 -4zm38 10c-3,-1 -5,-1 -10,-2 -5,-1 -4,1 -9,0 -5,-1 -8,-2 -14,-1 -5,1 -5,3 -5,0 0,-2 3,-3 5,-3l7 0c1,0 1,0 2,0 9,1 9,2 24,2l0 4zm-25 5c-4,0 -7,1 -11,1 0,-3 0,-3 3,-4 7,-2 13,1 19,1 5,0 9,0 13,1l0 -1c-10,-2 -7,0 -23,-2 -2,0 -4,0 -6,0 -4,1 -3,1 -6,2 0,-3 0,-2 2,-3 4,-2 16,1 19,1 3,0 6,0 8,0 4,0 4,1 7,1l-1 7c-4,-2 -7,-1 -12,-2 -4,0 -8,-1 -12,-1zm-142 19c0,-3 4,-13 5,-17 5,-14 13,-35 13,-50 5,4 0,6 6,13 3,4 1,6 2,13 1,4 2,3 3,7 4,11 -1,22 -2,28 -1,4 0,6 -3,8 0,-1 -2,-11 -2,-12 -2,1 -4,5 -5,8 -4,-1 -3,-4 -6,-4 -6,0 -7,4 -12,5zm148 19c1,-2 8,-11 -2,-16 3,-4 8,-6 7,-19 6,0 10,0 15,1 0,5 -5,27 -5,36 -5,-1 -9,-1 -15,-1zm-439 29c-3,1 -1,-1 -2,2 2,0 1,0 2,-2zm-14 7c4,-2 9,-1 12,-4 -8,0 -12,3 -18,4 -7,2 -13,0 -13,-6 0,-12 12,-5 24,-8 8,-2 5,-1 7,-3 -5,0 -9,2 -13,2 -6,0 -9,0 -14,1 -11,2 -13,-7 -11,-11 1,-2 0,-1 1,-2 7,0 12,-2 19,-2 5,0 17,0 19,-2 -9,0 -18,0 -26,1 -11,2 -10,0 -17,-1 0,-6 -1,-6 2,-11 4,-7 14,-6 22,-6 6,0 26,9 28,-2 -4,-4 -6,-4 -13,-3 -8,1 -30,9 -30,-12 0,-4 2,-8 5,-10l7 -4c4,-2 7,-3 11,-3l38 2c3,0 6,1 9,2 2,1 2,1 4,2 11,4 28,18 48,19l3 20c2,25 5,21 -10,25 -21,6 -27,6 -46,9l-31 8c-3,1 -8,4 -11,4 -10,0 -6,0 -5,-6l-3 -3zm397 -65c2,0 2,0 4,-1 3,6 0,8 -1,12 -5,0 -4,-2 -3,-11zm42 4c0,-4 0,-1 1,-2 -1,-2 2,-1 -2,-1l0 -4c4,0 2,-1 7,-1 1,5 4,-2 6,6 1,4 -1,6 -5,6l0 -5c3,1 0,0 3,2 0,-3 0,-4 -2,-5 -7,5 -3,14 3,9l0 1c0,0 0,0 0,0 0,1 -2,0 0,0 2,1 3,-6 3,-7 0,-6 -3,-6 -5,-7l6 0c1,2 2,2 2,5 0,3 -1,9 -4,11 -1,1 -4,3 -5,3 -8,0 -8,-1 -8,-9zm173 9c3,0 0,0 2,1 -1,3 -1,2 -3,4 -1,1 -2,3 -3,5 4,-3 3,-2 10,-2 -2,8 2,5 8,9 2,1 2,4 11,4 -1,2 -2,3 -3,5 5,0 1,-1 10,-6 -1,3 -5,6 -2,6 3,0 -1,-2 10,-2 -1,2 0,1 -1,2 -4,4 -6,1 -7,5 12,0 8,5 22,5 -1,6 -5,5 -6,10 5,0 6,-4 11,-5 1,10 17,13 25,15 -1,3 -4,6 -6,7 -3,2 -4,2 -7,3l-3 1c5,0 5,0 8,2 -1,3 -2,4 -2,8 2,-3 1,-3 5,-4 0,4 0,17 1,20 1,3 2,3 1,5 -1,7 -2,1 1,11 1,2 1,4 2,6 4,13 -3,13 -4,23 0,3 -1,4 -1,7 -3,11 -9,15 -9,21l-5 -22c-1,-4 -3,-6 -4,-9 -3,-7 -6,-11 -1,-18 -3,0 -2,0 -5,-1 1,-2 1,-2 2,-4 -2,0 -5,1 -8,1 0,-4 1,-1 2,-5 -2,1 -3,1 -5,1 0,-2 1,-4 2,-5 -2,0 -2,0 -4,0l-4 2c-1,-1 -1,-1 -2,-3 -2,1 -2,1 -4,1 0,-10 -4,-16 -13,-20 -8,-4 -17,2 -24,-10 -2,-4 -3,-8 -7,-11l-10 -5c-6,-2 -15,-1 -20,2 -1,0 -3,2 -3,2 -2,1 -1,2 -2,-1 -4,0 -2,1 -5,2 -6,-4 3,1 -5,-2 0,0 0,0 0,0 -4,-2 3,2 -1,-1 0,0 0,0 0,0 -4,-3 -7,-1 -9,-6l9 -5c3,-2 6,-4 8,-6 15,-19 11,-14 21,-36 1,-3 3,-6 4,-10 1,-4 2,-8 3,-12 7,0 21,5 23,7 -2,3 -5,2 -7,5 -2,3 3,0 6,0zm-302 0c0,-5 6,-8 12,-1 2,2 1,1 2,3 1,2 0,0 1,1 1,1 0,0 1,1 0,0 1,4 1,4 0,2 0,0 -1,3 -1,1 -1,1 0,2 1,2 0,0 1,0 0,0 0,0 0,0l1 -1c0,3 -1,4 -2,6 -1,2 -1,4 -3,5 -2,-8 3,-6 -2,-7 -2,-1 0,0 -4,4 -2,1 -4,3 -7,3 -4,0 -2,-2 -3,-3 0,-4 -1,-2 -3,-5 -2,-2 -2,-5 -2,-9 0,-7 1,-9 7,-10zm-1 13c0,-4 1,-6 2,-10 -5,6 -8,16 1,18 3,1 6,-2 9,-3 0,0 0,0 0,0 -1,-2 -1,-2 0,-3 1,-2 2,-2 2,-4 0,-11 -3,-8 -4,-13l-2 0c-2,6 -4,0 -4,13 2,0 2,1 5,1 0,3 1,2 1,5 -1,3 -8,3 -8,-4zm-65 -15c6,0 12,-2 17,-3 3,0 5,-1 8,-2 3,-1 5,-2 7,-3l9 36c-2,-1 -3,-3 -5,-4l-36 -24zm-86 29c-4,0 -8,0 -12,0 -7,0 -17,4 -22,4 -1,-5 -2,-11 -3,-16 -2,-16 -5,-19 3,-18l17 1c9,0 19,-1 26,3 4,2 17,13 20,17 3,3 8,6 9,9 -6,-3 -10,-1 -14,-1 -8,0 -10,-1 -20,0 -2,0 -2,0 -4,0zm239 -41c0,-3 0,-2 3,-3 5,-2 10,-3 10,5 0,10 -7,13 -7,13 0,0 0,0 -1,0l2 -4c-1,-1 0,0 -1,0 -3,0 -1,1 -2,-1l3 -3c3,-5 0,-7 -1,-9 -3,0 -4,0 -7,1zm-394 18c2,-2 0,-1 3,-2 8,-2 8,0 14,0l0 2c-4,1 -2,0 -7,1 -13,1 -2,-1 -11,-1zm311 6c0,-5 0,-7 2,-10 3,2 3,3 3,7l-2 0c0,-4 0,-2 -2,-3l0 6 -2 0zm139 -6c1,3 1,4 0,8 -1,2 -4,6 -5,4 0,-1 0,0 1,-3 -2,1 -2,1 -5,1 -7,-13 8,-10 9,-10zm-68 7c1,-1 0,0 1,-2l3 -10 2 3c1,2 0,1 3,2 -1,2 0,1 -4,4 -5,3 -3,5 -5,3zm1 6c0,-7 7,-6 8,-12 3,0 2,0 4,2l3 2c8,4 3,15 -2,16 1,-4 0,1 2,-2 1,-2 1,0 1,-3 -2,1 -2,2 -5,3 -10,1 -3,-10 -3,-11 -3,2 -5,4 -5,8 0,4 2,3 6,5l1 1c-4,0 -6,-1 -8,-2 -2,-2 -3,-3 -3,-7zm52 7c1,-3 1,-2 5,-3l19 -2c4,0 5,0 5,4 -8,0 -2,-3 -15,0 -4,1 -1,0 -5,0 -4,0 -5,1 -9,1zm-57 2c0,-3 1,-4 2,-7 3,2 -1,0 4,6 -3,0 -2,0 -5,1zm85 2c-1,-1 -5,-2 -7,-2l-16 2c0,0 -2,1 -3,1 -2,0 -2,0 -2,-2 1,-5 12,-3 13,-4 13,-2 4,0 15,0l0 4zm-142 16c-3,0 -9,-2 -12,-3 -5,-2 0,-1 -10,-4 -5,-2 -4,-5 -4,-8 1,-5 0,-9 3,-11l3 6c4,7 12,1 15,0 0,5 2,3 2,9 5,-1 2,-6 6,-9l-3 20zm115 -1c1,-7 15,-5 15,-5 4,0 4,-1 9,0 3,1 2,0 4,2 -2,1 -5,-1 -14,0 -14,2 -7,1 -14,3zm-328 -2c0,-3 0,-6 0,-9 0,1 0,0 1,1 0,0 0,0 0,0 3,5 7,21 3,28 -5,-1 -4,-8 -4,-14 0,-4 0,-4 -1,-7zm197 13c-2,-3 -2,-3 -8,-3 0,-5 -5,-6 12,0 3,1 8,2 12,2l0 4c-4,-1 1,-1 -6,-1 -6,-1 -1,-4 -10,-1zm131 -2c2,-3 5,-4 10,-4 10,0 10,-3 19,-1l0 7c-2,0 -3,-1 -5,-1 -7,0 -9,2 -14,1 -10,0 -5,1 -11,2 1,-3 1,-3 4,-4 2,-1 4,-1 6,-1 14,0 6,-2 19,0 -3,-4 -8,-3 -13,-2 -3,0 -5,0 -8,0 -2,0 -4,1 -6,2zm-128 7c-3,0 -6,3 -8,-6 4,0 4,1 6,4 2,-1 2,-2 5,-2 2,1 2,2 3,4 4,-1 8,-5 8,6 0,4 -5,3 -7,-3 -4,0 -6,3 -6,-2zm-192 10c2,-10 6,-8 12,-9 4,-1 1,-1 4,-2 0,5 -2,3 -8,6 -4,2 -4,5 -8,6zm185 -7c3,0 2,-1 5,-1 1,3 0,2 3,2 4,1 1,-1 4,2 2,2 0,1 3,2 1,0 3,1 5,1 0,8 -2,6 0,18 0,3 0,6 1,9 0,2 2,6 2,8 0,2 -1,6 -1,10l-2 0c0,-3 -1,-4 -2,-6 -5,-10 -4,-8 -9,-18 -2,-4 -3,-9 -5,-13 -2,-5 -2,-9 -5,-13zm-190 4c0,-2 2,-1 4,-1 -1,2 -1,2 -2,4l-2 0c-1,-2 -1,-1 -1,-3zm77 74c0,0 0,0 0,0l0 0c0,0 0,0 0,0zm154 23c-2,1 -3,1 -6,1 2,4 -2,-3 1,1 0,0 1,1 1,1l-3 4c-1,1 1,1 -3,0l0 1c4,1 4,2 6,4l-8 -1c-5,0 1,3 -7,3 1,4 4,3 -1,4 0,2 0,3 1,4 -5,0 -2,1 -5,3l-3 2c0,0 -1,1 -1,1l-6 4c0,0 0,0 0,0 -4,2 -11,6 -15,6l-21 5c-6,1 -12,0 -18,-1 -3,0 -6,-2 -9,-3 0,0 0,0 -1,0 -2,-1 -3,0 -5,-1 -6,-1 -3,-5 -11,-5 2,-3 1,0 2,-3 -3,0 -2,0 -5,1 0,-4 2,-4 -1,-5 -1,0 -4,1 -6,1 1,-2 1,-3 2,-4 -2,0 -3,0 -5,1 1,-3 1,-1 0,-2l-3 -3c-2,-1 -1,2 -2,-2 -4,0 -5,2 -10,2 4,-6 5,-2 7,-11 -2,0 -3,0 -5,1 1,-3 1,-2 2,-5 -4,1 -4,3 -8,3 2,-3 4,-2 5,-6l-3 0c0,-8 -4,3 -2,-5 -2,0 -5,1 -6,1l2 -5 -4 0c2,-2 2,-2 3,-5 -3,0 -2,0 -4,1 -1,-1 -1,1 0,-2 -3,1 -2,1 -5,1 0,-4 -1,-2 -4,-1 1,-3 4,-2 6,-6 -5,0 -2,0 -3,-1 2,-1 2,-1 3,-4 -2,1 -4,1 -7,1l1 -3c-2,0 -4,1 -5,1 1,-3 2,-4 3,-6l-3 0c1,-2 3,-3 4,-6 3,-4 1,-4 5,-5l0 -2c-4,2 -11,1 -17,1 1,-4 3,-3 5,-6 -2,-1 -2,-1 -5,-1 2,-3 1,0 4,-3 -4,-1 -4,0 -5,-3 4,0 1,1 3,-1l-3 -3c3,-2 1,-1 4,-2 -3,-4 -12,-2 -15,-5 4,-1 2,-2 2,-4 3,-1 2,0 3,-3 -5,0 -4,0 -9,0 -6,0 -8,2 -14,2 -5,0 -3,-2 -9,-1 1,-2 2,-4 2,-7 -2,1 -4,5 -7,5 0,-12 -10,-14 -20,-14 1,-3 1,-1 2,-4l-6 0c3,-2 6,-4 10,-4l-14 -4c-4,-1 -10,-3 -15,-3 -4,0 -9,1 -15,0 -7,-1 -18,-5 -25,0 -1,1 -1,1 -3,2 -5,3 -11,6 -16,6 -3,0 -2,-1 -4,1 0,-3 1,-2 2,-5 -3,1 -6,3 -8,5 -8,9 -8,5 -14,4 -4,0 -2,0 -5,-3l0 3c-2,-1 -2,-1 -2,-4 -2,2 -1,1 -3,3 -1,1 -3,2 -4,2 -5,0 1,-4 -5,-2 0,-9 -7,-7 -11,-7l0 -10c-7,5 -10,13 -12,15l0 -6c-3,1 -2,1 -3,3 -1,2 -2,4 -2,5 -1,-1 -1,-1 -2,-3l-2 0c-1,5 -5,7 -5,12l-2 -6c-4,3 -6,14 -13,18 0,-13 3,-9 5,-18 -2,1 -2,1 -4,2 -15,17 -16,2 -16,28 -3,-2 -2,-9 -6,-11l-2 22c0,1 -1,4 -1,6 -1,2 -1,3 -1,5 0,3 0,8 -3,11 0,-3 0,-7 -1,-9 -1,-3 -2,-6 -3,-8 -3,2 -1,2 -2,6 0,2 -1,4 -2,6 -1,3 -1,11 -3,13 0,-3 -1,-7 -1,-9 -1,-4 0,-6 -3,-8 0,3 -2,7 -2,10l-2 0c1,-4 0,-7 0,-11l-2 0c0,3 -1,6 -3,8 0,-6 -1,-10 -2,-16 -4,3 -2,7 -4,10 0,1 0,1 -1,1 0,-4 1,-10 -1,-13 -3,2 -1,3 -4,5 0,-4 2,-9 2,-15 -3,1 -3,2 -5,4l0 -8c-3,2 -4,7 -5,10 -2,-1 1,-3 1,-10 0,-3 1,-5 2,-8 -2,1 -1,0 -2,1 -2,2 -2,7 -5,9 0,-4 1,-9 3,-13 1,-2 1,-1 2,-4 -2,1 -5,3 -6,6 -2,3 -1,5 -4,7 1,-7 6,-13 8,-20 -2,1 -1,1 -4,2 -7,4 -5,9 -10,10 0,-5 6,-10 6,-15 -6,3 -17,11 -25,11 1,-3 5,-6 7,-8 10,-9 12,-5 22,-11 3,-2 7,-5 8,-9 -3,2 -2,3 -4,4 -2,2 -4,1 -7,3 1,-7 7,-9 12,-13 2,-2 3,-3 3,-6l-8 4c2,-8 18,-6 18,-16 -6,0 -3,3 -10,3 1,-5 14,-5 19,-8 5,-2 11,-10 12,-15 -3,1 -2,1 -4,3 -1,1 -3,2 -5,3 0,-5 3,-9 6,-13 4,-5 11,-8 14,-14 6,-10 3,-5 11,-12l3 -2c1,2 2,4 4,6 6,10 16,20 27,25 7,3 9,2 19,2 1,5 2,2 4,5 -4,16 4,11 6,17 1,4 0,9 6,12l5 3c2,2 3,2 5,3 4,2 7,3 12,2l13 -3c4,-2 7,-2 12,-4 5,-1 8,-2 13,-3l19 -3c2,0 4,-1 7,-1 8,-1 17,-4 25,-6 12,-3 14,-7 14,0 0,10 0,12 2,21 2,6 4,7 4,11l2 0c1,-5 6,-7 10,-9 7,-4 13,-4 9,-14 -1,-3 -1,-4 -4,-4 -5,0 -4,3 -5,-4 -2,-10 -8,-15 31,-15 14,0 25,-1 38,0 6,1 8,3 13,6 4,3 8,5 12,7 3,1 4,2 7,3 2,1 4,2 7,3 26,9 19,-3 26,4 1,1 1,1 3,2 3,-1 2,-1 5,-2l4 4c3,-1 3,-2 6,0 2,1 3,2 6,3 3,0 5,0 7,0 4,0 4,1 8,1 1,1 1,2 2,4l5 13c2,5 3,12 6,17l8 16 12 13c-1,-3 -2,-3 -3,-6 -1,-3 1,-5 1,-9 5,3 7,15 13,17 0,-4 -2,-9 -2,-13l5 8c2,4 1,6 5,8 0,-5 -1,-3 -2,-7 -1,-3 -1,-6 -1,-10 5,3 9,12 11,18 -4,0 -4,1 -7,0 1,2 3,3 5,3l-4 1c0,2 1,2 1,3 -3,1 -3,1 -6,1 1,2 3,3 5,4l-3 1c1,3 0,2 3,3 -1,2 -1,3 -4,4 -5,2 -2,0 -1,4 -2,0 -2,-1 -5,-1 0,2 1,2 2,4 -3,0 -2,0 -4,1 1,3 1,2 0,5 3,0 2,-1 4,0z"/>
    </g>
   </g>
  </g>
  <path class="fil8" d="M1359 142c672,0 1217,545 1217,1217 0,672 -545,1217 -1217,1217 -672,0 -1217,-545 -1217,-1217 0,-672 545,-1217 1217,-1217z"/>
 </g>
</svg>
