<?xml version="1.0" encoding="UTF-8"?>
<!DOCTYPE svg PUBLIC "-//W3C//DTD SVG 1.1//EN" "http://www.w3.org/Graphics/SVG/1.1/DTD/svg11.dtd">
<!-- Creator: CorelDRAW X6 -->
<svg xmlns="http://www.w3.org/2000/svg" xml:space="preserve" width="5.85006in" height="0.803362in" version="1.1" style="shape-rendering:geometricPrecision; text-rendering:geometricPrecision; image-rendering:optimizeQuality; fill-rule:evenodd; clip-rule:evenodd"
viewBox="0 0 5850 803"
 xmlns:xlink="http://www.w3.org/1999/xlink">
 <defs>
  <style type="text/css">
   <![CDATA[
    .fil0 {fill:black;fill-rule:nonzero}
    .fil1 {fill:#DC5800;fill-rule:nonzero}
   ]]>
  </style>
 </defs>
 <g id="Layer_x0020_1">
  <metadata id="CorelCorpID_0Corel-Layer"/>
  <g id="_405085136">
   <path class="fil0" d="M3661 342l-116 0c-8,10 -15,19 -24,27 -8,8 -17,14 -27,19 -10,5 -20,8 -31,11 -11,3 -25,5 -43,7l24 83c-2,5 -1,9 5,11 3,3 6,4 9,3l128 0 0 61 -157 0c-4,0 -9,-2 -18,-5 -8,-3 -15,-7 -20,-12 -9,-7 -14,-17 -17,-30l-34 -111 -49 0 0 -65 140 0c12,0 24,-6 36,-19 12,-13 18,-28 18,-45 0,-16 -4,-29 -12,-41 -8,-11 -18,-17 -31,-17l-123 0 0 -61 141 0c34,0 60,14 79,43 6,8 11,18 14,29 3,11 6,25 9,41l98 2 0 -116 68 0 0 404 -68 0 0 -222zm499 222l-216 0c-13,0 -24,-4 -34,-11 -5,-4 -9,-9 -12,-15 -3,-6 -5,-13 -8,-21l-27 -106 -63 0 0 -73 189 0c19,0 35,-3 48,-8 21,-9 32,-23 32,-43 0,-20 -8,-35 -23,-44 -15,-9 -34,-14 -57,-14l-171 0 0 -70 204 0c35,0 65,12 90,37 25,25 38,54 38,89 0,48 -24,82 -72,103 -35,15 -77,23 -127,23l14 74c4,0 6,1 7,3l187 0 0 75zm393 -216l-50 10c45,35 68,67 68,95 0,39 -17,69 -51,89 -31,18 -74,27 -128,27 -37,0 -74,-9 -111,-27 -28,-14 -53,-30 -75,-50l68 -55c11,19 28,35 50,49 22,14 45,21 69,21 28,0 50,-3 65,-8 27,-9 41,-26 41,-49 0,-18 -12,-35 -37,-51 -15,-9 -33,-18 -54,-25l-162 35 -11 -72 88 -10c-46,-36 -69,-64 -69,-84 0,-32 15,-56 44,-72 25,-14 56,-20 93,-20 20,0 41,2 64,6 22,4 45,9 67,15l-7 66c-22,-9 -38,-15 -49,-18 -16,-5 -30,-7 -42,-7l-17 0c-28,0 -48,3 -58,10 -10,7 -15,17 -15,31 0,14 11,27 34,39 23,12 36,17 38,15l156 -36 9 41c10,-9 21,-13 35,-13l67 4 16 0c19,0 33,-2 41,-5 13,-6 19,-17 19,-34 0,-17 -7,-29 -20,-35 -13,-6 -30,-9 -51,-9l-99 0 0 -61 141 0c29,0 54,11 75,32 20,22 31,47 31,77 0,31 -11,55 -34,73 -23,18 -50,27 -82,27 -10,0 -20,-1 -30,-4 -10,-3 -20,-6 -31,-10 -6,0 -10,4 -10,13 0,22 10,40 31,53 21,14 45,21 72,21 31,0 58,-6 82,-18 21,-10 42,-25 63,-45l0 -222 68 0 0 404 -68 0 0 -96c-26,12 -51,21 -74,28 -27,7 -50,11 -70,11 -50,0 -93,-13 -127,-39 -39,-29 -59,-69 -59,-118l0 -2zm450 336c0,41 -15,71 -44,92 -27,19 -62,28 -108,28 -70,0 -129,-18 -179,-53 -30,-21 -57,-50 -80,-85l72 -31c11,28 29,52 54,71 35,26 80,39 135,39 23,0 42,-5 58,-16 16,-11 23,-25 23,-42 0,-18 -6,-30 -19,-36 -13,-6 -30,-8 -51,-8 -15,0 -30,2 -45,7 -9,3 -20,8 -34,14l-56 -48c31,-14 57,-24 80,-29 22,-5 44,-8 66,-8 36,0 66,9 91,27 25,18 38,44 38,77zm348 -295l-156 0 0 -67 156 -1 0 -160 68 0 0 404 -68 0 0 -176zm-51 156c-24,5 -38,9 -45,10 -6,1 -15,2 -28,2 -51,0 -96,-18 -135,-55 -43,-39 -65,-88 -65,-146 0,-58 18,-105 55,-142 37,-37 82,-56 137,-56 20,0 35,1 46,4 10,2 22,6 35,12l0 57c-8,0 -18,-1 -29,-3 -11,-2 -18,-3 -21,-3 -41,0 -75,11 -102,33 -30,24 -45,57 -45,99 0,42 15,75 46,100 28,22 62,33 103,33 7,0 14,-1 22,-4 16,-6 24,-9 26,-10l0 71zm550 20l-216 0c-13,0 -24,-4 -34,-11 -5,-4 -9,-9 -12,-15 -3,-6 -5,-13 -8,-21l-27 -106 -63 0 0 -73 189 0c19,0 35,-3 48,-8 21,-9 32,-23 32,-43 0,-20 -8,-35 -23,-44 -15,-9 -34,-14 -57,-14l-171 0 0 -70 204 0c35,0 65,12 90,37 25,25 38,54 38,89 0,48 -24,82 -72,103 -35,15 -77,23 -127,23l14 74c4,0 6,1 7,3l187 0 0 75z"/>
   <path class="fil1" d="M2817 64l43 0 0 213 -176 0 0 -213c-2,-31 -40,-52 -69,-53l-197 0 0 53 128 0 0 213 -31 0c-47,0 -88,14 -121,43 -33,29 -50,64 -50,105 0,38 17,71 50,98 33,27 74,40 121,40 47,0 87,-13 120,-40 33,-27 50,-60 50,-98l0 -96 176 0 0 160c0,12 -5,22 -15,30 -10,8 -23,12 -38,12l0 32 245 0 0 -32c-15,0 -28,-4 -38,-12 -10,-8 -15,-18 -15,-30l0 -425 50 0 0 -53 -232 0 0 53zm-2580 541l71 0c32,-4 166,-9 166,-119l-155 0c-5,59 -76,89 -128,38 -26,-26 -36,-62 -36,-99 0,-33 13,-61 38,-84 25,-22 56,-33 92,-33l72 0 0 -59 -72 0c-26,0 -48,-9 -67,-28 -19,-19 -28,-41 -28,-68 0,-24 10,-44 31,-60 20,-16 46,-24 77,-24 20,0 44,8 71,25l22 -47c-41,-24 -92,-36 -153,-36 -56,0 -103,14 -142,42 -39,28 -59,61 -59,100 0,30 11,56 33,77 22,22 50,36 86,41 -44,6 -80,25 -110,54 -30,30 -45,63 -45,99 0,49 23,92 69,127 46,35 102,53 168,53zm475 -573c27,0 49,13 68,39 19,26 28,58 28,96 0,36 -9,65 -27,89 -18,24 -41,36 -68,36 -22,0 -42,-12 -59,-36 -17,-24 -25,-54 -25,-89 0,-37 8,-69 25,-95 17,-27 36,-40 59,-40zm-228 397c12,3 27,15 45,36 18,21 40,51 65,90 13,17 33,30 61,40 28,10 62,15 100,15 24,0 50,-5 77,-16 27,-10 55,-26 85,-46l-17 -31c-41,26 -73,39 -96,39 -23,0 -48,-10 -74,-31 -26,-21 -52,-49 -76,-85 12,10 25,18 39,24 14,6 28,9 42,9 57,0 106,-21 147,-64 41,-43 61,-95 61,-156 0,-71 -22,-130 -66,-178 -44,-48 -98,-72 -163,-72 -61,0 -112,16 -154,48 -42,32 -63,72 -63,118 0,46 21,86 63,118 42,33 93,49 154,49 24,0 49,-7 74,-22 0,29 -8,53 -25,74 -16,21 -36,31 -60,31 -22,0 -41,-7 -59,-20l-157 0 -4 31zm524 -365l43 0 0 425c0,12 -5,22 -15,30 -10,8 -23,12 -38,12l0 32 245 0 0 -32c-15,0 -28,-4 -38,-12 -10,-8 -15,-18 -15,-30l0 -425 50 0 0 -53 -232 0 0 53zm805 176c-31,-21 -74,-38 -130,-51 -62,-14 -120,-21 -175,-21 -9,0 -18,0 -26,0 -7,1 -12,2 -15,2 -57,5 -104,25 -143,60 -39,35 -58,79 -58,132 0,50 20,92 59,128 39,36 87,53 143,53 56,0 104,-18 143,-53 39,-35 59,-78 59,-128 0,-28 -7,-54 -21,-78 -14,-24 -34,-43 -59,-56 31,0 61,3 89,8 44,9 90,24 135,47l0 207c0,12 -5,22 -15,30 -10,8 -23,12 -38,12l0 32 245 0 0 -32c-15,0 -28,-4 -38,-12 -10,-8 -15,-18 -15,-30l0 -425 50 0 0 -53 -232 0 0 53 43 0 0 176zm-347 -27c23,0 43,13 60,40 17,27 25,60 25,98 0,40 -8,75 -25,104 -17,30 -37,45 -60,45 -24,0 -44,-14 -61,-43 -17,-29 -25,-64 -25,-105 0,-38 8,-70 25,-97 17,-27 37,-41 61,-41zm597 -149l43 0 0 425c0,12 -5,22 -15,30 -10,8 -23,12 -38,12l0 32 245 0 0 -32c-15,0 -28,-4 -38,-12 -10,-8 -15,-18 -15,-30l0 -425 50 0 0 -53 -232 0 0 53zm453 265l31 0 0 96c0,27 -3,50 -8,69 -6,19 -13,28 -23,28 -9,0 -17,-9 -23,-28 -6,-19 -9,-41 -9,-69 0,-27 3,-50 9,-69 6,-19 14,-28 23,-28z"/>
  </g>
 </g>
</svg>
