<?xml version="1.0" encoding="UTF-8"?>
<!DOCTYPE svg PUBLIC "-//W3C//DTD SVG 1.1//EN" "http://www.w3.org/Graphics/SVG/1.1/DTD/svg11.dtd">
<!-- Creator: CorelDRAW X6 -->
<svg xmlns="http://www.w3.org/2000/svg" xml:space="preserve" width="3.34863in" height="0.391224in" version="1.1" style="shape-rendering:geometricPrecision; text-rendering:geometricPrecision; image-rendering:optimizeQuality; fill-rule:evenodd; clip-rule:evenodd"
viewBox="0 0 3349 391"
 xmlns:xlink="http://www.w3.org/1999/xlink">
 <defs>
  <style type="text/css">
   <![CDATA[
    .fil0 {fill:black}
    .fil2 {fill:black;fill-rule:nonzero}
    .fil1 {fill:#DC5800;fill-rule:nonzero}
   ]]>
  </style>
 </defs>
 <g id="Layer_x0020_1">
  <metadata id="CorelCorpID_0Corel-Layer"/>
  <g id="_468941848">
   <path class="fil0" d="M1742 58l6 0 0 -19 -6 0 0 19zm-81 111l0 -111c-1,-13 -11,-22 -23,-28 1,3 2,5 2,8l0 130 21 0zm-163 -130l0 19 58 0 0 -19 -58 0zm-29 285c4,5 9,10 15,15 20,16 45,25 74,25 29,0 53,-8 73,-25 20,-16 30,-36 30,-60l0 -59 87 0 0 -19 -108 0 0 59c0,23 -10,43 -30,60 -20,16 -45,25 -73,25 -26,0 -49,-7 -68,-20zm267 20l0 19 150 0 0 -20c-8,0 -15,-2 -21,-5l0 6 -129 0zm118 -21c0,-2 -1,-3 -1,-5l0 -260 30 0 0 -33 -21 0 0 13 -30 0 0 260c0,7 3,13 9,18 3,3 8,5 12,6zm-1688 65l43 0c20,-2 101,-6 101,-72l-23 0c-14,48 -81,51 -99,53l-43 0c-40,0 -74,-11 -102,-32 6,6 12,13 20,18 28,22 62,32 103,32zm-36 -59c-10,-15 -15,-33 -15,-51 0,-20 8,-37 23,-51 15,-14 34,-20 56,-20l44 0 0 -36 -21 0 0 17 -44 0c-22,0 -41,7 -56,20 -15,14 -23,31 -23,51 0,23 7,45 22,60 4,4 9,7 13,10zm16 -185c-6,-9 -10,-20 -10,-33 0,-15 6,-27 19,-37 12,-10 28,-14 47,-14 13,0 27,5 43,15l14 -29c-8,-4 -16,-8 -24,-11l-10 21c-16,-10 -31,-15 -43,-15 -19,0 -34,5 -47,14 -12,10 -19,22 -19,37 0,16 6,30 17,42 4,4 9,7 13,10zm-90 6c2,3 5,6 7,8 4,4 8,7 12,10 6,-2 13,-3 19,-4 -15,-2 -28,-7 -39,-14zm400 -113c7,0 14,2 21,5l0 0c-10,-14 -21,-21 -34,-23 -8,1 -15,2 -22,3 -8,4 -14,11 -21,21 -10,16 -15,36 -15,58 0,21 5,39 15,54 6,9 13,15 20,19 -10,-15 -15,-32 -15,-53 0,-23 5,-42 15,-58 10,-16 22,-24 36,-24zm-140 243c2,0 4,1 6,3 -2,-2 -4,-4 -6,-6l-1 4zm65 73l2 3c8,10 20,18 37,24 17,6 38,9 61,9 15,0 31,-3 47,-10 16,-6 34,-16 52,-28l-10 -19c-20,13 -37,20 -50,23 -4,2 -8,4 -13,5 -16,6 -32,10 -47,10 -23,0 -44,-3 -61,-9 -7,-2 -13,-5 -19,-9zm66 -34c-9,-10 -18,-21 -26,-33 7,6 15,11 24,14 9,4 17,5 26,5 35,0 65,-13 90,-39 25,-26 37,-58 37,-95 0,-43 -13,-79 -40,-109 -6,-7 -13,-13 -20,-18 26,29 39,65 39,108 0,37 -12,69 -37,95 -25,26 -55,39 -90,39 -9,0 -17,-2 -26,-5 -9,-4 -17,-8 -24,-14 15,22 30,40 46,52l0 0zm-102 -144c5,6 11,12 18,17 26,20 57,30 94,30 6,0 12,-1 19,-2 4,-9 6,-19 6,-30 -15,9 -31,13 -45,13 -36,0 -66,-9 -91,-28zm291 -118l6 0 0 -19 -6 0 0 19zm-6 286l0 19 150 0 0 -20c-8,0 -15,-2 -21,-5l0 6 -129 0zm118 -21c0,-2 -1,-3 -1,-5l0 -260 30 0 0 -33 -21 0 0 13 -30 0 0 260c0,7 3,13 9,18 3,3 8,5 12,6zm71 -16c3,4 7,7 11,11 24,22 53,33 87,33 34,0 63,-11 87,-32 24,-22 36,-48 36,-78 0,-17 -4,-33 -13,-48 -7,-12 -16,-22 -28,-29 2,3 5,6 7,10 9,15 13,31 13,48 0,31 -12,57 -36,78 -24,22 -53,32 -87,32 -29,0 -55,-8 -77,-24zm176 -149c18,0 34,2 50,5 20,4 41,10 62,19l0 -10c-28,-14 -55,-23 -83,-29 -17,-3 -35,-5 -54,-5 10,5 18,12 25,19zm100 186l0 19 150 0 0 -20c-8,0 -15,-2 -21,-5l0 6 -129 0zm118 -21c0,-2 -1,-3 -1,-5l0 -260 30 0 0 -33 -21 0 0 13 -30 0 0 260c0,7 3,13 9,18 3,3 8,5 12,6zm-112 -284l0 19 6 0 0 -19 -6 0zm-185 110c5,0 10,1 14,3 -10,-15 -22,-22 -35,-22 -15,0 -27,8 -37,25 -10,17 -15,36 -15,60 0,25 5,47 15,64 7,12 15,20 24,24 -1,-1 -2,-3 -3,-5 -10,-18 -15,-39 -15,-64 0,-23 5,-43 15,-60 10,-17 23,-25 37,-25zm365 -91l6 0 0 -19 -6 0 0 19zm-6 286l0 19 150 0 0 -20c-8,0 -15,-2 -21,-5l0 6 -129 0zm118 -21c0,-2 -1,-3 -1,-5l0 -260 30 0 0 -33 -21 0 0 13 -30 0 0 260c0,7 3,13 9,18 3,3 8,5 12,6zm150 -6c-3,-11 -5,-23 -5,-38 0,-17 2,-31 6,-42 3,-10 8,-16 13,-17l0 -19 -19 0c-6,0 -10,6 -14,17 -4,11 -6,25 -6,42 0,17 2,31 6,42 4,11 9,17 14,17 2,0 4,-1 5,-2z"/>
   <path class="fil1" d="M1722 39l27 0 0 130 -108 0 0 -130c-1,-19 -24,-32 -42,-33l-121 0 0 33 78 0 0 130 -19 0c-29,0 -54,9 -74,27 -20,18 -30,39 -30,64 0,23 10,43 30,60 20,16 45,25 74,25 29,0 53,-8 73,-25 20,-16 30,-36 30,-60l0 -59 108 0 0 98c0,7 -3,13 -9,18 -6,5 -14,7 -23,7l0 20 150 0 0 -20c-9,0 -17,-2 -23,-7 -6,-5 -9,-11 -9,-18l0 -260 30 0 0 -33 -141 0 0 33zm-1577 330l43 0c20,-2 101,-6 101,-72l-95 0c-3,36 -47,54 -78,23 -16,-16 -22,-38 -22,-60 0,-20 8,-37 23,-51 15,-14 34,-20 56,-20l44 0 0 -36 -44 0c-16,0 -30,-6 -41,-17 -11,-11 -17,-25 -17,-42 0,-15 6,-27 19,-37 12,-10 28,-14 47,-14 12,0 27,5 43,15l14 -29c-25,-15 -56,-22 -94,-22 -34,0 -63,9 -87,26 -24,17 -36,37 -36,61 0,18 7,34 20,47 13,13 31,22 52,25 -27,4 -49,15 -67,33 -18,18 -27,38 -27,60 0,30 14,56 42,78 28,22 62,32 103,32zm290 -350c16,0 30,8 41,24 11,16 17,36 17,59 0,22 -6,40 -17,54 -11,15 -25,22 -42,22 -14,0 -26,-7 -36,-22 -10,-15 -15,-33 -15,-54 0,-23 5,-42 15,-58 10,-16 22,-24 36,-24zm-140 243c7,2 16,9 27,22 11,13 24,31 40,55 8,10 20,18 37,24 17,6 38,9 61,9 15,0 31,-3 47,-10 16,-6 34,-16 52,-28l-10 -19c-25,16 -45,24 -59,24 -14,0 -29,-6 -45,-19 -16,-13 -31,-30 -46,-52 7,6 15,11 24,14 9,4 17,5 26,5 35,0 65,-13 90,-39 25,-26 37,-58 37,-95 0,-43 -13,-79 -40,-109 -27,-29 -60,-44 -100,-44 -37,0 -69,10 -94,29 -26,20 -38,44 -38,72 0,28 13,52 39,72 26,20 57,30 94,30 15,0 30,-4 45,-13 0,18 -5,33 -15,45 -10,13 -22,19 -37,19 -13,0 -25,-4 -36,-12l-96 0 -3 19zm320 -223l27 0 0 260c0,7 -3,13 -9,18 -6,5 -14,7 -23,7l0 20 150 0 0 -20c-9,0 -17,-2 -23,-7 -6,-5 -9,-11 -9,-18l0 -260 30 0 0 -33 -141 0 0 33zm492 107c-19,-13 -45,-23 -79,-31 -38,-9 -74,-13 -107,-13 -6,0 -11,0 -16,0 -4,1 -7,1 -9,1 -35,3 -64,15 -87,37 -24,22 -36,48 -36,80 0,30 12,56 36,78 24,22 53,33 87,33 34,0 63,-11 87,-32 24,-22 36,-48 36,-78 0,-17 -4,-33 -13,-48 -9,-15 -21,-26 -36,-34 19,0 37,2 54,5 27,5 55,15 83,29l0 126c0,7 -3,13 -9,18 -6,5 -14,7 -23,7l0 20 150 0 0 -20c-9,0 -17,-2 -23,-7 -6,-5 -9,-11 -9,-18l0 -260 30 0 0 -33 -141 0 0 33 27 0 0 107zm-212 -16c14,0 26,8 36,25 10,16 15,36 15,60 0,24 -5,46 -15,64 -10,18 -22,27 -36,27 -15,0 -27,-9 -37,-27 -10,-18 -15,-39 -15,-64 0,-23 5,-43 15,-60 10,-17 23,-25 37,-25zm365 -91l27 0 0 260c0,7 -3,13 -9,18 -6,5 -14,7 -23,7l0 20 150 0 0 -20c-9,0 -17,-2 -23,-7 -6,-5 -9,-11 -9,-18l0 -260 30 0 0 -33 -141 0 0 33zm277 162l19 0 0 59c0,17 -2,31 -5,42 -3,11 -8,17 -14,17 -6,0 -10,-6 -14,-17 -4,-11 -6,-25 -6,-42 0,-17 2,-31 6,-42 4,-11 9,-17 14,-17z"/>
   <path class="fil2" d="M3349 212l-115 0c-7,0 -13,-2 -18,-5 -3,-2 -5,-5 -6,-7 -1,-3 -3,-6 -4,-11l-14 -54 -33 0 0 -38 101 0c10,0 19,-1 25,-4 11,-5 17,-12 17,-22 0,-10 -4,-18 -12,-22 -8,-5 -18,-7 -31,-7l-91 0 0 -36 109 0c19,0 35,6 48,19 14,13 20,28 20,46 0,24 -13,42 -39,53 -19,8 -41,12 -68,12l8 38c2,0 3,0 4,1l100 0 0 38zm-293 -10c-13,3 -20,4 -24,5 -3,1 -8,1 -15,1 -27,0 -51,-9 -72,-28 -23,-20 -34,-45 -34,-75 0,-29 10,-54 29,-73 19,-19 44,-28 73,-28 11,0 19,1 24,2 6,1 12,3 19,6l0 29c-4,0 -10,-1 -16,-2 -6,-1 -10,-2 -11,-2 -22,0 -40,6 -54,17 -16,12 -24,29 -24,51 0,21 8,38 25,51 15,11 33,17 55,17 4,0 8,-1 12,-2 8,-3 13,-5 14,-5l0 36zm27 -80l-83 0 0 -34 83 0 0 -82 36 0 0 207 -36 0 0 -90zm-425 -21l-27 5c24,18 36,34 36,49 0,20 -9,35 -27,46 -17,9 -39,14 -68,14 -20,0 -40,-5 -59,-14 -15,-7 -28,-16 -40,-26l36 -28c6,10 15,18 26,25 12,7 24,11 37,11 15,0 26,-1 35,-4 14,-5 22,-13 22,-25 0,-9 -7,-18 -20,-26 -8,-5 -17,-9 -29,-13l-86 18 -6 -37 47 -5c-25,-18 -37,-33 -37,-43 0,-16 8,-29 24,-37 13,-7 30,-10 49,-10 11,0 22,1 34,3 12,2 24,5 36,8l-4 34c-12,-5 -20,-8 -26,-9 -8,-2 -16,-4 -23,-4l-9 0c-15,0 -25,2 -31,5 -5,3 -8,9 -8,16 0,7 6,14 18,20 12,6 19,9 20,8l83 -19 5 21c5,-4 11,-7 19,-7l36 2 8 0c10,0 18,-1 22,-3 7,-3 10,-9 10,-17 0,-9 -4,-15 -11,-18 -7,-3 -16,-5 -27,-5l-53 0 0 -31 75 0c16,0 29,6 40,17 11,11 16,24 16,40 0,16 -6,28 -18,38 -12,9 -27,14 -44,14 -5,0 -11,-1 -16,-2 -5,-2 -11,-3 -17,-5 -3,0 -5,2 -5,7 0,11 5,20 16,27 11,7 24,11 38,11 16,0 31,-3 44,-9 11,-5 22,-13 33,-23l0 -113 36 0 0 207 -36 0 0 -49c-14,6 -27,11 -40,14 -14,4 -27,6 -37,6 -27,0 -49,-7 -68,-20 -21,-15 -32,-35 -32,-60l0 -1zm-210 111l-115 0c-7,0 -13,-2 -18,-5 -3,-2 -5,-5 -6,-7 -1,-3 -3,-6 -4,-11l-14 -54 -33 0 0 -38 101 0c10,0 19,-1 25,-4 11,-5 17,-12 17,-22 0,-10 -4,-18 -12,-22 -8,-5 -18,-7 -31,-7l-91 0 0 -36 109 0c19,0 35,6 48,19 14,13 20,28 20,46 0,24 -13,42 -39,53 -19,8 -41,12 -68,12l8 38c2,0 3,0 4,1l100 0 0 38zm-266 -114l-62 0c-4,5 -8,10 -13,14 -4,4 -9,7 -14,10 -5,2 -11,4 -16,6 -6,2 -13,3 -23,4l13 43c-1,3 0,5 3,6 2,2 3,2 5,1l68 0 0 31 -84 0c-2,0 -5,-1 -9,-2 -4,-2 -8,-4 -11,-6 -5,-4 -8,-9 -9,-15l-18 -57 -26 0 0 -33 74 0c6,0 13,-3 19,-10 6,-6 10,-14 10,-23 0,-8 -2,-15 -6,-21 -4,-6 -10,-9 -17,-9l-65 0 0 -31 75 0c18,0 32,7 42,22 3,4 6,9 8,15 2,6 3,13 5,21l52 1 0 -59 36 0 0 207 -36 0 0 -114zm705 171c0,19 -6,34 -19,44 -11,9 -26,13 -45,13 -29,0 -54,-8 -75,-25 -13,-10 -24,-23 -34,-40l30 -15c4,13 12,25 23,33 15,12 34,18 57,18 10,0 18,-3 24,-8 7,-5 10,-12 10,-20 0,-9 -3,-14 -8,-17 -5,-3 -12,-4 -21,-4 -6,0 -13,1 -19,3 -4,1 -9,4 -14,7l-23 -23c13,-7 24,-11 33,-14 9,-2 19,-4 28,-4 15,0 28,4 38,13 11,9 16,21 16,37z"/>
   <path class="fil2" d="M2957 281l0 14 -9 0c-1,0 -2,0 -3,1 -1,1 -1,2 -1,3 0,1 0,3 1,3 1,1 2,1 3,1l9 0 0 13 -8 0c-1,0 -3,1 -4,2 -1,1 -1,3 -1,5 0,3 1,5 3,6 2,1 4,2 7,2 2,0 4,-1 6,-2 2,-1 3,-3 3,-5l0 -54c0,-4 1,-7 4,-10 3,-3 6,-4 9,-4l11 0 0 13 -4 0c-1,0 -2,0 -3,1 -1,1 -1,2 -1,3l0 52c0,5 -2,10 -7,13 -5,3 -10,5 -16,5 -8,0 -14,-1 -19,-4 -5,-3 -8,-9 -8,-16 0,-3 1,-6 2,-8 1,-2 3,-4 5,-5 -2,-1 -3,-3 -4,-5 -1,-3 -2,-6 -2,-10 0,-4 1,-8 4,-11 2,-3 5,-4 7,-4l17 0zm33 25l47 0 0 14 -47 0 0 -14zm95 14l-13 0 0 6c0,3 -1,6 -3,8 -2,2 -4,3 -7,3 -5,0 -9,-2 -11,-5 -2,-3 -3,-7 -3,-12 0,-5 2,-9 5,-11 1,-1 3,-1 5,-2l0 -6 0 -3c0,-2 0,-3 -1,-3 0,-1 -1,-1 -2,-1 -1,0 -3,0 -6,1 0,0 -1,0 -2,1l0 -13c0,0 1,-1 3,-1 2,0 4,0 7,0 3,0 6,0 8,1 2,0 3,1 4,2 1,1 2,3 2,4 0,1 0,4 0,7l0 12 13 0 0 -25 15 0 0 63 -15 0 0 -25zm-28 -70l21 0 21 32 -15 0 -27 -32zm62 46l0 -14c1,0 2,-1 5,-1 2,0 4,0 5,0 8,0 14,3 19,8 4,5 6,11 6,19 0,10 -2,17 -6,21 -4,5 -10,7 -18,7 -6,0 -11,-3 -16,-9 -4,-5 -6,-8 -6,-9l11 -8c1,3 2,5 3,6 2,4 5,6 7,6 3,0 5,-1 7,-4 2,-3 2,-6 2,-10 0,-4 -1,-7 -2,-10 -2,-3 -4,-5 -7,-5 -3,0 -5,0 -7,1 -2,1 -3,1 -3,1zm44 -14l15 0 0 63 -15 0 0 -63zm-28 -32l21 0 21 32 -15 0 -27 -32zm107 26c-2,-3 -4,-5 -5,-6 -5,-4 -11,-6 -18,-6 -6,0 -10,3 -12,9 -1,2 -2,5 -2,9l0 63 -16 0 0 -63c0,-10 3,-17 8,-23 5,-6 12,-8 21,-8 9,0 17,2 24,6 7,4 11,9 14,14l-13 5zm-28 22l0 -15c2,-1 3,-1 4,-1 3,-1 5,-1 7,-1 5,0 9,2 12,5 3,3 4,7 6,12 1,-1 2,-1 2,-2 2,-1 4,-3 6,-3 2,0 4,0 5,0 1,0 2,0 3,1 0,0 1,-1 1,-2 1,-1 1,-2 2,-3 0,-1 1,-3 1,-7l15 0c0,2 0,3 -1,4 -1,3 -1,5 -2,6 -1,1 -2,3 -4,4 -1,0 -2,1 -3,2 1,2 3,3 3,4 2,4 3,9 3,14 0,8 -1,14 -4,20 -3,6 -7,9 -13,10 -2,0 -4,0 -7,-1 0,0 -1,0 -2,-1l0 -13c0,0 1,1 2,2 1,1 2,2 3,2 2,0 4,-2 5,-5 1,-3 2,-7 2,-12 0,-4 -1,-7 -2,-9 -1,-3 -4,-4 -6,-4 -3,0 -5,1 -6,4 -1,2 -1,5 -1,8 0,8 -2,15 -6,21 -4,6 -9,9 -15,9l-3 0c-1,0 -3,-1 -5,-2 -1,0 -2,-1 -3,-2l0 -14c1,1 2,2 3,2 2,2 4,2 6,2 3,0 6,-2 8,-7 2,-4 2,-8 2,-13 0,-7 -1,-12 -2,-15 -1,-3 -3,-4 -6,-4 -1,0 -3,1 -5,2 -2,1 -3,2 -3,3zm96 13c-3,0 -6,0 -7,1 -2,1 -3,4 -3,7 0,3 1,6 2,7 1,2 3,2 5,2 2,0 4,-1 5,-2 1,-1 2,-4 2,-7 0,-2 -1,-4 -2,-7 -1,-1 -2,-3 -2,-3zm23 0l-11 0c1,1 1,2 2,3 1,2 1,5 1,9 0,6 -2,10 -5,14 -3,4 -8,5 -13,5 -7,0 -12,-2 -16,-6 -4,-4 -7,-10 -7,-17 0,-6 2,-11 6,-15 4,-4 8,-6 14,-6l30 0 0 -16 15 0 0 63 -15 0 0 -34z"/>
   <path class="fil0" d="M2653 344l-651 0c-9,0 -15,-7 -15,-15l0 0c0,-9 7,-15 15,-15l651 0c9,0 15,7 15,15l0 0c0,9 -7,15 -15,15z"/>
   <path class="fil0" d="M2437 282l-441 0c-6,0 -10,-5 -10,-10l0 0c0,-6 5,-10 10,-10l441 0c6,0 10,5 10,10l0 0c0,6 -5,10 -10,10z"/>
  </g>
 </g>
</svg>
